<svg width="60" height="60" viewBox="0 0 60 60" fill="none" xmlns="http://www.w3.org/2000/svg">
<path d="M11.25 28.7508C11.1258 28.7508 10.875 28.7508 10.7508 28.875C10.2492 28.9992 10.0008 29.5008 10.0008 30V38.7492C10.0008 44.3742 15.6258 49.9992 21.2508 49.9992H25.0008V42L12.1242 29.1258C11.8758 28.875 11.625 28.7508 11.25 28.7508L11.25 28.7508Z" fill="#F57059"/>
<path d="M49.2492 28.875C49.125 28.7508 48.8742 28.7508 48.75 28.7508C48.375 28.7508 48.1242 28.875 47.8758 29.1258L32.5008 44.5008V32.25C48.6258 29.8758 39.8766 10.7508 39.8766 10.7508C39.75 10.3758 39.2508 10.0008 38.7493 10.0008C38.25 10.0008 37.7485 10.3758 37.6243 10.875L34.3735 16.6242L31.1227 10.875C31.0008 10.3758 30.4992 10.0008 30 10.0008C29.5008 10.0008 28.9992 10.3758 28.875 10.875L25.6242 16.6242L22.3734 10.875C22.2492 10.3758 21.7499 10.0008 21.2507 10.0008C20.7515 10.0008 20.2499 10.3758 20.1257 10.875C20.1257 10.875 11.3765 30 27.5015 32.3742L27.4992 49.9992H38.7492C44.3742 49.9992 49.9992 44.3742 49.9992 38.7492V30C49.9992 29.5008 49.7508 28.9992 49.2492 28.875L49.2492 28.875Z" fill="#F57059"/>
</svg>
