<svg width="17" height="20" viewBox="0 0 17 20" fill="none" xmlns="http://www.w3.org/2000/svg">
<path d="M1.5675 1.00003C1.90217 0.956577 2.24154 1.03081 2.5275 1.21003L12.2775 6.75253L9.81 9.25003L1.5675 1.00003ZM0.817501 1.75003C0.770481 1.91331 0.747738 2.08262 0.750001 2.25253V17.7475C0.747738 17.9174 0.770481 18.0867 0.817501 18.25L9.0675 10L0.817501 1.75003ZM9.8175 10.75L1.5675 19C1.90233 19.0474 2.24304 18.9729 2.5275 18.79L12.2775 13.2475L9.8175 10.75ZM16.2075 8.99503L13.2525 7.31503L10.5525 10L13.245 12.6925L16.2 11.0125C17.175 10.4575 17.175 9.54253 16.2 8.98753L16.2075 8.99503Z" fill="white"/>
</svg>
