<svg width="42" height="42" viewBox="0 0 42 42" fill="none" xmlns="http://www.w3.org/2000/svg">
<path d="M21 13.125C17.1494 13.125 13.9994 16.275 13.9994 20.1256C13.9994 21.7006 14.5244 23.1 15.3989 24.2386C15.3989 24.2386 15.6614 24.5881 15.7483 24.6767C16.5358 25.6398 18.4603 28.3517 18.4603 30.6273H23.7103C23.7103 28.3517 25.6347 25.6398 26.4222 24.6767C26.5092 24.5897 26.7717 24.2386 26.7717 24.2386C27.6461 23.1017 28.1711 21.6136 28.1711 20.1256C28.0005 16.275 24.8505 13.125 21 13.125H21Z" fill="black"/>
<path d="M18.375 32.3745H23.625V35.8739H18.375V32.3745Z" fill="black"/>
<path d="M7.00056 19.2495H12.2506V21H7.00056V19.2495Z" fill="black"/>
<path d="M29.7494 19.2495H34.9994V21H29.7494V19.2495Z" fill="black"/>
<path d="M30.2908 9.60583L31.5278 10.8429L27.8151 14.5556L26.5781 13.3186L30.2908 9.60583Z" fill="black"/>
<path d="M20.1256 6.12445H21.8761V11.3744H20.1256V6.12445Z" fill="black"/>
<path d="M11.7188 9.59784L15.4316 13.3106L14.1945 14.5476L10.4818 10.8349L11.7188 9.59784Z" fill="black"/>
</svg>
