<svg width="60" height="60" viewBox="0 0 60 60" fill="none" xmlns="http://www.w3.org/2000/svg">
<path d="M48.375 40.6242L43.875 33.75V33.6258L51.2508 30L43.875 26.3742V26.25L48.375 19.3758L40.125 19.875L40.6242 11.625L33.75 16.125H33.6258L30 8.74921L26.3742 16.125H26.25L19.3758 11.625L19.875 19.875L11.625 19.3758L16.125 26.25V26.3742L8.7492 30L16.125 33.6258V33.75L11.625 40.6242L19.875 40.125L19.3758 48.375L26.25 43.875H26.3742L30 51.2508L33.6258 43.875H33.75L40.6242 48.375L40.125 40.125L48.375 40.6242ZM30 40.0008C24.4992 40.0008 19.9992 35.5008 19.9992 30C19.9992 24.4992 24.4992 19.9992 30 19.9992C35.5008 19.9992 40.0008 24.4992 40.0008 30C40.0008 35.5008 35.5008 40.0008 30 40.0008Z" fill="#F57059"/>
<path d="M30 22.5C25.875 22.5 22.5 25.875 22.5 30C22.5 34.125 25.875 37.5 30 37.5C34.125 37.5 37.5 34.125 37.5 30C37.5 25.875 34.125 22.5 30 22.5Z" fill="#F57059"/>
</svg>
