<svg width="280" height="222" viewBox="0 0 280 222" fill="none" xmlns="http://www.w3.org/2000/svg">
<path opacity="0.05" d="M274.244 158H174.284V131.48L221.612 81.5C226.78 75.924 230.316 71.64 232.22 68.648C234.26 65.52 235.28 62.46 235.28 59.468C235.28 55.796 234.124 52.94 231.812 50.9C229.636 48.724 226.576 47.636 222.632 47.636C214.064 47.636 207.672 52.6 203.456 62.528L172.04 44.984C176.528 34.512 183.192 26.42 192.032 20.708C201.008 14.996 211.072 12.14 222.224 12.14C235.824 12.14 247.452 16.22 257.108 24.38C266.9 32.404 271.796 43.42 271.796 57.428C271.796 65.316 269.96 72.796 266.288 79.868C262.616 86.804 256.836 94.352 248.948 102.512L229.568 122.708H274.244V158Z" fill="black"/>
<path d="M2.12 122V110.48H6.984C7.096 110.48 7.24533 110.485 7.432 110.496C7.624 110.501 7.79467 110.517 7.944 110.544C8.632 110.651 9.19467 110.877 9.632 111.224C10.0747 111.571 10.4 112.008 10.608 112.536C10.816 113.059 10.92 113.643 10.92 114.288C10.92 114.933 10.8133 115.52 10.6 116.048C10.392 116.571 10.0667 117.005 9.624 117.352C9.18667 117.699 8.62667 117.925 7.944 118.032C7.79467 118.053 7.624 118.069 7.432 118.08C7.24 118.091 7.09067 118.096 6.984 118.096H4.296V122H2.12ZM4.296 116.064H6.888C7 116.064 7.12267 116.059 7.256 116.048C7.38933 116.037 7.512 116.016 7.624 115.984C7.91733 115.904 8.144 115.771 8.304 115.584C8.464 115.392 8.57333 115.181 8.632 114.952C8.696 114.717 8.728 114.496 8.728 114.288C8.728 114.08 8.696 113.861 8.632 113.632C8.57333 113.397 8.464 113.187 8.304 113C8.144 112.808 7.91733 112.672 7.624 112.592C7.512 112.56 7.38933 112.539 7.256 112.528C7.12267 112.517 7 112.512 6.888 112.512H4.296V116.064ZM12.0463 122V113.36H13.9663V115.472L13.7583 115.2C13.8703 114.901 14.0196 114.629 14.2063 114.384C14.3929 114.139 14.6223 113.936 14.8943 113.776C15.1023 113.648 15.3289 113.549 15.5743 113.48C15.8196 113.405 16.0729 113.36 16.3343 113.344C16.5956 113.323 16.8569 113.328 17.1183 113.36V115.392C16.8783 115.317 16.5983 115.293 16.2783 115.32C15.9636 115.341 15.6783 115.413 15.4223 115.536C15.1663 115.653 14.9503 115.811 14.7743 116.008C14.5983 116.2 14.4649 116.429 14.3743 116.696C14.2836 116.957 14.2383 117.253 14.2383 117.584V122H12.0463ZM21.8918 122.24C21.0224 122.24 20.2598 122.045 19.6037 121.656C18.9478 121.267 18.4358 120.731 18.0677 120.048C17.7051 119.36 17.5238 118.571 17.5238 117.68C17.5238 116.779 17.7104 115.987 18.0838 115.304C18.4571 114.616 18.9718 114.08 19.6278 113.696C20.2838 113.312 21.0384 113.12 21.8918 113.12C22.7611 113.12 23.5238 113.315 24.1798 113.704C24.8411 114.093 25.3558 114.632 25.7238 115.32C26.0918 116.003 26.2758 116.789 26.2758 117.68C26.2758 118.576 26.0891 119.368 25.7158 120.056C25.3478 120.739 24.8331 121.275 24.1718 121.664C23.5158 122.048 22.7558 122.24 21.8918 122.24ZM21.8918 120.208C22.5904 120.208 23.1104 119.973 23.4518 119.504C23.7984 119.029 23.9718 118.421 23.9718 117.68C23.9718 116.912 23.7958 116.299 23.4438 115.84C23.0971 115.381 22.5798 115.152 21.8918 115.152C21.4171 115.152 21.0278 115.259 20.7238 115.472C20.4198 115.685 20.1931 115.981 20.0438 116.36C19.8998 116.739 19.8278 117.179 19.8278 117.68C19.8278 118.453 20.0011 119.069 20.3478 119.528C20.6998 119.981 21.2144 120.208 21.8918 120.208ZM26.275 125.84V123.808H26.659C27.155 123.808 27.4937 123.696 27.675 123.472C27.8617 123.248 27.955 122.928 27.955 122.512V113.36H30.131V123.568C30.131 124.256 29.915 124.805 29.483 125.216C29.0563 125.632 28.4777 125.84 27.747 125.84H26.275ZM27.955 112.16V110.24H30.131V112.16H27.955ZM35.9035 122.24C35.0182 122.24 34.2368 122.051 33.5595 121.672C32.8875 121.288 32.3595 120.763 31.9755 120.096C31.5968 119.424 31.4075 118.656 31.4075 117.792C31.4075 116.848 31.5942 116.027 31.9675 115.328C32.3408 114.629 32.8555 114.088 33.5115 113.704C34.1675 113.315 34.9222 113.12 35.7755 113.12C36.6822 113.12 37.4528 113.333 38.0875 113.76C38.7222 114.187 39.1915 114.787 39.4955 115.56C39.7995 116.333 39.9062 117.243 39.8155 118.288H37.6635V117.488C37.6635 116.608 37.5222 115.976 37.2395 115.592C36.9622 115.203 36.5062 115.008 35.8715 115.008C35.1302 115.008 34.5835 115.235 34.2315 115.688C33.8848 116.136 33.7115 116.8 33.7115 117.68C33.7115 118.485 33.8848 119.109 34.2315 119.552C34.5835 119.989 35.0982 120.208 35.7755 120.208C36.2022 120.208 36.5675 120.115 36.8715 119.928C37.1755 119.741 37.4075 119.472 37.5675 119.12L39.7435 119.744C39.4182 120.533 38.9035 121.147 38.1995 121.584C37.5008 122.021 36.7355 122.24 35.9035 122.24ZM33.0395 118.288V116.672H38.7675V118.288H33.0395ZM44.9499 122.24C44.0539 122.24 43.2859 122.04 42.6459 121.64C42.0059 121.24 41.5152 120.696 41.1739 120.008C40.8325 119.32 40.6619 118.544 40.6619 117.68C40.6619 116.805 40.8379 116.024 41.1899 115.336C41.5472 114.648 42.0485 114.107 42.6939 113.712C43.3392 113.317 44.1019 113.12 44.9819 113.12C46.0005 113.12 46.8539 113.379 47.5419 113.896C48.2352 114.408 48.6779 115.109 48.8699 116L46.6939 116.576C46.5659 116.128 46.3419 115.779 46.0219 115.528C45.7072 115.277 45.3499 115.152 44.9499 115.152C44.4912 115.152 44.1152 115.264 43.8219 115.488C43.5285 115.707 43.3125 116.008 43.1739 116.392C43.0352 116.771 42.9659 117.2 42.9659 117.68C42.9659 118.432 43.1312 119.043 43.4619 119.512C43.7979 119.976 44.2939 120.208 44.9499 120.208C45.4405 120.208 45.8139 120.096 46.0699 119.872C46.3259 119.648 46.5179 119.328 46.6459 118.912L48.8699 119.376C48.6245 120.293 48.1605 121 47.4779 121.496C46.7952 121.992 45.9525 122.24 44.9499 122.24ZM55.174 122C54.5767 122.112 53.99 122.16 53.414 122.144C52.8433 122.133 52.3313 122.035 51.878 121.848C51.43 121.656 51.0887 121.349 50.854 120.928C50.6407 120.533 50.5287 120.133 50.518 119.728C50.5073 119.317 50.502 118.853 50.502 118.336V110.96H52.678V118.208C52.678 118.544 52.6807 118.848 52.686 119.12C52.6967 119.387 52.7527 119.6 52.854 119.76C53.046 120.064 53.3527 120.229 53.774 120.256C54.1953 120.283 54.662 120.261 55.174 120.192V122ZM49.03 115.04V113.36H55.174V115.04H49.03ZM59.3425 122V110.48H63.0705C63.1612 110.48 63.3478 110.483 63.6305 110.488C63.9132 110.493 64.1852 110.512 64.4465 110.544C65.3745 110.656 66.1612 110.979 66.8065 111.512C67.4518 112.045 67.9425 112.723 68.2785 113.544C68.6145 114.365 68.7825 115.264 68.7825 116.24C68.7825 117.216 68.6145 118.115 68.2785 118.936C67.9425 119.757 67.4518 120.435 66.8065 120.968C66.1612 121.501 65.3745 121.824 64.4465 121.936C64.1852 121.968 63.9132 121.987 63.6305 121.992C63.3478 121.997 63.1612 122 63.0705 122H59.3425ZM61.5505 119.952H63.0705C63.2145 119.952 63.4092 119.949 63.6545 119.944C63.8998 119.933 64.1212 119.909 64.3185 119.872C64.8198 119.771 65.2278 119.536 65.5425 119.168C65.8625 118.8 66.0972 118.357 66.2465 117.84C66.4012 117.323 66.4785 116.789 66.4785 116.24C66.4785 115.664 66.3985 115.117 66.2385 114.6C66.0838 114.083 65.8465 113.645 65.5265 113.288C65.2065 112.931 64.8038 112.704 64.3185 112.608C64.1212 112.565 63.8998 112.541 63.6545 112.536C63.4092 112.531 63.2145 112.528 63.0705 112.528H61.5505V119.952ZM70.3819 112.16V110.24H72.5579V112.16H70.3819ZM70.3819 122V113.36H72.5579V122H70.3819ZM77.8522 122.24C76.7642 122.24 75.8842 121.995 75.2122 121.504C74.5456 121.008 74.1402 120.309 73.9962 119.408L76.2202 119.072C76.3109 119.477 76.5109 119.795 76.8202 120.024C77.1349 120.253 77.5322 120.368 78.0122 120.368C78.4069 120.368 78.7109 120.293 78.9242 120.144C79.1376 119.989 79.2442 119.776 79.2442 119.504C79.2442 119.333 79.2016 119.197 79.1162 119.096C79.0309 118.989 78.8389 118.885 78.5402 118.784C78.2469 118.683 77.7882 118.549 77.1642 118.384C76.4602 118.203 75.8976 118 75.4762 117.776C75.0549 117.552 74.7509 117.285 74.5642 116.976C74.3776 116.661 74.2842 116.283 74.2842 115.84C74.2842 115.285 74.4256 114.805 74.7082 114.4C74.9909 113.989 75.3882 113.675 75.9002 113.456C76.4176 113.232 77.0256 113.12 77.7242 113.12C78.4016 113.12 79.0016 113.224 79.5242 113.432C80.0469 113.64 80.4682 113.936 80.7882 114.32C81.1136 114.704 81.3136 115.157 81.3882 115.68L79.1642 116.08C79.1269 115.76 78.9882 115.507 78.7482 115.32C78.5082 115.133 78.1829 115.024 77.7722 114.992C77.3722 114.965 77.0496 115.019 76.8042 115.152C76.5642 115.285 76.4442 115.477 76.4442 115.728C76.4442 115.877 76.4949 116.003 76.5962 116.104C76.7029 116.205 76.9189 116.309 77.2442 116.416C77.5749 116.523 78.0762 116.661 78.7482 116.832C79.4042 117.003 79.9296 117.203 80.3242 117.432C80.7242 117.656 81.0149 117.928 81.1962 118.248C81.3776 118.563 81.4682 118.944 81.4682 119.392C81.4682 120.277 81.1482 120.973 80.5082 121.48C79.8682 121.987 78.9829 122.24 77.8522 122.24ZM86.5543 122.24C85.6583 122.24 84.8903 122.04 84.2503 121.64C83.6103 121.24 83.1196 120.696 82.7783 120.008C82.4369 119.32 82.2663 118.544 82.2663 117.68C82.2663 116.805 82.4423 116.024 82.7943 115.336C83.1516 114.648 83.6529 114.107 84.2983 113.712C84.9436 113.317 85.7063 113.12 86.5863 113.12C87.6049 113.12 88.4583 113.379 89.1463 113.896C89.8396 114.408 90.2823 115.109 90.4743 116L88.2983 116.576C88.1703 116.128 87.9463 115.779 87.6263 115.528C87.3116 115.277 86.9543 115.152 86.5543 115.152C86.0956 115.152 85.7196 115.264 85.4263 115.488C85.1329 115.707 84.9169 116.008 84.7783 116.392C84.6396 116.771 84.5703 117.2 84.5703 117.68C84.5703 118.432 84.7356 119.043 85.0663 119.512C85.4023 119.976 85.8983 120.208 86.5543 120.208C87.0449 120.208 87.4183 120.096 87.6743 119.872C87.9303 119.648 88.1223 119.328 88.2503 118.912L90.4743 119.376C90.2289 120.293 89.7649 121 89.0823 121.496C88.3996 121.992 87.5569 122.24 86.5543 122.24ZM95.248 122.24C94.3787 122.24 93.616 122.045 92.96 121.656C92.304 121.267 91.792 120.731 91.424 120.048C91.0613 119.36 90.88 118.571 90.88 117.68C90.88 116.779 91.0667 115.987 91.44 115.304C91.8133 114.616 92.328 114.08 92.984 113.696C93.64 113.312 94.3947 113.12 95.248 113.12C96.1173 113.12 96.88 113.315 97.536 113.704C98.1973 114.093 98.712 114.632 99.08 115.32C99.448 116.003 99.632 116.789 99.632 117.68C99.632 118.576 99.4453 119.368 99.072 120.056C98.704 120.739 98.1893 121.275 97.528 121.664C96.872 122.048 96.112 122.24 95.248 122.24ZM95.248 120.208C95.9467 120.208 96.4667 119.973 96.808 119.504C97.1547 119.029 97.328 118.421 97.328 117.68C97.328 116.912 97.152 116.299 96.8 115.84C96.4533 115.381 95.936 115.152 95.248 115.152C94.7733 115.152 94.384 115.259 94.08 115.472C93.776 115.685 93.5493 115.981 93.4 116.36C93.256 116.739 93.184 117.179 93.184 117.68C93.184 118.453 93.3573 119.069 93.704 119.528C94.056 119.981 94.5707 120.208 95.248 120.208ZM102.935 122L99.7988 113.36H101.975L104.023 119.344L106.071 113.36H108.247L105.111 122H102.935ZM112.916 122.24C112.031 122.24 111.249 122.051 110.572 121.672C109.9 121.288 109.372 120.763 108.988 120.096C108.609 119.424 108.42 118.656 108.42 117.792C108.42 116.848 108.607 116.027 108.98 115.328C109.353 114.629 109.868 114.088 110.524 113.704C111.18 113.315 111.935 113.12 112.788 113.12C113.695 113.12 114.465 113.333 115.1 113.76C115.735 114.187 116.204 114.787 116.508 115.56C116.812 116.333 116.919 117.243 116.828 118.288H114.676V117.488C114.676 116.608 114.535 115.976 114.252 115.592C113.975 115.203 113.519 115.008 112.884 115.008C112.143 115.008 111.596 115.235 111.244 115.688C110.897 116.136 110.724 116.8 110.724 117.68C110.724 118.485 110.897 119.109 111.244 119.552C111.596 119.989 112.111 120.208 112.788 120.208C113.215 120.208 113.58 120.115 113.884 119.928C114.188 119.741 114.42 119.472 114.58 119.12L116.756 119.744C116.431 120.533 115.916 121.147 115.212 121.584C114.513 122.021 113.748 122.24 112.916 122.24ZM110.052 118.288V116.672H115.78V118.288H110.052ZM118.154 122V113.36H120.074V115.472L119.866 115.2C119.978 114.901 120.128 114.629 120.314 114.384C120.501 114.139 120.73 113.936 121.002 113.776C121.21 113.648 121.437 113.549 121.682 113.48C121.928 113.405 122.181 113.36 122.442 113.344C122.704 113.323 122.965 113.328 123.226 113.36V115.392C122.986 115.317 122.706 115.293 122.386 115.32C122.072 115.341 121.786 115.413 121.53 115.536C121.274 115.653 121.058 115.811 120.882 116.008C120.706 116.2 120.573 116.429 120.482 116.696C120.392 116.957 120.346 117.253 120.346 117.584V122H118.154ZM125.06 125.84L126.724 121.264L126.756 122.608L122.996 113.36H125.252L127.78 119.904H127.268L129.78 113.36H131.956L127.076 125.84H125.06ZM140.268 122.24C139.116 122.24 138.121 121.989 137.284 121.488C136.452 120.987 135.809 120.285 135.356 119.384C134.908 118.483 134.684 117.435 134.684 116.24C134.684 115.045 134.908 113.997 135.356 113.096C135.809 112.195 136.452 111.493 137.284 110.992C138.121 110.491 139.116 110.24 140.268 110.24C141.59 110.24 142.7 110.568 143.596 111.224C144.497 111.88 145.132 112.768 145.5 113.888L143.308 114.496C143.094 113.797 142.734 113.256 142.228 112.872C141.721 112.483 141.068 112.288 140.268 112.288C139.537 112.288 138.926 112.451 138.436 112.776C137.95 113.101 137.585 113.56 137.34 114.152C137.094 114.744 136.972 115.44 136.972 116.24C136.972 117.04 137.094 117.736 137.34 118.328C137.585 118.92 137.95 119.379 138.436 119.704C138.926 120.029 139.537 120.192 140.268 120.192C141.068 120.192 141.721 119.997 142.228 119.608C142.734 119.219 143.094 118.677 143.308 117.984L145.5 118.592C145.132 119.712 144.497 120.6 143.596 121.256C142.7 121.912 141.59 122.24 140.268 122.24ZM149.181 122.24C148.563 122.24 148.037 122.123 147.605 121.888C147.179 121.648 146.853 121.331 146.629 120.936C146.411 120.536 146.301 120.096 146.301 119.616C146.301 119.216 146.363 118.851 146.485 118.52C146.608 118.189 146.805 117.899 147.077 117.648C147.355 117.392 147.725 117.179 148.189 117.008C148.509 116.891 148.891 116.787 149.333 116.696C149.776 116.605 150.277 116.52 150.837 116.44C151.397 116.355 152.013 116.261 152.685 116.16L151.901 116.592C151.901 116.08 151.779 115.704 151.533 115.464C151.288 115.224 150.877 115.104 150.301 115.104C149.981 115.104 149.648 115.181 149.301 115.336C148.955 115.491 148.712 115.765 148.573 116.16L146.605 115.536C146.824 114.821 147.235 114.24 147.837 113.792C148.44 113.344 149.261 113.12 150.301 113.12C151.064 113.12 151.741 113.237 152.333 113.472C152.925 113.707 153.373 114.112 153.677 114.688C153.848 115.008 153.949 115.328 153.981 115.648C154.013 115.968 154.029 116.325 154.029 116.72V122H152.125V120.224L152.397 120.592C151.976 121.173 151.52 121.595 151.029 121.856C150.544 122.112 149.928 122.24 149.181 122.24ZM149.645 120.528C150.045 120.528 150.381 120.459 150.653 120.32C150.931 120.176 151.149 120.013 151.309 119.832C151.475 119.651 151.587 119.499 151.645 119.376C151.757 119.141 151.821 118.869 151.837 118.56C151.859 118.245 151.869 117.984 151.869 117.776L152.509 117.936C151.864 118.043 151.341 118.133 150.941 118.208C150.541 118.277 150.219 118.341 149.973 118.4C149.728 118.459 149.512 118.523 149.325 118.592C149.112 118.677 148.939 118.771 148.805 118.872C148.677 118.968 148.581 119.075 148.517 119.192C148.459 119.309 148.429 119.44 148.429 119.584C148.429 119.781 148.477 119.952 148.573 120.096C148.675 120.235 148.816 120.341 148.997 120.416C149.179 120.491 149.395 120.528 149.645 120.528ZM155.789 122V110.24H157.965V122H155.789ZM160.044 122V110.24H162.22V122H160.044Z" fill="black"/>
<path d="M2.12 153V141.48H3.544V146.56H9.608V141.48H11.032V153H9.608V147.912H3.544V153H2.12ZM13.1163 142.832V141.36H14.5403V142.832H13.1163ZM13.1163 153V144.36H14.5403V153H13.1163ZM19.8846 153.232C18.8553 153.232 18.01 153.008 17.3486 152.56C16.6926 152.107 16.29 151.475 16.1406 150.664L17.5966 150.432C17.714 150.901 17.9833 151.275 18.4046 151.552C18.826 151.824 19.3486 151.96 19.9726 151.96C20.5646 151.96 21.0286 151.837 21.3646 151.592C21.7006 151.347 21.8686 151.013 21.8686 150.592C21.8686 150.347 21.8126 150.149 21.7006 150C21.5886 149.845 21.3566 149.701 21.0046 149.568C20.658 149.435 20.1326 149.275 19.4286 149.088C18.666 148.885 18.066 148.675 17.6286 148.456C17.1913 148.237 16.8793 147.984 16.6926 147.696C16.506 147.408 16.4126 147.059 16.4126 146.648C16.4126 146.141 16.5513 145.699 16.8286 145.32C17.106 144.936 17.4926 144.64 17.9886 144.432C18.49 144.224 19.0713 144.12 19.7326 144.12C20.3886 144.12 20.9753 144.224 21.4926 144.432C22.01 144.64 22.426 144.936 22.7406 145.32C23.0606 145.699 23.25 146.141 23.3086 146.648L21.8526 146.912C21.7833 146.448 21.5593 146.083 21.1806 145.816C20.8073 145.549 20.3246 145.408 19.7326 145.392C19.1726 145.371 18.7166 145.469 18.3646 145.688C18.018 145.907 17.8446 146.203 17.8446 146.576C17.8446 146.784 17.9086 146.963 18.0366 147.112C18.17 147.261 18.4126 147.403 18.7646 147.536C19.122 147.669 19.6393 147.821 20.3166 147.992C21.0793 148.184 21.6793 148.395 22.1166 148.624C22.5593 148.848 22.874 149.115 23.0606 149.424C23.2473 149.728 23.3406 150.104 23.3406 150.552C23.3406 151.384 23.034 152.04 22.4206 152.52C21.8073 152.995 20.962 153.232 19.8846 153.232ZM31.0601 153.24C30.2548 153.24 29.5641 153.04 28.9881 152.64C28.4121 152.235 27.9668 151.688 27.6521 151C27.3428 150.312 27.1881 149.536 27.1881 148.672C27.1881 147.808 27.3428 147.032 27.6521 146.344C27.9668 145.656 28.4121 145.115 28.9881 144.72C29.5641 144.32 30.2521 144.12 31.0521 144.12C31.8681 144.12 32.5535 144.317 33.1081 144.712C33.6628 145.107 34.0815 145.648 34.3641 146.336C34.6521 147.024 34.7961 147.803 34.7961 148.672C34.7961 149.531 34.6521 150.307 34.3641 151C34.0815 151.688 33.6628 152.235 33.1081 152.64C32.5535 153.04 31.8708 153.24 31.0601 153.24ZM31.2361 151.936C31.8175 151.936 32.2948 151.797 32.6681 151.52C33.0415 151.237 33.3161 150.851 33.4921 150.36C33.6735 149.864 33.7641 149.301 33.7641 148.672C33.7641 148.032 33.6735 147.469 33.4921 146.984C33.3161 146.493 33.0441 146.112 32.6761 145.84C32.3081 145.563 31.8415 145.424 31.2761 145.424C30.6895 145.424 30.2041 145.568 29.8201 145.856C29.4415 146.144 29.1588 146.533 28.9721 147.024C28.7908 147.515 28.7001 148.064 28.7001 148.672C28.7001 149.285 28.7935 149.84 28.9801 150.336C29.1668 150.827 29.4468 151.216 29.8201 151.504C30.1988 151.792 30.6708 151.936 31.2361 151.936ZM33.7641 153V146.64H33.6041V141.48H35.0361V153H33.7641ZM40.7015 153.24C39.8535 153.24 39.1122 153.053 38.4775 152.68C37.8482 152.301 37.3575 151.776 37.0055 151.104C36.6535 150.427 36.4775 149.637 36.4775 148.736C36.4775 147.792 36.6508 146.976 36.9975 146.288C37.3442 145.595 37.8268 145.061 38.4455 144.688C39.0695 144.309 39.8002 144.12 40.6375 144.12C41.5068 144.12 42.2455 144.32 42.8535 144.72C43.4668 145.12 43.9255 145.691 44.2295 146.432C44.5388 147.173 44.6722 148.056 44.6295 149.08H43.1895V148.568C43.1735 147.507 42.9575 146.715 42.5415 146.192C42.1255 145.664 41.5068 145.4 40.6855 145.4C39.8055 145.4 39.1362 145.683 38.6775 146.248C38.2188 146.813 37.9895 147.624 37.9895 148.68C37.9895 149.699 38.2188 150.488 38.6775 151.048C39.1362 151.608 39.7895 151.888 40.6375 151.888C41.2082 151.888 41.7042 151.757 42.1255 151.496C42.5468 151.235 42.8775 150.859 43.1175 150.368L44.4855 150.84C44.1495 151.603 43.6428 152.195 42.9655 152.616C42.2935 153.032 41.5388 153.24 40.7015 153.24ZM37.5095 149.08V147.936H43.8935V149.08H37.5095ZM46.9146 153V143.888C46.9146 143.664 46.9253 143.437 46.9466 143.208C46.968 142.973 47.016 142.747 47.0906 142.528C47.1653 142.304 47.288 142.099 47.4586 141.912C47.656 141.693 47.872 141.539 48.1066 141.448C48.3413 141.352 48.5786 141.293 48.8186 141.272C49.064 141.251 49.296 141.24 49.5146 141.24H50.6106V142.424H49.5946C49.1733 142.424 48.8586 142.528 48.6506 142.736C48.4426 142.939 48.3386 143.248 48.3386 143.664V153H46.9146ZM45.4506 145.536V144.36H50.6106V145.536H45.4506ZM54.999 153.24C54.151 153.24 53.4097 153.053 52.775 152.68C52.1457 152.301 51.655 151.776 51.303 151.104C50.951 150.427 50.775 149.637 50.775 148.736C50.775 147.792 50.9483 146.976 51.295 146.288C51.6417 145.595 52.1243 145.061 52.743 144.688C53.367 144.309 54.0977 144.12 54.935 144.12C55.8043 144.12 56.543 144.32 57.151 144.72C57.7643 145.12 58.223 145.691 58.527 146.432C58.8363 147.173 58.9697 148.056 58.927 149.08H57.487V148.568C57.471 147.507 57.255 146.715 56.839 146.192C56.423 145.664 55.8043 145.4 54.983 145.4C54.103 145.4 53.4337 145.683 52.975 146.248C52.5163 146.813 52.287 147.624 52.287 148.68C52.287 149.699 52.5163 150.488 52.975 151.048C53.4337 151.608 54.087 151.888 54.935 151.888C55.5057 151.888 56.0017 151.757 56.423 151.496C56.8443 151.235 57.175 150.859 57.415 150.368L58.783 150.84C58.447 151.603 57.9403 152.195 57.263 152.616C56.591 153.032 55.8363 153.24 54.999 153.24ZM51.807 149.08V147.936H58.191V149.08H51.807ZM64.0281 153.24C63.1535 153.24 62.4095 153.045 61.7961 152.656C61.1881 152.261 60.7241 151.72 60.4041 151.032C60.0841 150.344 59.9188 149.56 59.9081 148.68C59.9188 147.779 60.0868 146.987 60.4121 146.304C60.7428 145.616 61.2148 145.08 61.8281 144.696C62.4415 144.312 63.1801 144.12 64.0441 144.12C64.9561 144.12 65.7401 144.344 66.3961 144.792C67.0575 145.24 67.5001 145.853 67.7241 146.632L66.3161 147.056C66.1348 146.555 65.8388 146.165 65.4281 145.888C65.0228 145.611 64.5561 145.472 64.0281 145.472C63.4361 145.472 62.9481 145.611 62.5641 145.888C62.1801 146.16 61.8948 146.539 61.7081 147.024C61.5215 147.504 61.4255 148.056 61.4201 148.68C61.4308 149.64 61.6521 150.416 62.0841 151.008C62.5215 151.595 63.1695 151.888 64.0281 151.888C64.5935 151.888 65.0628 151.76 65.4361 151.504C65.8095 151.243 66.0921 150.867 66.2841 150.376L67.7241 150.752C67.4255 151.557 66.9588 152.173 66.3241 152.6C65.6895 153.027 64.9241 153.24 64.0281 153.24ZM73.8609 153C73.3489 153.101 72.8422 153.141 72.3409 153.12C71.8449 153.104 71.4022 153.005 71.0129 152.824C70.6235 152.637 70.3275 152.349 70.1249 151.96C69.9542 151.619 69.8609 151.275 69.8449 150.928C69.8342 150.576 69.8289 150.179 69.8289 149.736V141.96H71.2529V149.672C71.2529 150.024 71.2555 150.325 71.2609 150.576C71.2715 150.827 71.3275 151.043 71.4289 151.224C71.6209 151.565 71.9249 151.765 72.3409 151.824C72.7622 151.883 73.2689 151.867 73.8609 151.776V153ZM68.0769 145.536V144.36H73.8609V145.536H68.0769ZM75.455 142.832V141.36H76.879V142.832H75.455ZM75.455 153V144.36H76.879V153H75.455ZM81.2954 153L78.1594 144.36H79.5994L82.0234 151.184L84.4394 144.36H85.8874L82.7514 153H81.2954ZM90.4459 153.24C89.5979 153.24 88.8565 153.053 88.2219 152.68C87.5925 152.301 87.1019 151.776 86.7499 151.104C86.3979 150.427 86.2219 149.637 86.2219 148.736C86.2219 147.792 86.3952 146.976 86.7419 146.288C87.0885 145.595 87.5712 145.061 88.1899 144.688C88.8139 144.309 89.5445 144.12 90.3819 144.12C91.2512 144.12 91.9899 144.32 92.5979 144.72C93.2112 145.12 93.6699 145.691 93.9739 146.432C94.2832 147.173 94.4165 148.056 94.3739 149.08H92.9339V148.568C92.9179 147.507 92.7019 146.715 92.2859 146.192C91.8699 145.664 91.2512 145.4 90.4299 145.4C89.5499 145.4 88.8805 145.683 88.4219 146.248C87.9632 146.813 87.7339 147.624 87.7339 148.68C87.7339 149.699 87.9632 150.488 88.4219 151.048C88.8805 151.608 89.5339 151.888 90.3819 151.888C90.9525 151.888 91.4485 151.757 91.8699 151.496C92.2912 151.235 92.6219 150.859 92.8619 150.368L94.2299 150.84C93.8939 151.603 93.3872 152.195 92.7099 152.616C92.0379 153.032 91.2832 153.24 90.4459 153.24ZM87.2539 149.08V147.936H93.6379V149.08H87.2539ZM104.87 153V148.672C104.87 148.261 104.833 147.867 104.758 147.488C104.689 147.109 104.563 146.771 104.382 146.472C104.206 146.168 103.966 145.928 103.662 145.752C103.363 145.576 102.985 145.488 102.526 145.488C102.169 145.488 101.843 145.549 101.55 145.672C101.262 145.789 101.014 145.971 100.806 146.216C100.598 146.461 100.435 146.771 100.318 147.144C100.206 147.512 100.15 147.947 100.15 148.448L99.2141 148.16C99.2141 147.323 99.3635 146.605 99.6621 146.008C99.9661 145.405 100.39 144.944 100.934 144.624C101.483 144.299 102.129 144.136 102.87 144.136C103.43 144.136 103.907 144.224 104.302 144.4C104.697 144.576 105.025 144.811 105.286 145.104C105.547 145.392 105.753 145.717 105.902 146.08C106.051 146.437 106.155 146.803 106.214 147.176C106.278 147.544 106.31 147.893 106.31 148.224V153H104.87ZM98.7101 153V144.36H99.9901V146.672H100.15V153H98.7101ZM111.672 153.24C110.813 153.24 110.072 153.045 109.448 152.656C108.829 152.267 108.352 151.728 108.016 151.04C107.68 150.352 107.512 149.563 107.512 148.672C107.512 147.765 107.683 146.971 108.024 146.288C108.365 145.605 108.848 145.075 109.472 144.696C110.096 144.312 110.829 144.12 111.672 144.12C112.536 144.12 113.28 144.315 113.904 144.704C114.528 145.088 115.005 145.624 115.336 146.312C115.672 146.995 115.84 147.781 115.84 148.672C115.84 149.573 115.672 150.368 115.336 151.056C115 151.739 114.52 152.275 113.896 152.664C113.272 153.048 112.531 153.24 111.672 153.24ZM111.672 151.888C112.568 151.888 113.235 151.589 113.672 150.992C114.109 150.395 114.328 149.621 114.328 148.672C114.328 147.696 114.107 146.92 113.664 146.344C113.221 145.763 112.557 145.472 111.672 145.472C111.069 145.472 110.573 145.608 110.184 145.88C109.795 146.152 109.504 146.528 109.312 147.008C109.12 147.488 109.024 148.043 109.024 148.672C109.024 149.643 109.248 150.421 109.696 151.008C110.144 151.595 110.803 151.888 111.672 151.888ZM117.281 153V144.36H118.553V146.448L118.345 146.176C118.447 145.909 118.577 145.664 118.737 145.44C118.903 145.216 119.087 145.032 119.289 144.888C119.513 144.707 119.767 144.568 120.049 144.472C120.332 144.376 120.62 144.32 120.913 144.304C121.207 144.283 121.481 144.301 121.737 144.36V145.696C121.439 145.616 121.111 145.595 120.753 145.632C120.396 145.669 120.065 145.8 119.761 146.024C119.484 146.221 119.268 146.461 119.113 146.744C118.964 147.027 118.86 147.333 118.801 147.664C118.743 147.989 118.713 148.323 118.713 148.664V153H117.281ZM129.453 153.24C128.578 153.24 127.834 153.045 127.221 152.656C126.613 152.261 126.149 151.72 125.829 151.032C125.509 150.344 125.344 149.56 125.333 148.68C125.344 147.779 125.512 146.987 125.837 146.304C126.168 145.616 126.64 145.08 127.253 144.696C127.866 144.312 128.605 144.12 129.469 144.12C130.381 144.12 131.165 144.344 131.821 144.792C132.482 145.24 132.925 145.853 133.149 146.632L131.741 147.056C131.56 146.555 131.264 146.165 130.853 145.888C130.448 145.611 129.981 145.472 129.453 145.472C128.861 145.472 128.373 145.611 127.989 145.888C127.605 146.16 127.32 146.539 127.133 147.024C126.946 147.504 126.85 148.056 126.845 148.68C126.856 149.64 127.077 150.416 127.509 151.008C127.946 151.595 128.594 151.888 129.453 151.888C130.018 151.888 130.488 151.76 130.861 151.504C131.234 151.243 131.517 150.867 131.709 150.376L133.149 150.752C132.85 151.557 132.384 152.173 131.749 152.6C131.114 153.027 130.349 153.24 129.453 153.24ZM137.907 153.24C137.049 153.24 136.307 153.045 135.683 152.656C135.065 152.267 134.587 151.728 134.251 151.04C133.915 150.352 133.747 149.563 133.747 148.672C133.747 147.765 133.918 146.971 134.259 146.288C134.601 145.605 135.083 145.075 135.707 144.696C136.331 144.312 137.065 144.12 137.907 144.12C138.771 144.12 139.515 144.315 140.139 144.704C140.763 145.088 141.241 145.624 141.571 146.312C141.907 146.995 142.075 147.781 142.075 148.672C142.075 149.573 141.907 150.368 141.571 151.056C141.235 151.739 140.755 152.275 140.131 152.664C139.507 153.048 138.766 153.24 137.907 153.24ZM137.907 151.888C138.803 151.888 139.47 151.589 139.907 150.992C140.345 150.395 140.563 149.621 140.563 148.672C140.563 147.696 140.342 146.92 139.899 146.344C139.457 145.763 138.793 145.472 137.907 145.472C137.305 145.472 136.809 145.608 136.419 145.88C136.03 146.152 135.739 146.528 135.547 147.008C135.355 147.488 135.259 148.043 135.259 148.672C135.259 149.643 135.483 150.421 135.931 151.008C136.379 151.595 137.038 151.888 137.907 151.888ZM149.669 153V148.672C149.669 148.261 149.632 147.867 149.557 147.488C149.488 147.109 149.362 146.771 149.181 146.472C149.005 146.168 148.765 145.928 148.461 145.752C148.162 145.576 147.784 145.488 147.325 145.488C146.968 145.488 146.642 145.549 146.349 145.672C146.061 145.789 145.813 145.971 145.605 146.216C145.397 146.461 145.234 146.771 145.117 147.144C145.005 147.512 144.949 147.947 144.949 148.448L144.013 148.16C144.013 147.323 144.162 146.605 144.461 146.008C144.765 145.405 145.189 144.944 145.733 144.624C146.282 144.299 146.928 144.136 147.669 144.136C148.229 144.136 148.706 144.224 149.101 144.4C149.496 144.576 149.824 144.811 150.085 145.104C150.346 145.392 150.552 145.717 150.701 146.08C150.85 146.437 150.954 146.803 151.013 147.176C151.077 147.544 151.109 147.893 151.109 148.224V153H149.669ZM143.509 153V144.36H144.789V146.672H144.949V153H143.509ZM155.205 153L152.069 144.36H153.509L155.933 151.184L158.349 144.36H159.797L156.661 153H155.205ZM161.084 142.832V141.36H162.508V142.832H161.084ZM161.084 153V144.36H162.508V153H161.084ZM170.74 153V148.672C170.74 148.261 170.703 147.867 170.628 147.488C170.559 147.109 170.433 146.771 170.252 146.472C170.076 146.168 169.836 145.928 169.532 145.752C169.233 145.576 168.855 145.488 168.396 145.488C168.039 145.488 167.713 145.549 167.42 145.672C167.132 145.789 166.884 145.971 166.676 146.216C166.468 146.461 166.305 146.771 166.188 147.144C166.076 147.512 166.02 147.947 166.02 148.448L165.084 148.16C165.084 147.323 165.233 146.605 165.532 146.008C165.836 145.405 166.26 144.944 166.804 144.624C167.353 144.299 167.999 144.136 168.74 144.136C169.3 144.136 169.777 144.224 170.172 144.4C170.567 144.576 170.895 144.811 171.156 145.104C171.417 145.392 171.623 145.717 171.772 146.08C171.921 146.437 172.025 146.803 172.084 147.176C172.148 147.544 172.18 147.893 172.18 148.224V153H170.74ZM164.58 153V144.36H165.86V146.672H166.02V153H164.58ZM177.502 153.24C176.627 153.24 175.883 153.045 175.27 152.656C174.662 152.261 174.198 151.72 173.878 151.032C173.558 150.344 173.393 149.56 173.382 148.68C173.393 147.779 173.561 146.987 173.886 146.304C174.217 145.616 174.689 145.08 175.302 144.696C175.915 144.312 176.654 144.12 177.518 144.12C178.43 144.12 179.214 144.344 179.87 144.792C180.531 145.24 180.974 145.853 181.198 146.632L179.79 147.056C179.609 146.555 179.313 146.165 178.902 145.888C178.497 145.611 178.03 145.472 177.502 145.472C176.91 145.472 176.422 145.611 176.038 145.888C175.654 146.16 175.369 146.539 175.182 147.024C174.995 147.504 174.899 148.056 174.894 148.68C174.905 149.64 175.126 150.416 175.558 151.008C175.995 151.595 176.643 151.888 177.502 151.888C178.067 151.888 178.537 151.76 178.91 151.504C179.283 151.243 179.566 150.867 179.758 150.376L181.198 150.752C180.899 151.557 180.433 152.173 179.798 152.6C179.163 153.027 178.398 153.24 177.502 153.24ZM186.02 153.24C185.172 153.24 184.431 153.053 183.796 152.68C183.167 152.301 182.676 151.776 182.324 151.104C181.972 150.427 181.796 149.637 181.796 148.736C181.796 147.792 181.97 146.976 182.316 146.288C182.663 145.595 183.146 145.061 183.764 144.688C184.388 144.309 185.119 144.12 185.956 144.12C186.826 144.12 187.564 144.32 188.172 144.72C188.786 145.12 189.244 145.691 189.548 146.432C189.858 147.173 189.991 148.056 189.948 149.08H188.508V148.568C188.492 147.507 188.276 146.715 187.86 146.192C187.444 145.664 186.826 145.4 186.004 145.4C185.124 145.4 184.455 145.683 183.996 146.248C183.538 146.813 183.308 147.624 183.308 148.68C183.308 149.699 183.538 150.488 183.996 151.048C184.455 151.608 185.108 151.888 185.956 151.888C186.527 151.888 187.023 151.757 187.444 151.496C187.866 151.235 188.196 150.859 188.436 150.368L189.804 150.84C189.468 151.603 188.962 152.195 188.284 152.616C187.612 153.032 186.858 153.24 186.02 153.24ZM182.828 149.08V147.936H189.212V149.08H182.828ZM194.801 153.24C193.996 153.24 193.305 153.04 192.729 152.64C192.153 152.235 191.708 151.688 191.393 151C191.084 150.312 190.929 149.536 190.929 148.672C190.929 147.808 191.084 147.032 191.393 146.344C191.708 145.656 192.153 145.115 192.729 144.72C193.305 144.32 193.993 144.12 194.793 144.12C195.609 144.12 196.295 144.317 196.849 144.712C197.404 145.107 197.823 145.648 198.105 146.336C198.393 147.024 198.537 147.803 198.537 148.672C198.537 149.531 198.393 150.307 198.105 151C197.823 151.688 197.404 152.235 196.849 152.64C196.295 153.04 195.612 153.24 194.801 153.24ZM194.977 151.936C195.559 151.936 196.036 151.797 196.409 151.52C196.783 151.237 197.057 150.851 197.233 150.36C197.415 149.864 197.505 149.301 197.505 148.672C197.505 148.032 197.415 147.469 197.233 146.984C197.057 146.493 196.785 146.112 196.417 145.84C196.049 145.563 195.583 145.424 195.017 145.424C194.431 145.424 193.945 145.568 193.561 145.856C193.183 146.144 192.9 146.533 192.713 147.024C192.532 147.515 192.441 148.064 192.441 148.672C192.441 149.285 192.535 149.84 192.721 150.336C192.908 150.827 193.188 151.216 193.561 151.504C193.94 151.792 194.412 151.936 194.977 151.936ZM197.505 153V146.64H197.345V141.48H198.777V153H197.505ZM203.582 153V144.36H204.854V146.448L204.646 146.176C204.747 145.909 204.878 145.664 205.038 145.44C205.203 145.216 205.387 145.032 205.59 144.888C205.814 144.707 206.067 144.568 206.35 144.472C206.633 144.376 206.921 144.32 207.214 144.304C207.507 144.283 207.782 144.301 208.038 144.36V145.696C207.739 145.616 207.411 145.595 207.054 145.632C206.697 145.669 206.366 145.8 206.062 146.024C205.785 146.221 205.569 146.461 205.414 146.744C205.265 147.027 205.161 147.333 205.102 147.664C205.043 147.989 205.014 148.323 205.014 148.664V153H203.582ZM212.818 153.24C211.97 153.24 211.229 153.053 210.594 152.68C209.965 152.301 209.474 151.776 209.122 151.104C208.77 150.427 208.594 149.637 208.594 148.736C208.594 147.792 208.768 146.976 209.114 146.288C209.461 145.595 209.944 145.061 210.562 144.688C211.186 144.309 211.917 144.12 212.754 144.12C213.624 144.12 214.362 144.32 214.97 144.72C215.584 145.12 216.042 145.691 216.346 146.432C216.656 147.173 216.789 148.056 216.746 149.08H215.306V148.568C215.29 147.507 215.074 146.715 214.658 146.192C214.242 145.664 213.624 145.4 212.802 145.4C211.922 145.4 211.253 145.683 210.794 146.248C210.336 146.813 210.106 147.624 210.106 148.68C210.106 149.699 210.336 150.488 210.794 151.048C211.253 151.608 211.906 151.888 212.754 151.888C213.325 151.888 213.821 151.757 214.242 151.496C214.664 151.235 214.994 150.859 215.234 150.368L216.602 150.84C216.266 151.603 215.76 152.195 215.082 152.616C214.41 153.032 213.656 153.24 212.818 153.24ZM209.626 149.08V147.936H216.01V149.08H209.626ZM221.471 153.232C220.442 153.232 219.597 153.008 218.935 152.56C218.279 152.107 217.877 151.475 217.727 150.664L219.183 150.432C219.301 150.901 219.57 151.275 219.991 151.552C220.413 151.824 220.935 151.96 221.559 151.96C222.151 151.96 222.615 151.837 222.951 151.592C223.287 151.347 223.455 151.013 223.455 150.592C223.455 150.347 223.399 150.149 223.287 150C223.175 149.845 222.943 149.701 222.591 149.568C222.245 149.435 221.719 149.275 221.015 149.088C220.253 148.885 219.653 148.675 219.215 148.456C218.778 148.237 218.466 147.984 218.279 147.696C218.093 147.408 217.999 147.059 217.999 146.648C217.999 146.141 218.138 145.699 218.415 145.32C218.693 144.936 219.079 144.64 219.575 144.432C220.077 144.224 220.658 144.12 221.319 144.12C221.975 144.12 222.562 144.224 223.079 144.432C223.597 144.64 224.013 144.936 224.327 145.32C224.647 145.699 224.837 146.141 224.895 146.648L223.439 146.912C223.37 146.448 223.146 146.083 222.767 145.816C222.394 145.549 221.911 145.408 221.319 145.392C220.759 145.371 220.303 145.469 219.951 145.688C219.605 145.907 219.431 146.203 219.431 146.576C219.431 146.784 219.495 146.963 219.623 147.112C219.757 147.261 219.999 147.403 220.351 147.536C220.709 147.669 221.226 147.821 221.903 147.992C222.666 148.184 223.266 148.395 223.703 148.624C224.146 148.848 224.461 149.115 224.647 149.424C224.834 149.728 224.927 150.104 224.927 150.552C224.927 151.384 224.621 152.04 224.007 152.52C223.394 152.995 222.549 153.232 221.471 153.232ZM226.532 142.832V141.36H227.956V142.832H226.532ZM226.532 153V144.36H227.956V153H226.532ZM233.428 153.24C232.623 153.24 231.932 153.04 231.356 152.64C230.78 152.235 230.335 151.688 230.02 151C229.711 150.312 229.556 149.536 229.556 148.672C229.556 147.808 229.711 147.032 230.02 146.344C230.335 145.656 230.78 145.115 231.356 144.72C231.932 144.32 232.62 144.12 233.42 144.12C234.236 144.12 234.922 144.317 235.476 144.712C236.031 145.107 236.45 145.648 236.732 146.336C237.02 147.024 237.164 147.803 237.164 148.672C237.164 149.531 237.02 150.307 236.732 151C236.45 151.688 236.031 152.235 235.476 152.64C234.922 153.04 234.239 153.24 233.428 153.24ZM233.604 151.936C234.186 151.936 234.663 151.797 235.036 151.52C235.41 151.237 235.684 150.851 235.86 150.36C236.042 149.864 236.132 149.301 236.132 148.672C236.132 148.032 236.042 147.469 235.86 146.984C235.684 146.493 235.412 146.112 235.044 145.84C234.676 145.563 234.21 145.424 233.644 145.424C233.058 145.424 232.572 145.568 232.188 145.856C231.81 146.144 231.527 146.533 231.34 147.024C231.159 147.515 231.068 148.064 231.068 148.672C231.068 149.285 231.162 149.84 231.348 150.336C231.535 150.827 231.815 151.216 232.188 151.504C232.567 151.792 233.039 151.936 233.604 151.936ZM236.132 153V146.64H235.972V141.48H237.404V153H236.132ZM243.07 153.24C242.222 153.24 241.48 153.053 240.846 152.68C240.216 152.301 239.726 151.776 239.374 151.104C239.022 150.427 238.846 149.637 238.846 148.736C238.846 147.792 239.019 146.976 239.366 146.288C239.712 145.595 240.195 145.061 240.814 144.688C241.438 144.309 242.168 144.12 243.006 144.12C243.875 144.12 244.614 144.32 245.222 144.72C245.835 145.12 246.294 145.691 246.598 146.432C246.907 147.173 247.04 148.056 246.998 149.08H245.558V148.568C245.542 147.507 245.326 146.715 244.91 146.192C244.494 145.664 243.875 145.4 243.054 145.4C242.174 145.4 241.504 145.683 241.046 146.248C240.587 146.813 240.358 147.624 240.358 148.68C240.358 149.699 240.587 150.488 241.046 151.048C241.504 151.608 242.158 151.888 243.006 151.888C243.576 151.888 244.072 151.757 244.494 151.496C244.915 151.235 245.246 150.859 245.486 150.368L246.854 150.84C246.518 151.603 246.011 152.195 245.334 152.616C244.662 153.032 243.907 153.24 243.07 153.24ZM239.878 149.08V147.936H246.262V149.08H239.878ZM254.376 153V148.672C254.376 148.261 254.339 147.867 254.264 147.488C254.195 147.109 254.07 146.771 253.888 146.472C253.712 146.168 253.472 145.928 253.168 145.752C252.87 145.576 252.491 145.488 252.032 145.488C251.675 145.488 251.35 145.549 251.056 145.672C250.768 145.789 250.52 145.971 250.312 146.216C250.104 146.461 249.942 146.771 249.824 147.144C249.712 147.512 249.656 147.947 249.656 148.448L248.72 148.16C248.72 147.323 248.87 146.605 249.168 146.008C249.472 145.405 249.896 144.944 250.44 144.624C250.99 144.299 251.635 144.136 252.376 144.136C252.936 144.136 253.414 144.224 253.808 144.4C254.203 144.576 254.531 144.811 254.792 145.104C255.054 145.392 255.259 145.717 255.408 146.08C255.558 146.437 255.662 146.803 255.72 147.176C255.784 147.544 255.816 147.893 255.816 148.224V153H254.376ZM248.216 153V144.36H249.496V146.672H249.656V153H248.216ZM261.138 153.24C260.263 153.24 259.519 153.045 258.906 152.656C258.298 152.261 257.834 151.72 257.514 151.032C257.194 150.344 257.029 149.56 257.018 148.68C257.029 147.779 257.197 146.987 257.522 146.304C257.853 145.616 258.325 145.08 258.938 144.696C259.551 144.312 260.29 144.12 261.154 144.12C262.066 144.12 262.85 144.344 263.506 144.792C264.167 145.24 264.61 145.853 264.834 146.632L263.426 147.056C263.245 146.555 262.949 146.165 262.538 145.888C262.133 145.611 261.666 145.472 261.138 145.472C260.546 145.472 260.058 145.611 259.674 145.888C259.29 146.16 259.005 146.539 258.818 147.024C258.631 147.504 258.535 148.056 258.53 148.68C258.541 149.64 258.762 150.416 259.194 151.008C259.631 151.595 260.279 151.888 261.138 151.888C261.703 151.888 262.173 151.76 262.546 151.504C262.919 151.243 263.202 150.867 263.394 150.376L264.834 150.752C264.535 151.557 264.069 152.173 263.434 152.6C262.799 153.027 262.034 153.24 261.138 153.24ZM269.657 153.24C268.809 153.24 268.067 153.053 267.433 152.68C266.803 152.301 266.313 151.776 265.961 151.104C265.609 150.427 265.433 149.637 265.433 148.736C265.433 147.792 265.606 146.976 265.953 146.288C266.299 145.595 266.782 145.061 267.401 144.688C268.025 144.309 268.755 144.12 269.593 144.12C270.462 144.12 271.201 144.32 271.809 144.72C272.422 145.12 272.881 145.691 273.185 146.432C273.494 147.173 273.627 148.056 273.585 149.08H272.145V148.568C272.129 147.507 271.913 146.715 271.497 146.192C271.081 145.664 270.462 145.4 269.641 145.4C268.761 145.4 268.091 145.683 267.633 146.248C267.174 146.813 266.945 147.624 266.945 148.68C266.945 149.699 267.174 150.488 267.633 151.048C268.091 151.608 268.745 151.888 269.593 151.888C270.163 151.888 270.659 151.757 271.081 151.496C271.502 151.235 271.833 150.859 272.073 150.368L273.441 150.84C273.105 151.603 272.598 152.195 271.921 152.616C271.249 153.032 270.494 153.24 269.657 153.24ZM266.465 149.08V147.936H272.849V149.08H266.465ZM5.8 183.24C4.94133 183.24 4.2 183.045 3.576 182.656C2.95733 182.267 2.48 181.728 2.144 181.04C1.808 180.352 1.64 179.563 1.64 178.672C1.64 177.765 1.81067 176.971 2.152 176.288C2.49333 175.605 2.976 175.075 3.6 174.696C4.224 174.312 4.95733 174.12 5.8 174.12C6.664 174.12 7.408 174.315 8.032 174.704C8.656 175.088 9.13333 175.624 9.464 176.312C9.8 176.995 9.968 177.781 9.968 178.672C9.968 179.573 9.8 180.368 9.464 181.056C9.128 181.739 8.648 182.275 8.024 182.664C7.4 183.048 6.65867 183.24 5.8 183.24ZM5.8 181.888C6.696 181.888 7.36267 181.589 7.8 180.992C8.23733 180.395 8.456 179.621 8.456 178.672C8.456 177.696 8.23467 176.92 7.792 176.344C7.34933 175.763 6.68533 175.472 5.8 175.472C5.19733 175.472 4.70133 175.608 4.312 175.88C3.92267 176.152 3.632 176.528 3.44 177.008C3.248 177.488 3.152 178.043 3.152 178.672C3.152 179.643 3.376 180.421 3.824 181.008C4.272 181.595 4.93067 181.888 5.8 181.888ZM12.9369 183L10.2969 174.352L11.7129 174.36L13.6409 180.68L15.5849 174.36H16.8409L18.7769 180.68L20.7129 174.36H22.1209L19.4809 183H18.2969L16.2089 176.432L14.1209 183H12.9369ZM29.3976 183V178.672C29.3976 178.261 29.3603 177.867 29.2856 177.488C29.2163 177.109 29.091 176.771 28.9096 176.472C28.7336 176.168 28.4936 175.928 28.1896 175.752C27.891 175.576 27.5123 175.488 27.0536 175.488C26.6963 175.488 26.371 175.549 26.0776 175.672C25.7896 175.789 25.5416 175.971 25.3336 176.216C25.1256 176.461 24.963 176.771 24.8456 177.144C24.7336 177.512 24.6776 177.947 24.6776 178.448L23.7416 178.16C23.7416 177.323 23.891 176.605 24.1896 176.008C24.4936 175.405 24.9176 174.944 25.4616 174.624C26.011 174.299 26.6563 174.136 27.3976 174.136C27.9576 174.136 28.435 174.224 28.8296 174.4C29.2243 174.576 29.5523 174.811 29.8136 175.104C30.075 175.392 30.2803 175.717 30.4296 176.08C30.579 176.437 30.683 176.803 30.7416 177.176C30.8056 177.544 30.8376 177.893 30.8376 178.224V183H29.3976ZM23.2376 183V174.36H24.5176V176.672H24.6776V183H23.2376ZM32.8535 183V181.432H34.4215V183H32.8535ZM44.2091 183.24C43.0625 183.24 42.0891 182.987 41.2891 182.48C40.4891 181.973 39.8785 181.269 39.4571 180.368C39.0411 179.467 38.8331 178.424 38.8331 177.24C38.8331 176.056 39.0411 175.013 39.4571 174.112C39.8785 173.211 40.4891 172.507 41.2891 172C42.0891 171.493 43.0625 171.24 44.2091 171.24C45.5425 171.24 46.6385 171.579 47.4971 172.256C48.3611 172.933 48.9558 173.845 49.2811 174.992L47.8331 175.376C47.5985 174.517 47.1798 173.84 46.5771 173.344C45.9745 172.848 45.1851 172.6 44.2091 172.6C43.3505 172.6 42.6358 172.795 42.0651 173.184C41.4945 173.573 41.0651 174.117 40.7771 174.816C40.4891 175.509 40.3425 176.317 40.3371 177.24C40.3318 178.157 40.4731 178.965 40.7611 179.664C41.0491 180.357 41.4811 180.901 42.0571 181.296C42.6331 181.685 43.3505 181.88 44.2091 181.88C45.1851 181.88 45.9745 181.632 46.5771 181.136C47.1798 180.635 47.5985 179.957 47.8331 179.104L49.2811 179.488C48.9558 180.629 48.3611 181.541 47.4971 182.224C46.6385 182.901 45.5425 183.24 44.2091 183.24ZM54.3956 183.24C53.537 183.24 52.7956 183.045 52.1716 182.656C51.553 182.267 51.0756 181.728 50.7396 181.04C50.4036 180.352 50.2356 179.563 50.2356 178.672C50.2356 177.765 50.4063 176.971 50.7476 176.288C51.089 175.605 51.5716 175.075 52.1956 174.696C52.8196 174.312 53.553 174.12 54.3956 174.12C55.2596 174.12 56.0036 174.315 56.6276 174.704C57.2516 175.088 57.729 175.624 58.0596 176.312C58.3956 176.995 58.5636 177.781 58.5636 178.672C58.5636 179.573 58.3956 180.368 58.0596 181.056C57.7236 181.739 57.2436 182.275 56.6196 182.664C55.9956 183.048 55.2543 183.24 54.3956 183.24ZM54.3956 181.888C55.2916 181.888 55.9583 181.589 56.3956 180.992C56.833 180.395 57.0516 179.621 57.0516 178.672C57.0516 177.696 56.8303 176.92 56.3876 176.344C55.945 175.763 55.281 175.472 54.3956 175.472C53.793 175.472 53.297 175.608 52.9076 175.88C52.5183 176.152 52.2276 176.528 52.0356 177.008C51.8436 177.488 51.7476 178.043 51.7476 178.672C51.7476 179.643 51.9716 180.421 52.4196 181.008C52.8676 181.595 53.5263 181.888 54.3956 181.888ZM66.157 183V178.672C66.157 178.261 66.1197 177.867 66.045 177.488C65.9757 177.109 65.8503 176.771 65.669 176.472C65.493 176.168 65.253 175.928 64.949 175.752C64.6503 175.576 64.2717 175.488 63.813 175.488C63.4557 175.488 63.1303 175.549 62.837 175.672C62.549 175.789 62.301 175.971 62.093 176.216C61.885 176.461 61.7223 176.771 61.605 177.144C61.493 177.512 61.437 177.947 61.437 178.448L60.501 178.16C60.501 177.323 60.6503 176.605 60.949 176.008C61.253 175.405 61.677 174.944 62.221 174.624C62.7703 174.299 63.4157 174.136 64.157 174.136C64.717 174.136 65.1943 174.224 65.589 174.4C65.9837 174.576 66.3117 174.811 66.573 175.104C66.8343 175.392 67.0397 175.717 67.189 176.08C67.3383 176.437 67.4423 176.803 67.501 177.176C67.565 177.544 67.597 177.893 67.597 178.224V183H66.157ZM59.997 183V174.36H61.277V176.672H61.437V183H59.997ZM75.5089 183V178.672C75.5089 178.261 75.4715 177.867 75.3969 177.488C75.3275 177.109 75.2022 176.771 75.0209 176.472C74.8449 176.168 74.6049 175.928 74.3009 175.752C74.0022 175.576 73.6235 175.488 73.1649 175.488C72.8075 175.488 72.4822 175.549 72.1889 175.672C71.9009 175.789 71.6529 175.971 71.4449 176.216C71.2369 176.461 71.0742 176.771 70.9569 177.144C70.8449 177.512 70.7889 177.947 70.7889 178.448L69.8529 178.16C69.8529 177.323 70.0022 176.605 70.3009 176.008C70.6049 175.405 71.0289 174.944 71.5729 174.624C72.1222 174.299 72.7675 174.136 73.5089 174.136C74.0689 174.136 74.5462 174.224 74.9409 174.4C75.3355 174.576 75.6635 174.811 75.9249 175.104C76.1862 175.392 76.3915 175.717 76.5409 176.08C76.6902 176.437 76.7942 176.803 76.8529 177.176C76.9169 177.544 76.9489 177.893 76.9489 178.224V183H75.5089ZM69.3489 183V174.36H70.6289V176.672H70.7889V183H69.3489ZM82.3746 183.24C81.5266 183.24 80.7853 183.053 80.1506 182.68C79.5213 182.301 79.0306 181.776 78.6786 181.104C78.3266 180.427 78.1506 179.637 78.1506 178.736C78.1506 177.792 78.324 176.976 78.6706 176.288C79.0173 175.595 79.5 175.061 80.1186 174.688C80.7426 174.309 81.4733 174.12 82.3106 174.12C83.18 174.12 83.9186 174.32 84.5266 174.72C85.14 175.12 85.5986 175.691 85.9026 176.432C86.212 177.173 86.3453 178.056 86.3026 179.08H84.8626V178.568C84.8466 177.507 84.6306 176.715 84.2146 176.192C83.7986 175.664 83.18 175.4 82.3586 175.4C81.4786 175.4 80.8093 175.683 80.3506 176.248C79.892 176.813 79.6626 177.624 79.6626 178.68C79.6626 179.699 79.892 180.488 80.3506 181.048C80.8093 181.608 81.4626 181.888 82.3106 181.888C82.8813 181.888 83.3773 181.757 83.7986 181.496C84.22 181.235 84.5506 180.859 84.7906 180.368L86.1586 180.84C85.8226 181.603 85.316 182.195 84.6386 182.616C83.9666 183.032 83.212 183.24 82.3746 183.24ZM79.1826 179.08V177.936H85.5666V179.08H79.1826ZM91.4038 183.24C90.5291 183.24 89.7851 183.045 89.1718 182.656C88.5638 182.261 88.0998 181.72 87.7798 181.032C87.4598 180.344 87.2944 179.56 87.2838 178.68C87.2944 177.779 87.4624 176.987 87.7878 176.304C88.1184 175.616 88.5904 175.08 89.2038 174.696C89.8171 174.312 90.5558 174.12 91.4198 174.12C92.3318 174.12 93.1158 174.344 93.7718 174.792C94.4331 175.24 94.8758 175.853 95.0998 176.632L93.6918 177.056C93.5104 176.555 93.2144 176.165 92.8038 175.888C92.3984 175.611 91.9318 175.472 91.4038 175.472C90.8118 175.472 90.3238 175.611 89.9398 175.888C89.5558 176.16 89.2704 176.539 89.0838 177.024C88.8971 177.504 88.8011 178.056 88.7958 178.68C88.8064 179.64 89.0278 180.416 89.4598 181.008C89.8971 181.595 90.5451 181.888 91.4038 181.888C91.9691 181.888 92.4384 181.76 92.8118 181.504C93.1851 181.243 93.4678 180.867 93.6598 180.376L95.0998 180.752C94.8011 181.557 94.3344 182.173 93.6998 182.6C93.0651 183.027 92.2998 183.24 91.4038 183.24ZM101.237 183C100.725 183.101 100.218 183.141 99.7165 183.12C99.2205 183.104 98.7778 183.005 98.3885 182.824C97.9992 182.637 97.7032 182.349 97.5005 181.96C97.3298 181.619 97.2365 181.275 97.2205 180.928C97.2098 180.576 97.2045 180.179 97.2045 179.736V171.96H98.6285V179.672C98.6285 180.024 98.6312 180.325 98.6365 180.576C98.6472 180.827 98.7032 181.043 98.8045 181.224C98.9965 181.565 99.3005 181.765 99.7165 181.824C100.138 181.883 100.645 181.867 101.237 181.776V183ZM95.4525 175.536V174.36H101.237V175.536H95.4525ZM102.831 172.832V171.36H104.255V172.832H102.831ZM102.831 183V174.36H104.255V183H102.831ZM110.015 183.24C109.156 183.24 108.415 183.045 107.791 182.656C107.172 182.267 106.695 181.728 106.359 181.04C106.023 180.352 105.855 179.563 105.855 178.672C105.855 177.765 106.026 176.971 106.367 176.288C106.708 175.605 107.191 175.075 107.815 174.696C108.439 174.312 109.172 174.12 110.015 174.12C110.879 174.12 111.623 174.315 112.247 174.704C112.871 175.088 113.348 175.624 113.679 176.312C114.015 176.995 114.183 177.781 114.183 178.672C114.183 179.573 114.015 180.368 113.679 181.056C113.343 181.739 112.863 182.275 112.239 182.664C111.615 183.048 110.874 183.24 110.015 183.24ZM110.015 181.888C110.911 181.888 111.578 181.589 112.015 180.992C112.452 180.395 112.671 179.621 112.671 178.672C112.671 177.696 112.45 176.92 112.007 176.344C111.564 175.763 110.9 175.472 110.015 175.472C109.412 175.472 108.916 175.608 108.527 175.88C108.138 176.152 107.847 176.528 107.655 177.008C107.463 177.488 107.367 178.043 107.367 178.672C107.367 179.643 107.591 180.421 108.039 181.008C108.487 181.595 109.146 181.888 110.015 181.888ZM121.776 183V178.672C121.776 178.261 121.739 177.867 121.664 177.488C121.595 177.109 121.47 176.771 121.288 176.472C121.112 176.168 120.872 175.928 120.568 175.752C120.27 175.576 119.891 175.488 119.432 175.488C119.075 175.488 118.75 175.549 118.456 175.672C118.168 175.789 117.92 175.971 117.712 176.216C117.504 176.461 117.342 176.771 117.224 177.144C117.112 177.512 117.056 177.947 117.056 178.448L116.12 178.16C116.12 177.323 116.27 176.605 116.568 176.008C116.872 175.405 117.296 174.944 117.84 174.624C118.39 174.299 119.035 174.136 119.776 174.136C120.336 174.136 120.814 174.224 121.208 174.4C121.603 174.576 121.931 174.811 122.192 175.104C122.454 175.392 122.659 175.717 122.808 176.08C122.958 176.437 123.062 176.803 123.12 177.176C123.184 177.544 123.216 177.893 123.216 178.224V183H121.776ZM115.616 183V174.36H116.896V176.672H117.056V183H115.616ZM134.011 183V178.672C134.011 178.261 133.974 177.867 133.899 177.488C133.83 177.109 133.705 176.771 133.523 176.472C133.347 176.168 133.107 175.928 132.803 175.752C132.505 175.576 132.126 175.488 131.667 175.488C131.31 175.488 130.985 175.549 130.691 175.672C130.403 175.789 130.155 175.971 129.947 176.216C129.739 176.461 129.577 176.771 129.459 177.144C129.347 177.512 129.291 177.947 129.291 178.448L128.355 178.16C128.355 177.323 128.505 176.605 128.803 176.008C129.107 175.405 129.531 174.944 130.075 174.624C130.625 174.299 131.27 174.136 132.011 174.136C132.571 174.136 133.049 174.224 133.443 174.4C133.838 174.576 134.166 174.811 134.427 175.104C134.689 175.392 134.894 175.717 135.043 176.08C135.193 176.437 135.297 176.803 135.355 177.176C135.419 177.544 135.451 177.893 135.451 178.224V183H134.011ZM127.851 183V171.48H129.131V177.84H129.291V183H127.851ZM139.667 183.24C139.022 183.24 138.481 183.123 138.043 182.888C137.611 182.648 137.283 182.333 137.059 181.944C136.841 181.555 136.731 181.128 136.731 180.664C136.731 180.211 136.817 179.819 136.987 179.488C137.163 179.152 137.409 178.875 137.723 178.656C138.038 178.432 138.414 178.256 138.851 178.128C139.262 178.016 139.721 177.92 140.227 177.84C140.739 177.755 141.257 177.677 141.779 177.608C142.302 177.539 142.79 177.472 143.243 177.408L142.731 177.704C142.747 176.936 142.593 176.368 142.267 176C141.947 175.632 141.393 175.448 140.603 175.448C140.081 175.448 139.622 175.568 139.227 175.808C138.838 176.043 138.563 176.427 138.403 176.96L137.051 176.552C137.259 175.795 137.662 175.2 138.259 174.768C138.857 174.336 139.643 174.12 140.619 174.12C141.403 174.12 142.075 174.261 142.635 174.544C143.201 174.821 143.606 175.243 143.851 175.808C143.974 176.075 144.051 176.365 144.083 176.68C144.115 176.989 144.131 177.315 144.131 177.656V183H142.867V180.928L143.163 181.12C142.838 181.819 142.382 182.347 141.795 182.704C141.214 183.061 140.505 183.24 139.667 183.24ZM139.883 182.048C140.395 182.048 140.838 181.957 141.211 181.776C141.59 181.589 141.894 181.347 142.123 181.048C142.353 180.744 142.502 180.413 142.571 180.056C142.651 179.789 142.694 179.493 142.699 179.168C142.71 178.837 142.715 178.584 142.715 178.408L143.211 178.624C142.747 178.688 142.291 178.749 141.843 178.808C141.395 178.867 140.971 178.931 140.571 179C140.171 179.064 139.811 179.141 139.491 179.232C139.257 179.307 139.035 179.403 138.827 179.52C138.625 179.637 138.459 179.789 138.331 179.976C138.209 180.157 138.147 180.384 138.147 180.656C138.147 180.891 138.206 181.115 138.323 181.328C138.446 181.541 138.633 181.715 138.883 181.848C139.139 181.981 139.473 182.048 139.883 182.048ZM149.155 183.232C148.126 183.232 147.281 183.008 146.619 182.56C145.963 182.107 145.561 181.475 145.411 180.664L146.867 180.432C146.985 180.901 147.254 181.275 147.675 181.552C148.097 181.824 148.619 181.96 149.243 181.96C149.835 181.96 150.299 181.837 150.635 181.592C150.971 181.347 151.139 181.013 151.139 180.592C151.139 180.347 151.083 180.149 150.971 180C150.859 179.845 150.627 179.701 150.275 179.568C149.929 179.435 149.403 179.275 148.699 179.088C147.937 178.885 147.337 178.675 146.899 178.456C146.462 178.237 146.15 177.984 145.963 177.696C145.777 177.408 145.683 177.059 145.683 176.648C145.683 176.141 145.822 175.699 146.099 175.32C146.377 174.936 146.763 174.64 147.259 174.432C147.761 174.224 148.342 174.12 149.003 174.12C149.659 174.12 150.246 174.224 150.763 174.432C151.281 174.64 151.697 174.936 152.011 175.32C152.331 175.699 152.521 176.141 152.579 176.648L151.123 176.912C151.054 176.448 150.83 176.083 150.451 175.816C150.078 175.549 149.595 175.408 149.003 175.392C148.443 175.371 147.987 175.469 147.635 175.688C147.289 175.907 147.115 176.203 147.115 176.576C147.115 176.784 147.179 176.963 147.307 177.112C147.441 177.261 147.683 177.403 148.035 177.536C148.393 177.669 148.91 177.821 149.587 177.992C150.35 178.184 150.95 178.395 151.387 178.624C151.83 178.848 152.145 179.115 152.331 179.424C152.518 179.728 152.611 180.104 152.611 180.552C152.611 181.384 152.305 182.04 151.691 182.52C151.078 182.995 150.233 183.232 149.155 183.232ZM160.907 183.24C160.096 183.24 159.413 183.04 158.859 182.64C158.304 182.235 157.883 181.688 157.595 181C157.312 180.307 157.171 179.531 157.171 178.672C157.171 177.803 157.312 177.024 157.595 176.336C157.883 175.648 158.304 175.107 158.859 174.712C159.419 174.317 160.104 174.12 160.915 174.12C161.715 174.12 162.403 174.32 162.979 174.72C163.56 175.115 164.005 175.656 164.315 176.344C164.624 177.032 164.779 177.808 164.779 178.672C164.779 179.536 164.624 180.312 164.315 181C164.005 181.688 163.56 182.235 162.979 182.64C162.403 183.04 161.712 183.24 160.907 183.24ZM156.931 186.84V174.36H158.203V180.72H158.363V186.84H156.931ZM160.731 181.936C161.301 181.936 161.773 181.792 162.147 181.504C162.52 181.216 162.8 180.827 162.987 180.336C163.173 179.84 163.267 179.285 163.267 178.672C163.267 178.064 163.173 177.515 162.987 177.024C162.805 176.533 162.523 176.144 162.139 175.856C161.76 175.568 161.277 175.424 160.691 175.424C160.131 175.424 159.667 175.563 159.299 175.84C158.931 176.112 158.656 176.493 158.475 176.984C158.293 177.469 158.203 178.032 158.203 178.672C158.203 179.301 158.291 179.864 158.467 180.36C158.648 180.851 158.925 181.237 159.299 181.52C159.672 181.797 160.149 181.936 160.731 181.936ZM169.492 183.224C168.938 183.224 168.46 183.136 168.06 182.96C167.666 182.784 167.338 182.549 167.076 182.256C166.815 181.963 166.61 181.637 166.46 181.28C166.311 180.923 166.204 180.557 166.14 180.184C166.082 179.811 166.052 179.461 166.052 179.136V174.36H167.492V178.688C167.492 179.093 167.53 179.485 167.604 179.864C167.679 180.243 167.804 180.584 167.98 180.888C168.162 181.192 168.402 181.432 168.7 181.608C169.004 181.784 169.383 181.872 169.836 181.872C170.194 181.872 170.519 181.811 170.812 181.688C171.106 181.565 171.356 181.384 171.564 181.144C171.772 180.899 171.932 180.589 172.044 180.216C172.156 179.843 172.212 179.408 172.212 178.912L173.148 179.2C173.148 180.032 172.996 180.749 172.692 181.352C172.394 181.955 171.97 182.419 171.42 182.744C170.876 183.064 170.234 183.224 169.492 183.224ZM172.372 183V180.688H172.212V174.36H173.644V183H172.372ZM180.388 183C179.876 183.101 179.37 183.141 178.868 183.12C178.372 183.104 177.93 183.005 177.54 182.824C177.151 182.637 176.855 182.349 176.652 181.96C176.482 181.619 176.388 181.275 176.372 180.928C176.362 180.576 176.356 180.179 176.356 179.736V171.96H177.78V179.672C177.78 180.024 177.783 180.325 177.788 180.576C177.799 180.827 177.855 181.043 177.956 181.224C178.148 181.565 178.452 181.765 178.868 181.824C179.29 181.883 179.796 181.867 180.388 181.776V183ZM174.604 175.536V174.36H180.388V175.536H174.604ZM184.866 172.832V171.36H186.29V172.832H184.866ZM184.866 183V174.36H186.29V183H184.866ZM198.698 183L198.706 177.472C198.706 176.827 198.533 176.323 198.186 175.96C197.845 175.592 197.399 175.408 196.85 175.408C196.53 175.408 196.226 175.483 195.938 175.632C195.65 175.776 195.415 176.005 195.234 176.32C195.053 176.629 194.962 177.027 194.962 177.512L194.21 177.208C194.199 176.595 194.325 176.059 194.586 175.6C194.853 175.136 195.215 174.776 195.674 174.52C196.133 174.264 196.65 174.136 197.226 174.136C198.127 174.136 198.837 174.411 199.354 174.96C199.871 175.504 200.13 176.237 200.13 177.16L200.122 183H198.698ZM188.362 183V174.36H189.634V176.672H189.794V183H188.362ZM193.538 183L193.546 177.528C193.546 176.867 193.375 176.349 193.034 175.976C192.693 175.597 192.239 175.408 191.674 175.408C191.114 175.408 190.661 175.6 190.314 175.984C189.967 176.368 189.794 176.877 189.794 177.512L189.042 177.064C189.042 176.504 189.175 176.003 189.442 175.56C189.709 175.117 190.071 174.771 190.53 174.52C190.989 174.264 191.509 174.136 192.09 174.136C192.671 174.136 193.178 174.259 193.61 174.504C194.042 174.749 194.375 175.101 194.61 175.56C194.845 176.013 194.962 176.555 194.962 177.184L194.954 183H193.538ZM205.862 183.24C205.051 183.24 204.368 183.04 203.814 182.64C203.259 182.235 202.838 181.688 202.55 181C202.267 180.307 202.126 179.531 202.126 178.672C202.126 177.803 202.267 177.024 202.55 176.336C202.838 175.648 203.259 175.107 203.814 174.712C204.374 174.317 205.059 174.12 205.87 174.12C206.67 174.12 207.358 174.32 207.934 174.72C208.515 175.115 208.96 175.656 209.27 176.344C209.579 177.032 209.734 177.808 209.734 178.672C209.734 179.536 209.579 180.312 209.27 181C208.96 181.688 208.515 182.235 207.934 182.64C207.358 183.04 206.667 183.24 205.862 183.24ZM201.886 186.84V174.36H203.158V180.72H203.318V186.84H201.886ZM205.686 181.936C206.256 181.936 206.728 181.792 207.102 181.504C207.475 181.216 207.755 180.827 207.942 180.336C208.128 179.84 208.222 179.285 208.222 178.672C208.222 178.064 208.128 177.515 207.942 177.024C207.76 176.533 207.478 176.144 207.094 175.856C206.715 175.568 206.232 175.424 205.646 175.424C205.086 175.424 204.622 175.563 204.254 175.84C203.886 176.112 203.611 176.493 203.43 176.984C203.248 177.469 203.158 178.032 203.158 178.672C203.158 179.301 203.246 179.864 203.422 180.36C203.603 180.851 203.88 181.237 204.254 181.52C204.627 181.797 205.104 181.936 205.686 181.936ZM214.848 183.24C213.989 183.24 213.248 183.045 212.624 182.656C212.005 182.267 211.528 181.728 211.192 181.04C210.856 180.352 210.688 179.563 210.688 178.672C210.688 177.765 210.858 176.971 211.2 176.288C211.541 175.605 212.024 175.075 212.648 174.696C213.272 174.312 214.005 174.12 214.848 174.12C215.712 174.12 216.456 174.315 217.08 174.704C217.704 175.088 218.181 175.624 218.512 176.312C218.848 176.995 219.016 177.781 219.016 178.672C219.016 179.573 218.848 180.368 218.512 181.056C218.176 181.739 217.696 182.275 217.072 182.664C216.448 183.048 215.706 183.24 214.848 183.24ZM214.848 181.888C215.744 181.888 216.41 181.589 216.848 180.992C217.285 180.395 217.504 179.621 217.504 178.672C217.504 177.696 217.282 176.92 216.84 176.344C216.397 175.763 215.733 175.472 214.848 175.472C214.245 175.472 213.749 175.608 213.36 175.88C212.97 176.152 212.68 176.528 212.488 177.008C212.296 177.488 212.2 178.043 212.2 178.672C212.2 179.643 212.424 180.421 212.872 181.008C213.32 181.595 213.978 181.888 214.848 181.888ZM223.596 183.232C222.567 183.232 221.721 183.008 221.06 182.56C220.404 182.107 220.001 181.475 219.852 180.664L221.308 180.432C221.425 180.901 221.695 181.275 222.116 181.552C222.537 181.824 223.06 181.96 223.684 181.96C224.276 181.96 224.74 181.837 225.076 181.592C225.412 181.347 225.58 181.013 225.58 180.592C225.58 180.347 225.524 180.149 225.412 180C225.3 179.845 225.068 179.701 224.716 179.568C224.369 179.435 223.844 179.275 223.14 179.088C222.377 178.885 221.777 178.675 221.34 178.456C220.903 178.237 220.591 177.984 220.404 177.696C220.217 177.408 220.124 177.059 220.124 176.648C220.124 176.141 220.263 175.699 220.54 175.32C220.817 174.936 221.204 174.64 221.7 174.432C222.201 174.224 222.783 174.12 223.444 174.12C224.1 174.12 224.687 174.224 225.204 174.432C225.721 174.64 226.137 174.936 226.452 175.32C226.772 175.699 226.961 176.141 227.02 176.648L225.564 176.912C225.495 176.448 225.271 176.083 224.892 175.816C224.519 175.549 224.036 175.408 223.444 175.392C222.884 175.371 222.428 175.469 222.076 175.688C221.729 175.907 221.556 176.203 221.556 176.576C221.556 176.784 221.62 176.963 221.748 177.112C221.881 177.261 222.124 177.403 222.476 177.536C222.833 177.669 223.351 177.821 224.028 177.992C224.791 178.184 225.391 178.395 225.828 178.624C226.271 178.848 226.585 179.115 226.772 179.424C226.959 179.728 227.052 180.104 227.052 180.552C227.052 181.384 226.745 182.04 226.132 182.52C225.519 182.995 224.673 183.232 223.596 183.232ZM231.76 183.232C230.731 183.232 229.886 183.008 229.224 182.56C228.568 182.107 228.166 181.475 228.016 180.664L229.472 180.432C229.59 180.901 229.859 181.275 230.28 181.552C230.702 181.824 231.224 181.96 231.848 181.96C232.44 181.96 232.904 181.837 233.24 181.592C233.576 181.347 233.744 181.013 233.744 180.592C233.744 180.347 233.688 180.149 233.576 180C233.464 179.845 233.232 179.701 232.88 179.568C232.534 179.435 232.008 179.275 231.304 179.088C230.542 178.885 229.942 178.675 229.504 178.456C229.067 178.237 228.755 177.984 228.568 177.696C228.382 177.408 228.288 177.059 228.288 176.648C228.288 176.141 228.427 175.699 228.704 175.32C228.982 174.936 229.368 174.64 229.864 174.432C230.366 174.224 230.947 174.12 231.608 174.12C232.264 174.12 232.851 174.224 233.368 174.432C233.886 174.64 234.302 174.936 234.616 175.32C234.936 175.699 235.126 176.141 235.184 176.648L233.728 176.912C233.659 176.448 233.435 176.083 233.056 175.816C232.683 175.549 232.2 175.408 231.608 175.392C231.048 175.371 230.592 175.469 230.24 175.688C229.894 175.907 229.72 176.203 229.72 176.576C229.72 176.784 229.784 176.963 229.912 177.112C230.046 177.261 230.288 177.403 230.64 177.536C230.998 177.669 231.515 177.821 232.192 177.992C232.955 178.184 233.555 178.395 233.992 178.624C234.435 178.848 234.75 179.115 234.936 179.424C235.123 179.728 235.216 180.104 235.216 180.552C235.216 181.384 234.91 182.04 234.296 182.52C233.683 182.995 232.838 183.232 231.76 183.232ZM236.821 172.832V171.36H238.245V172.832H236.821ZM236.821 183V174.36H238.245V183H236.821ZM244.293 183.24C243.482 183.24 242.8 183.04 242.245 182.64C241.69 182.235 241.269 181.688 240.981 181C240.698 180.307 240.557 179.531 240.557 178.672C240.557 177.803 240.698 177.024 240.981 176.336C241.269 175.648 241.69 175.107 242.245 174.712C242.805 174.317 243.49 174.12 244.301 174.12C245.101 174.12 245.789 174.32 246.365 174.72C246.946 175.115 247.392 175.656 247.701 176.344C248.01 177.032 248.165 177.808 248.165 178.672C248.165 179.536 248.01 180.312 247.701 181C247.392 181.688 246.946 182.235 246.365 182.64C245.789 183.04 245.098 183.24 244.293 183.24ZM240.317 183V171.48H241.749V176.64H241.589V183H240.317ZM244.117 181.936C244.688 181.936 245.16 181.792 245.533 181.504C245.906 181.216 246.186 180.827 246.373 180.336C246.56 179.84 246.653 179.285 246.653 178.672C246.653 178.064 246.56 177.515 246.373 177.024C246.192 176.533 245.909 176.144 245.525 175.856C245.146 175.568 244.664 175.424 244.077 175.424C243.517 175.424 243.053 175.563 242.685 175.84C242.317 176.112 242.042 176.493 241.861 176.984C241.68 177.469 241.589 178.032 241.589 178.672C241.589 179.301 241.677 179.864 241.853 180.36C242.034 180.851 242.312 181.237 242.685 181.52C243.058 181.797 243.536 181.936 244.117 181.936ZM249.759 183V171.24H251.183V183H249.759ZM257.007 183.24C256.159 183.24 255.418 183.053 254.783 182.68C254.154 182.301 253.663 181.776 253.311 181.104C252.959 180.427 252.783 179.637 252.783 178.736C252.783 177.792 252.956 176.976 253.303 176.288C253.65 175.595 254.132 175.061 254.751 174.688C255.375 174.309 256.106 174.12 256.943 174.12C257.812 174.12 258.551 174.32 259.159 174.72C259.772 175.12 260.231 175.691 260.535 176.432C260.844 177.173 260.978 178.056 260.935 179.08H259.495V178.568C259.479 177.507 259.263 176.715 258.847 176.192C258.431 175.664 257.812 175.4 256.991 175.4C256.111 175.4 255.442 175.683 254.983 176.248C254.524 176.813 254.295 177.624 254.295 178.68C254.295 179.699 254.524 180.488 254.983 181.048C255.442 181.608 256.095 181.888 256.943 181.888C257.514 181.888 258.01 181.757 258.431 181.496C258.852 181.235 259.183 180.859 259.423 180.368L260.791 180.84C260.455 181.603 259.948 182.195 259.271 182.616C258.599 183.032 257.844 183.24 257.007 183.24ZM253.815 179.08V177.936H260.199V179.08H253.815ZM5.8 213.24C4.94133 213.24 4.2 213.045 3.576 212.656C2.95733 212.267 2.48 211.728 2.144 211.04C1.808 210.352 1.64 209.563 1.64 208.672C1.64 207.765 1.81067 206.971 2.152 206.288C2.49333 205.605 2.976 205.075 3.6 204.696C4.224 204.312 4.95733 204.12 5.8 204.12C6.664 204.12 7.408 204.315 8.032 204.704C8.656 205.088 9.13333 205.624 9.464 206.312C9.8 206.995 9.968 207.781 9.968 208.672C9.968 209.573 9.8 210.368 9.464 211.056C9.128 211.739 8.648 212.275 8.024 212.664C7.4 213.048 6.65867 213.24 5.8 213.24ZM5.8 211.888C6.696 211.888 7.36267 211.589 7.8 210.992C8.23733 210.395 8.456 209.621 8.456 208.672C8.456 207.696 8.23467 206.92 7.792 206.344C7.34933 205.763 6.68533 205.472 5.8 205.472C5.19733 205.472 4.70133 205.608 4.312 205.88C3.92267 206.152 3.632 206.528 3.44 207.008C3.248 207.488 3.152 208.043 3.152 208.672C3.152 209.643 3.376 210.421 3.824 211.008C4.272 211.595 4.93067 211.888 5.8 211.888ZM12.9369 213L10.2969 204.352L11.7129 204.36L13.6409 210.68L15.5849 204.36H16.8409L18.7769 210.68L20.7129 204.36H22.1209L19.4809 213H18.2969L16.2089 206.432L14.1209 213H12.9369ZM29.3976 213V208.672C29.3976 208.261 29.3603 207.867 29.2856 207.488C29.2163 207.109 29.091 206.771 28.9096 206.472C28.7336 206.168 28.4936 205.928 28.1896 205.752C27.891 205.576 27.5123 205.488 27.0536 205.488C26.6963 205.488 26.371 205.549 26.0776 205.672C25.7896 205.789 25.5416 205.971 25.3336 206.216C25.1256 206.461 24.963 206.771 24.8456 207.144C24.7336 207.512 24.6776 207.947 24.6776 208.448L23.7416 208.16C23.7416 207.323 23.891 206.605 24.1896 206.008C24.4936 205.405 24.9176 204.944 25.4616 204.624C26.011 204.299 26.6563 204.136 27.3976 204.136C27.9576 204.136 28.435 204.224 28.8296 204.4C29.2243 204.576 29.5523 204.811 29.8136 205.104C30.075 205.392 30.2803 205.717 30.4296 206.08C30.579 206.437 30.683 206.803 30.7416 207.176C30.8056 207.544 30.8376 207.893 30.8376 208.224V213H29.3976ZM23.2376 213V204.36H24.5176V206.672H24.6776V213H23.2376ZM37.9366 213.24C37.2913 213.24 36.75 213.123 36.3126 212.888C35.8806 212.648 35.5526 212.333 35.3286 211.944C35.11 211.555 35.0006 211.128 35.0006 210.664C35.0006 210.211 35.086 209.819 35.2566 209.488C35.4326 209.152 35.678 208.875 35.9926 208.656C36.3073 208.432 36.6833 208.256 37.1206 208.128C37.5313 208.016 37.99 207.92 38.4966 207.84C39.0086 207.755 39.526 207.677 40.0486 207.608C40.5713 207.539 41.0593 207.472 41.5126 207.408L41.0006 207.704C41.0166 206.936 40.862 206.368 40.5366 206C40.2166 205.632 39.662 205.448 38.8726 205.448C38.35 205.448 37.8913 205.568 37.4966 205.808C37.1073 206.043 36.8326 206.427 36.6726 206.96L35.3206 206.552C35.5286 205.795 35.9313 205.2 36.5286 204.768C37.126 204.336 37.9126 204.12 38.8886 204.12C39.6726 204.12 40.3446 204.261 40.9046 204.544C41.47 204.821 41.8753 205.243 42.1206 205.808C42.2433 206.075 42.3206 206.365 42.3526 206.68C42.3846 206.989 42.4006 207.315 42.4006 207.656V213H41.1366V210.928L41.4326 211.12C41.1073 211.819 40.6513 212.347 40.0646 212.704C39.4833 213.061 38.774 213.24 37.9366 213.24ZM38.1526 212.048C38.6646 212.048 39.1073 211.957 39.4806 211.776C39.8593 211.589 40.1633 211.347 40.3926 211.048C40.622 210.744 40.7713 210.413 40.8406 210.056C40.9206 209.789 40.9633 209.493 40.9686 209.168C40.9793 208.837 40.9846 208.584 40.9846 208.408L41.4806 208.624C41.0166 208.688 40.5606 208.749 40.1126 208.808C39.6646 208.867 39.2406 208.931 38.8406 209C38.4406 209.064 38.0806 209.141 37.7606 209.232C37.526 209.307 37.3046 209.403 37.0966 209.52C36.894 209.637 36.7286 209.789 36.6006 209.976C36.478 210.157 36.4166 210.384 36.4166 210.656C36.4166 210.891 36.4753 211.115 36.5926 211.328C36.7153 211.541 36.902 211.715 37.1526 211.848C37.4086 211.981 37.742 212.048 38.1526 212.048ZM48.1286 213.24C47.318 213.24 46.6353 213.04 46.0806 212.64C45.526 212.235 45.1046 211.688 44.8166 211C44.534 210.307 44.3926 209.531 44.3926 208.672C44.3926 207.803 44.534 207.024 44.8166 206.336C45.1046 205.648 45.526 205.107 46.0806 204.712C46.6406 204.317 47.326 204.12 48.1366 204.12C48.9366 204.12 49.6246 204.32 50.2006 204.72C50.782 205.115 51.2273 205.656 51.5366 206.344C51.846 207.032 52.0006 207.808 52.0006 208.672C52.0006 209.536 51.846 210.312 51.5366 211C51.2273 211.688 50.782 212.235 50.2006 212.64C49.6246 213.04 48.934 213.24 48.1286 213.24ZM44.1526 216.84V204.36H45.4246V210.72H45.5846V216.84H44.1526ZM47.9526 211.936C48.5233 211.936 48.9953 211.792 49.3686 211.504C49.742 211.216 50.022 210.827 50.2086 210.336C50.3953 209.84 50.4886 209.285 50.4886 208.672C50.4886 208.064 50.3953 207.515 50.2086 207.024C50.0273 206.533 49.7446 206.144 49.3606 205.856C48.982 205.568 48.4993 205.424 47.9126 205.424C47.3526 205.424 46.8886 205.563 46.5206 205.84C46.1526 206.112 45.878 206.493 45.6966 206.984C45.5153 207.469 45.4246 208.032 45.4246 208.672C45.4246 209.301 45.5126 209.864 45.6886 210.36C45.87 210.851 46.1473 211.237 46.5206 211.52C46.894 211.797 47.3713 211.936 47.9526 211.936ZM55.8904 213.24C55.245 213.24 54.7037 213.123 54.2664 212.888C53.8344 212.648 53.5064 212.333 53.2824 211.944C53.0637 211.555 52.9544 211.128 52.9544 210.664C52.9544 210.211 53.0397 209.819 53.2104 209.488C53.3864 209.152 53.6317 208.875 53.9464 208.656C54.261 208.432 54.637 208.256 55.0744 208.128C55.485 208.016 55.9437 207.92 56.4504 207.84C56.9624 207.755 57.4797 207.677 58.0024 207.608C58.525 207.539 59.013 207.472 59.4664 207.408L58.9544 207.704C58.9704 206.936 58.8157 206.368 58.4904 206C58.1704 205.632 57.6157 205.448 56.8264 205.448C56.3037 205.448 55.845 205.568 55.4504 205.808C55.061 206.043 54.7864 206.427 54.6264 206.96L53.2744 206.552C53.4824 205.795 53.885 205.2 54.4824 204.768C55.0797 204.336 55.8664 204.12 56.8424 204.12C57.6264 204.12 58.2984 204.261 58.8584 204.544C59.4237 204.821 59.829 205.243 60.0744 205.808C60.197 206.075 60.2744 206.365 60.3064 206.68C60.3384 206.989 60.3544 207.315 60.3544 207.656V213H59.0904V210.928L59.3864 211.12C59.061 211.819 58.605 212.347 58.0184 212.704C57.437 213.061 56.7277 213.24 55.8904 213.24ZM56.1064 212.048C56.6184 212.048 57.061 211.957 57.4344 211.776C57.813 211.589 58.117 211.347 58.3464 211.048C58.5757 210.744 58.725 210.413 58.7944 210.056C58.8744 209.789 58.917 209.493 58.9224 209.168C58.933 208.837 58.9384 208.584 58.9384 208.408L59.4344 208.624C58.9704 208.688 58.5144 208.749 58.0664 208.808C57.6184 208.867 57.1944 208.931 56.7944 209C56.3944 209.064 56.0344 209.141 55.7144 209.232C55.4797 209.307 55.2584 209.403 55.0504 209.52C54.8477 209.637 54.6824 209.789 54.5544 209.976C54.4317 210.157 54.3704 210.384 54.3704 210.656C54.3704 210.891 54.429 211.115 54.5464 211.328C54.669 211.541 54.8557 211.715 55.1064 211.848C55.3624 211.981 55.6957 212.048 56.1064 212.048ZM62.1144 213V204.36H63.3864V206.448L63.1784 206.176C63.2797 205.909 63.4104 205.664 63.5704 205.44C63.7357 205.216 63.9197 205.032 64.1224 204.888C64.3464 204.707 64.5997 204.568 64.8824 204.472C65.165 204.376 65.453 204.32 65.7464 204.304C66.0397 204.283 66.3144 204.301 66.5704 204.36V205.696C66.2717 205.616 65.9437 205.595 65.5864 205.632C65.229 205.669 64.8984 205.8 64.5944 206.024C64.317 206.221 64.101 206.461 63.9464 206.744C63.797 207.027 63.693 207.333 63.6344 207.664C63.5757 207.989 63.5464 208.323 63.5464 208.664V213H62.1144ZM72.5871 213C72.0751 213.101 71.5685 213.141 71.0671 213.12C70.5711 213.104 70.1285 213.005 69.7391 212.824C69.3498 212.637 69.0538 212.349 68.8511 211.96C68.6805 211.619 68.5871 211.275 68.5711 210.928C68.5605 210.576 68.5551 210.179 68.5551 209.736V201.96H69.9791V209.672C69.9791 210.024 69.9818 210.325 69.9871 210.576C69.9978 210.827 70.0538 211.043 70.1551 211.224C70.3471 211.565 70.6511 211.765 71.0671 211.824C71.4885 211.883 71.9951 211.867 72.5871 211.776V213ZM66.8031 205.536V204.36H72.5871V205.536H66.8031ZM84.3493 213L84.3573 207.472C84.3573 206.827 84.1839 206.323 83.8373 205.96C83.4959 205.592 83.0506 205.408 82.5013 205.408C82.1813 205.408 81.8773 205.483 81.5893 205.632C81.3013 205.776 81.0666 206.005 80.8853 206.32C80.7039 206.629 80.6133 207.027 80.6133 207.512L79.8613 207.208C79.8506 206.595 79.9759 206.059 80.2373 205.6C80.5039 205.136 80.8666 204.776 81.3253 204.52C81.7839 204.264 82.3013 204.136 82.8773 204.136C83.7786 204.136 84.4879 204.411 85.0053 204.96C85.5226 205.504 85.7813 206.237 85.7813 207.16L85.7733 213H84.3493ZM74.0133 213V204.36H75.2853V206.672H75.4453V213H74.0133ZM79.1893 213L79.1973 207.528C79.1973 206.867 79.0266 206.349 78.6853 205.976C78.3439 205.597 77.8906 205.408 77.3253 205.408C76.7653 205.408 76.3119 205.6 75.9653 205.984C75.6186 206.368 75.4453 206.877 75.4453 207.512L74.6933 207.064C74.6933 206.504 74.8266 206.003 75.0933 205.56C75.3599 205.117 75.7226 204.771 76.1813 204.52C76.6399 204.264 77.1599 204.136 77.7413 204.136C78.3226 204.136 78.8293 204.259 79.2613 204.504C79.6933 204.749 80.0266 205.101 80.2613 205.56C80.4959 206.013 80.6133 206.555 80.6133 207.184L80.6053 213H79.1893ZM91.2109 213.24C90.3629 213.24 89.6215 213.053 88.9869 212.68C88.3575 212.301 87.8669 211.776 87.5149 211.104C87.1629 210.427 86.9869 209.637 86.9869 208.736C86.9869 207.792 87.1602 206.976 87.5069 206.288C87.8535 205.595 88.3362 205.061 88.9549 204.688C89.5789 204.309 90.3095 204.12 91.1469 204.12C92.0162 204.12 92.7549 204.32 93.3629 204.72C93.9762 205.12 94.4349 205.691 94.7389 206.432C95.0482 207.173 95.1815 208.056 95.1389 209.08H93.6989V208.568C93.6829 207.507 93.4669 206.715 93.0509 206.192C92.6349 205.664 92.0162 205.4 91.1949 205.4C90.3149 205.4 89.6455 205.683 89.1869 206.248C88.7282 206.813 88.4989 207.624 88.4989 208.68C88.4989 209.699 88.7282 210.488 89.1869 211.048C89.6455 211.608 90.2989 211.888 91.1469 211.888C91.7175 211.888 92.2135 211.757 92.6349 211.496C93.0562 211.235 93.3869 210.859 93.6269 210.368L94.9949 210.84C94.6589 211.603 94.1522 212.195 93.4749 212.616C92.8029 213.032 92.0482 213.24 91.2109 213.24ZM88.0189 209.08V207.936H94.4029V209.08H88.0189ZM102.518 213V208.672C102.518 208.261 102.48 207.867 102.406 207.488C102.336 207.109 102.211 206.771 102.03 206.472C101.854 206.168 101.614 205.928 101.31 205.752C101.011 205.576 100.632 205.488 100.174 205.488C99.8163 205.488 99.491 205.549 99.1976 205.672C98.9096 205.789 98.6616 205.971 98.4536 206.216C98.2456 206.461 98.083 206.771 97.9656 207.144C97.8536 207.512 97.7976 207.947 97.7976 208.448L96.8616 208.16C96.8616 207.323 97.011 206.605 97.3096 206.008C97.6136 205.405 98.0376 204.944 98.5816 204.624C99.131 204.299 99.7763 204.136 100.518 204.136C101.078 204.136 101.555 204.224 101.95 204.4C102.344 204.576 102.672 204.811 102.934 205.104C103.195 205.392 103.4 205.717 103.55 206.08C103.699 206.437 103.803 206.803 103.862 207.176C103.926 207.544 103.958 207.893 103.958 208.224V213H102.518ZM96.3576 213V204.36H97.6376V206.672H97.7976V213H96.3576ZM110.542 213C110.03 213.101 109.523 213.141 109.022 213.12C108.526 213.104 108.083 213.005 107.694 212.824C107.304 212.637 107.008 212.349 106.806 211.96C106.635 211.619 106.542 211.275 106.526 210.928C106.515 210.576 106.51 210.179 106.51 209.736V201.96H107.934V209.672C107.934 210.024 107.936 210.325 107.942 210.576C107.952 210.827 108.008 211.043 108.11 211.224C108.302 211.565 108.606 211.765 109.022 211.824C109.443 211.883 109.95 211.867 110.542 211.776V213ZM104.758 205.536V204.36H110.542V205.536H104.758ZM115.24 213.232C114.21 213.232 113.365 213.008 112.704 212.56C112.048 212.107 111.645 211.475 111.496 210.664L112.952 210.432C113.069 210.901 113.338 211.275 113.76 211.552C114.181 211.824 114.704 211.96 115.328 211.96C115.92 211.96 116.384 211.837 116.72 211.592C117.056 211.347 117.224 211.013 117.224 210.592C117.224 210.347 117.168 210.149 117.056 210C116.944 209.845 116.712 209.701 116.36 209.568C116.013 209.435 115.488 209.275 114.784 209.088C114.021 208.885 113.421 208.675 112.984 208.456C112.546 208.237 112.234 207.984 112.048 207.696C111.861 207.408 111.768 207.059 111.768 206.648C111.768 206.141 111.906 205.699 112.184 205.32C112.461 204.936 112.848 204.64 113.344 204.432C113.845 204.224 114.426 204.12 115.088 204.12C115.744 204.12 116.33 204.224 116.848 204.432C117.365 204.64 117.781 204.936 118.096 205.32C118.416 205.699 118.605 206.141 118.664 206.648L117.208 206.912C117.138 206.448 116.914 206.083 116.536 205.816C116.162 205.549 115.68 205.408 115.088 205.392C114.528 205.371 114.072 205.469 113.72 205.688C113.373 205.907 113.2 206.203 113.2 206.576C113.2 206.784 113.264 206.963 113.392 207.112C113.525 207.261 113.768 207.403 114.12 207.536C114.477 207.669 114.994 207.821 115.672 207.992C116.434 208.184 117.034 208.395 117.472 208.624C117.914 208.848 118.229 209.115 118.416 209.424C118.602 209.728 118.696 210.104 118.696 210.552C118.696 211.384 118.389 212.04 117.776 212.52C117.162 212.995 116.317 213.232 115.24 213.232ZM126.991 213.24C126.18 213.24 125.498 213.04 124.943 212.64C124.388 212.235 123.967 211.688 123.679 211C123.396 210.307 123.255 209.531 123.255 208.672C123.255 207.803 123.396 207.024 123.679 206.336C123.967 205.648 124.388 205.107 124.943 204.712C125.503 204.317 126.188 204.12 126.999 204.12C127.799 204.12 128.487 204.32 129.063 204.72C129.644 205.115 130.09 205.656 130.399 206.344C130.708 207.032 130.863 207.808 130.863 208.672C130.863 209.536 130.708 210.312 130.399 211C130.09 211.688 129.644 212.235 129.063 212.64C128.487 213.04 127.796 213.24 126.991 213.24ZM123.015 213V201.48H124.447V206.64H124.287V213H123.015ZM126.815 211.936C127.386 211.936 127.858 211.792 128.231 211.504C128.604 211.216 128.884 210.827 129.071 210.336C129.258 209.84 129.351 209.285 129.351 208.672C129.351 208.064 129.258 207.515 129.071 207.024C128.89 206.533 128.607 206.144 128.223 205.856C127.844 205.568 127.362 205.424 126.775 205.424C126.215 205.424 125.751 205.563 125.383 205.84C125.015 206.112 124.74 206.493 124.559 206.984C124.378 207.469 124.287 208.032 124.287 208.672C124.287 209.301 124.375 209.864 124.551 210.36C124.732 210.851 125.01 211.237 125.383 211.52C125.756 211.797 126.234 211.936 126.815 211.936ZM135.977 213.24C135.118 213.24 134.377 213.045 133.753 212.656C133.134 212.267 132.657 211.728 132.321 211.04C131.985 210.352 131.817 209.563 131.817 208.672C131.817 207.765 131.988 206.971 132.329 206.288C132.67 205.605 133.153 205.075 133.777 204.696C134.401 204.312 135.134 204.12 135.977 204.12C136.841 204.12 137.585 204.315 138.209 204.704C138.833 205.088 139.31 205.624 139.641 206.312C139.977 206.995 140.145 207.781 140.145 208.672C140.145 209.573 139.977 210.368 139.641 211.056C139.305 211.739 138.825 212.275 138.201 212.664C137.577 213.048 136.836 213.24 135.977 213.24ZM135.977 211.888C136.873 211.888 137.54 211.589 137.977 210.992C138.414 210.395 138.633 209.621 138.633 208.672C138.633 207.696 138.412 206.92 137.969 206.344C137.526 205.763 136.862 205.472 135.977 205.472C135.374 205.472 134.878 205.608 134.489 205.88C134.1 206.152 133.809 206.528 133.617 207.008C133.425 207.488 133.329 208.043 133.329 208.672C133.329 209.643 133.553 210.421 134.001 211.008C134.449 211.595 135.108 211.888 135.977 211.888ZM141.746 202.832V201.36H143.17V202.832H141.746ZM141.746 213V204.36H143.17V213H141.746ZM148.515 213.232C147.485 213.232 146.64 213.008 145.979 212.56C145.323 212.107 144.92 211.475 144.771 210.664L146.227 210.432C146.344 210.901 146.613 211.275 147.035 211.552C147.456 211.824 147.979 211.96 148.603 211.96C149.195 211.96 149.659 211.837 149.995 211.592C150.331 211.347 150.499 211.013 150.499 210.592C150.499 210.347 150.443 210.149 150.331 210C150.219 209.845 149.987 209.701 149.635 209.568C149.288 209.435 148.763 209.275 148.059 209.088C147.296 208.885 146.696 208.675 146.259 208.456C145.821 208.237 145.509 207.984 145.323 207.696C145.136 207.408 145.043 207.059 145.043 206.648C145.043 206.141 145.181 205.699 145.459 205.32C145.736 204.936 146.123 204.64 146.619 204.432C147.12 204.224 147.701 204.12 148.363 204.12C149.019 204.12 149.605 204.224 150.123 204.432C150.64 204.64 151.056 204.936 151.371 205.32C151.691 205.699 151.88 206.141 151.939 206.648L150.483 206.912C150.413 206.448 150.189 206.083 149.811 205.816C149.437 205.549 148.955 205.408 148.363 205.392C147.803 205.371 147.347 205.469 146.995 205.688C146.648 205.907 146.475 206.203 146.475 206.576C146.475 206.784 146.539 206.963 146.667 207.112C146.8 207.261 147.043 207.403 147.395 207.536C147.752 207.669 148.269 207.821 148.947 207.992C149.709 208.184 150.309 208.395 150.747 208.624C151.189 208.848 151.504 209.115 151.691 209.424C151.877 209.728 151.971 210.104 151.971 210.552C151.971 211.384 151.664 212.04 151.051 212.52C150.437 212.995 149.592 213.232 148.515 213.232ZM158.239 213C157.727 213.101 157.22 213.141 156.719 213.12C156.223 213.104 155.78 213.005 155.391 212.824C155.002 212.637 154.706 212.349 154.503 211.96C154.332 211.619 154.239 211.275 154.223 210.928C154.212 210.576 154.207 210.179 154.207 209.736V201.96H155.631V209.672C155.631 210.024 155.634 210.325 155.639 210.576C155.65 210.827 155.706 211.043 155.807 211.224C155.999 211.565 156.303 211.765 156.719 211.824C157.14 211.883 157.647 211.867 158.239 211.776V213ZM152.455 205.536V204.36H158.239V205.536H152.455ZM163.058 213.24C162.21 213.24 161.468 213.053 160.834 212.68C160.204 212.301 159.714 211.776 159.362 211.104C159.01 210.427 158.834 209.637 158.834 208.736C158.834 207.792 159.007 206.976 159.354 206.288C159.7 205.595 160.183 205.061 160.802 204.688C161.426 204.309 162.156 204.12 162.994 204.12C163.863 204.12 164.602 204.32 165.21 204.72C165.823 205.12 166.282 205.691 166.586 206.432C166.895 207.173 167.028 208.056 166.986 209.08H165.546V208.568C165.53 207.507 165.314 206.715 164.898 206.192C164.482 205.664 163.863 205.4 163.042 205.4C162.162 205.4 161.492 205.683 161.034 206.248C160.575 206.813 160.346 207.624 160.346 208.68C160.346 209.699 160.575 210.488 161.034 211.048C161.492 211.608 162.146 211.888 162.994 211.888C163.564 211.888 164.06 211.757 164.482 211.496C164.903 211.235 165.234 210.859 165.474 210.368L166.842 210.84C166.506 211.603 165.999 212.195 165.322 212.616C164.65 213.032 163.895 213.24 163.058 213.24ZM159.866 209.08V207.936H166.25V209.08H159.866ZM168.447 213V204.36H169.719V206.448L169.511 206.176C169.612 205.909 169.743 205.664 169.903 205.44C170.068 205.216 170.252 205.032 170.455 204.888C170.679 204.707 170.932 204.568 171.215 204.472C171.498 204.376 171.786 204.32 172.079 204.304C172.372 204.283 172.647 204.301 172.903 204.36V205.696C172.604 205.616 172.276 205.595 171.919 205.632C171.562 205.669 171.231 205.8 170.927 206.024C170.65 206.221 170.434 206.461 170.279 206.744C170.13 207.027 170.026 207.333 169.967 207.664C169.908 207.989 169.879 208.323 169.879 208.664V213H168.447ZM177.619 213.24C176.761 213.24 176.019 213.045 175.395 212.656C174.777 212.267 174.299 211.728 173.963 211.04C173.627 210.352 173.459 209.563 173.459 208.672C173.459 207.765 173.63 206.971 173.971 206.288C174.313 205.605 174.795 205.075 175.419 204.696C176.043 204.312 176.777 204.12 177.619 204.12C178.483 204.12 179.227 204.315 179.851 204.704C180.475 205.088 180.953 205.624 181.283 206.312C181.619 206.995 181.787 207.781 181.787 208.672C181.787 209.573 181.619 210.368 181.283 211.056C180.947 211.739 180.467 212.275 179.843 212.664C179.219 213.048 178.478 213.24 177.619 213.24ZM177.619 211.888C178.515 211.888 179.182 211.589 179.619 210.992C180.057 210.395 180.275 209.621 180.275 208.672C180.275 207.696 180.054 206.92 179.611 206.344C179.169 205.763 178.505 205.472 177.619 205.472C177.017 205.472 176.521 205.608 176.131 205.88C175.742 206.152 175.451 206.528 175.259 207.008C175.067 207.488 174.971 208.043 174.971 208.672C174.971 209.643 175.195 210.421 175.643 211.008C176.091 211.595 176.75 211.888 177.619 211.888ZM186.509 213.224C185.954 213.224 185.477 213.136 185.077 212.96C184.682 212.784 184.354 212.549 184.093 212.256C183.831 211.963 183.626 211.637 183.477 211.28C183.327 210.923 183.221 210.557 183.157 210.184C183.098 209.811 183.069 209.461 183.069 209.136V204.36H184.509V208.688C184.509 209.093 184.546 209.485 184.621 209.864C184.695 210.243 184.821 210.584 184.997 210.888C185.178 211.192 185.418 211.432 185.717 211.608C186.021 211.784 186.399 211.872 186.853 211.872C187.21 211.872 187.535 211.811 187.829 211.688C188.122 211.565 188.373 211.384 188.581 211.144C188.789 210.899 188.949 210.589 189.061 210.216C189.173 209.843 189.229 209.408 189.229 208.912L190.165 209.2C190.165 210.032 190.013 210.749 189.709 211.352C189.41 211.955 188.986 212.419 188.437 212.744C187.893 213.064 187.25 213.224 186.509 213.224ZM189.389 213V210.688H189.229V204.36H190.661V213H189.389ZM195.845 213.232C194.815 213.232 193.97 213.008 193.309 212.56C192.653 212.107 192.25 211.475 192.101 210.664L193.557 210.432C193.674 210.901 193.943 211.275 194.365 211.552C194.786 211.824 195.309 211.96 195.933 211.96C196.525 211.96 196.989 211.837 197.325 211.592C197.661 211.347 197.829 211.013 197.829 210.592C197.829 210.347 197.773 210.149 197.661 210C197.549 209.845 197.317 209.701 196.965 209.568C196.618 209.435 196.093 209.275 195.389 209.088C194.626 208.885 194.026 208.675 193.589 208.456C193.151 208.237 192.839 207.984 192.653 207.696C192.466 207.408 192.373 207.059 192.373 206.648C192.373 206.141 192.511 205.699 192.789 205.32C193.066 204.936 193.453 204.64 193.949 204.432C194.45 204.224 195.031 204.12 195.693 204.12C196.349 204.12 196.935 204.224 197.453 204.432C197.97 204.64 198.386 204.936 198.701 205.32C199.021 205.699 199.21 206.141 199.269 206.648L197.813 206.912C197.743 206.448 197.519 206.083 197.141 205.816C196.767 205.549 196.285 205.408 195.693 205.392C195.133 205.371 194.677 205.469 194.325 205.688C193.978 205.907 193.805 206.203 193.805 206.576C193.805 206.784 193.869 206.963 193.997 207.112C194.13 207.261 194.373 207.403 194.725 207.536C195.082 207.669 195.599 207.821 196.277 207.992C197.039 208.184 197.639 208.395 198.077 208.624C198.519 208.848 198.834 209.115 199.021 209.424C199.207 209.728 199.301 210.104 199.301 210.552C199.301 211.384 198.994 212.04 198.381 212.52C197.767 212.995 196.922 213.232 195.845 213.232ZM201.001 213V211.432H202.569V213H201.001Z" fill="#64607D"/>
<rect y="13" width="64" height="64" rx="20" fill="white"/>
<rect x="20" y="33" width="23" height="23" rx="10" fill="#C4C4C4"/>
</svg>
