<svg width="280" height="222" viewBox="0 0 280 222" fill="none" xmlns="http://www.w3.org/2000/svg">
<path opacity="0.05" d="M171.02 29.072L209.78 15.2H241.196V158H204.68V53.552L179.792 59.876L171.02 29.072Z" fill="black"/>
<path d="M2.12 122V110.48H6.984C7.096 110.48 7.24533 110.485 7.432 110.496C7.624 110.501 7.79467 110.517 7.944 110.544C8.632 110.651 9.19467 110.877 9.632 111.224C10.0747 111.571 10.4 112.008 10.608 112.536C10.816 113.059 10.92 113.643 10.92 114.288C10.92 114.933 10.8133 115.52 10.6 116.048C10.392 116.571 10.0667 117.005 9.624 117.352C9.18667 117.699 8.62667 117.925 7.944 118.032C7.79467 118.053 7.624 118.069 7.432 118.08C7.24 118.091 7.09067 118.096 6.984 118.096H4.296V122H2.12ZM4.296 116.064H6.888C7 116.064 7.12267 116.059 7.256 116.048C7.38933 116.037 7.512 116.016 7.624 115.984C7.91733 115.904 8.144 115.771 8.304 115.584C8.464 115.392 8.57333 115.181 8.632 114.952C8.696 114.717 8.728 114.496 8.728 114.288C8.728 114.08 8.696 113.861 8.632 113.632C8.57333 113.397 8.464 113.187 8.304 113C8.144 112.808 7.91733 112.672 7.624 112.592C7.512 112.56 7.38933 112.539 7.256 112.528C7.12267 112.517 7 112.512 6.888 112.512H4.296V116.064ZM12.0463 122V113.36H13.9663V115.472L13.7583 115.2C13.8703 114.901 14.0196 114.629 14.2063 114.384C14.3929 114.139 14.6223 113.936 14.8943 113.776C15.1023 113.648 15.3289 113.549 15.5743 113.48C15.8196 113.405 16.0729 113.36 16.3343 113.344C16.5956 113.323 16.8569 113.328 17.1183 113.36V115.392C16.8783 115.317 16.5983 115.293 16.2783 115.32C15.9636 115.341 15.6783 115.413 15.4223 115.536C15.1663 115.653 14.9503 115.811 14.7743 116.008C14.5983 116.2 14.4649 116.429 14.3743 116.696C14.2836 116.957 14.2383 117.253 14.2383 117.584V122H12.0463ZM21.8918 122.24C21.0224 122.24 20.2598 122.045 19.6037 121.656C18.9478 121.267 18.4358 120.731 18.0677 120.048C17.7051 119.36 17.5238 118.571 17.5238 117.68C17.5238 116.779 17.7104 115.987 18.0838 115.304C18.4571 114.616 18.9718 114.08 19.6278 113.696C20.2838 113.312 21.0384 113.12 21.8918 113.12C22.7611 113.12 23.5238 113.315 24.1798 113.704C24.8411 114.093 25.3558 114.632 25.7238 115.32C26.0918 116.003 26.2758 116.789 26.2758 117.68C26.2758 118.576 26.0891 119.368 25.7158 120.056C25.3478 120.739 24.8331 121.275 24.1718 121.664C23.5158 122.048 22.7558 122.24 21.8918 122.24ZM21.8918 120.208C22.5904 120.208 23.1104 119.973 23.4518 119.504C23.7984 119.029 23.9718 118.421 23.9718 117.68C23.9718 116.912 23.7958 116.299 23.4438 115.84C23.0971 115.381 22.5798 115.152 21.8918 115.152C21.4171 115.152 21.0278 115.259 20.7238 115.472C20.4198 115.685 20.1931 115.981 20.0438 116.36C19.8998 116.739 19.8278 117.179 19.8278 117.68C19.8278 118.453 20.0011 119.069 20.3478 119.528C20.6998 119.981 21.2144 120.208 21.8918 120.208ZM26.275 125.84V123.808H26.659C27.155 123.808 27.4937 123.696 27.675 123.472C27.8617 123.248 27.955 122.928 27.955 122.512V113.36H30.131V123.568C30.131 124.256 29.915 124.805 29.483 125.216C29.0563 125.632 28.4777 125.84 27.747 125.84H26.275ZM27.955 112.16V110.24H30.131V112.16H27.955ZM35.9035 122.24C35.0182 122.24 34.2368 122.051 33.5595 121.672C32.8875 121.288 32.3595 120.763 31.9755 120.096C31.5968 119.424 31.4075 118.656 31.4075 117.792C31.4075 116.848 31.5942 116.027 31.9675 115.328C32.3408 114.629 32.8555 114.088 33.5115 113.704C34.1675 113.315 34.9222 113.12 35.7755 113.12C36.6822 113.12 37.4528 113.333 38.0875 113.76C38.7222 114.187 39.1915 114.787 39.4955 115.56C39.7995 116.333 39.9062 117.243 39.8155 118.288H37.6635V117.488C37.6635 116.608 37.5222 115.976 37.2395 115.592C36.9622 115.203 36.5062 115.008 35.8715 115.008C35.1302 115.008 34.5835 115.235 34.2315 115.688C33.8848 116.136 33.7115 116.8 33.7115 117.68C33.7115 118.485 33.8848 119.109 34.2315 119.552C34.5835 119.989 35.0982 120.208 35.7755 120.208C36.2022 120.208 36.5675 120.115 36.8715 119.928C37.1755 119.741 37.4075 119.472 37.5675 119.12L39.7435 119.744C39.4182 120.533 38.9035 121.147 38.1995 121.584C37.5008 122.021 36.7355 122.24 35.9035 122.24ZM33.0395 118.288V116.672H38.7675V118.288H33.0395ZM44.9499 122.24C44.0539 122.24 43.2859 122.04 42.6459 121.64C42.0059 121.24 41.5152 120.696 41.1739 120.008C40.8325 119.32 40.6619 118.544 40.6619 117.68C40.6619 116.805 40.8379 116.024 41.1899 115.336C41.5472 114.648 42.0485 114.107 42.6939 113.712C43.3392 113.317 44.1019 113.12 44.9819 113.12C46.0005 113.12 46.8539 113.379 47.5419 113.896C48.2352 114.408 48.6779 115.109 48.8699 116L46.6939 116.576C46.5659 116.128 46.3419 115.779 46.0219 115.528C45.7072 115.277 45.3499 115.152 44.9499 115.152C44.4912 115.152 44.1152 115.264 43.8219 115.488C43.5285 115.707 43.3125 116.008 43.1739 116.392C43.0352 116.771 42.9659 117.2 42.9659 117.68C42.9659 118.432 43.1312 119.043 43.4619 119.512C43.7979 119.976 44.2939 120.208 44.9499 120.208C45.4405 120.208 45.8139 120.096 46.0699 119.872C46.3259 119.648 46.5179 119.328 46.6459 118.912L48.8699 119.376C48.6245 120.293 48.1605 121 47.4779 121.496C46.7952 121.992 45.9525 122.24 44.9499 122.24ZM55.174 122C54.5767 122.112 53.99 122.16 53.414 122.144C52.8433 122.133 52.3313 122.035 51.878 121.848C51.43 121.656 51.0887 121.349 50.854 120.928C50.6407 120.533 50.5287 120.133 50.518 119.728C50.5073 119.317 50.502 118.853 50.502 118.336V110.96H52.678V118.208C52.678 118.544 52.6807 118.848 52.686 119.12C52.6967 119.387 52.7527 119.6 52.854 119.76C53.046 120.064 53.3527 120.229 53.774 120.256C54.1953 120.283 54.662 120.261 55.174 120.192V122ZM49.03 115.04V113.36H55.174V115.04H49.03ZM59.3425 122V110.48H63.0705C63.1612 110.48 63.3478 110.483 63.6305 110.488C63.9132 110.493 64.1852 110.512 64.4465 110.544C65.3745 110.656 66.1612 110.979 66.8065 111.512C67.4518 112.045 67.9425 112.723 68.2785 113.544C68.6145 114.365 68.7825 115.264 68.7825 116.24C68.7825 117.216 68.6145 118.115 68.2785 118.936C67.9425 119.757 67.4518 120.435 66.8065 120.968C66.1612 121.501 65.3745 121.824 64.4465 121.936C64.1852 121.968 63.9132 121.987 63.6305 121.992C63.3478 121.997 63.1612 122 63.0705 122H59.3425ZM61.5505 119.952H63.0705C63.2145 119.952 63.4092 119.949 63.6545 119.944C63.8998 119.933 64.1212 119.909 64.3185 119.872C64.8198 119.771 65.2278 119.536 65.5425 119.168C65.8625 118.8 66.0972 118.357 66.2465 117.84C66.4012 117.323 66.4785 116.789 66.4785 116.24C66.4785 115.664 66.3985 115.117 66.2385 114.6C66.0838 114.083 65.8465 113.645 65.5265 113.288C65.2065 112.931 64.8038 112.704 64.3185 112.608C64.1212 112.565 63.8998 112.541 63.6545 112.536C63.4092 112.531 63.2145 112.528 63.0705 112.528H61.5505V119.952ZM70.3819 112.16V110.24H72.5579V112.16H70.3819ZM70.3819 122V113.36H72.5579V122H70.3819ZM77.8522 122.24C76.7642 122.24 75.8842 121.995 75.2122 121.504C74.5456 121.008 74.1402 120.309 73.9962 119.408L76.2202 119.072C76.3109 119.477 76.5109 119.795 76.8202 120.024C77.1349 120.253 77.5322 120.368 78.0122 120.368C78.4069 120.368 78.7109 120.293 78.9242 120.144C79.1376 119.989 79.2442 119.776 79.2442 119.504C79.2442 119.333 79.2016 119.197 79.1162 119.096C79.0309 118.989 78.8389 118.885 78.5402 118.784C78.2469 118.683 77.7882 118.549 77.1642 118.384C76.4602 118.203 75.8976 118 75.4762 117.776C75.0549 117.552 74.7509 117.285 74.5642 116.976C74.3776 116.661 74.2842 116.283 74.2842 115.84C74.2842 115.285 74.4256 114.805 74.7082 114.4C74.9909 113.989 75.3882 113.675 75.9002 113.456C76.4176 113.232 77.0256 113.12 77.7242 113.12C78.4016 113.12 79.0016 113.224 79.5242 113.432C80.0469 113.64 80.4682 113.936 80.7882 114.32C81.1136 114.704 81.3136 115.157 81.3882 115.68L79.1642 116.08C79.1269 115.76 78.9882 115.507 78.7482 115.32C78.5082 115.133 78.1829 115.024 77.7722 114.992C77.3722 114.965 77.0496 115.019 76.8042 115.152C76.5642 115.285 76.4442 115.477 76.4442 115.728C76.4442 115.877 76.4949 116.003 76.5962 116.104C76.7029 116.205 76.9189 116.309 77.2442 116.416C77.5749 116.523 78.0762 116.661 78.7482 116.832C79.4042 117.003 79.9296 117.203 80.3242 117.432C80.7242 117.656 81.0149 117.928 81.1962 118.248C81.3776 118.563 81.4682 118.944 81.4682 119.392C81.4682 120.277 81.1482 120.973 80.5082 121.48C79.8682 121.987 78.9829 122.24 77.8522 122.24ZM86.5543 122.24C85.6583 122.24 84.8903 122.04 84.2503 121.64C83.6103 121.24 83.1196 120.696 82.7783 120.008C82.4369 119.32 82.2663 118.544 82.2663 117.68C82.2663 116.805 82.4423 116.024 82.7943 115.336C83.1516 114.648 83.6529 114.107 84.2983 113.712C84.9436 113.317 85.7063 113.12 86.5863 113.12C87.6049 113.12 88.4583 113.379 89.1463 113.896C89.8396 114.408 90.2823 115.109 90.4743 116L88.2983 116.576C88.1703 116.128 87.9463 115.779 87.6263 115.528C87.3116 115.277 86.9543 115.152 86.5543 115.152C86.0956 115.152 85.7196 115.264 85.4263 115.488C85.1329 115.707 84.9169 116.008 84.7783 116.392C84.6396 116.771 84.5703 117.2 84.5703 117.68C84.5703 118.432 84.7356 119.043 85.0663 119.512C85.4023 119.976 85.8983 120.208 86.5543 120.208C87.0449 120.208 87.4183 120.096 87.6743 119.872C87.9303 119.648 88.1223 119.328 88.2503 118.912L90.4743 119.376C90.2289 120.293 89.7649 121 89.0823 121.496C88.3996 121.992 87.5569 122.24 86.5543 122.24ZM95.248 122.24C94.3787 122.24 93.616 122.045 92.96 121.656C92.304 121.267 91.792 120.731 91.424 120.048C91.0613 119.36 90.88 118.571 90.88 117.68C90.88 116.779 91.0667 115.987 91.44 115.304C91.8133 114.616 92.328 114.08 92.984 113.696C93.64 113.312 94.3947 113.12 95.248 113.12C96.1173 113.12 96.88 113.315 97.536 113.704C98.1973 114.093 98.712 114.632 99.08 115.32C99.448 116.003 99.632 116.789 99.632 117.68C99.632 118.576 99.4453 119.368 99.072 120.056C98.704 120.739 98.1893 121.275 97.528 121.664C96.872 122.048 96.112 122.24 95.248 122.24ZM95.248 120.208C95.9467 120.208 96.4667 119.973 96.808 119.504C97.1547 119.029 97.328 118.421 97.328 117.68C97.328 116.912 97.152 116.299 96.8 115.84C96.4533 115.381 95.936 115.152 95.248 115.152C94.7733 115.152 94.384 115.259 94.08 115.472C93.776 115.685 93.5493 115.981 93.4 116.36C93.256 116.739 93.184 117.179 93.184 117.68C93.184 118.453 93.3573 119.069 93.704 119.528C94.056 119.981 94.5707 120.208 95.248 120.208ZM102.935 122L99.7988 113.36H101.975L104.023 119.344L106.071 113.36H108.247L105.111 122H102.935ZM112.916 122.24C112.031 122.24 111.249 122.051 110.572 121.672C109.9 121.288 109.372 120.763 108.988 120.096C108.609 119.424 108.42 118.656 108.42 117.792C108.42 116.848 108.607 116.027 108.98 115.328C109.353 114.629 109.868 114.088 110.524 113.704C111.18 113.315 111.935 113.12 112.788 113.12C113.695 113.12 114.465 113.333 115.1 113.76C115.735 114.187 116.204 114.787 116.508 115.56C116.812 116.333 116.919 117.243 116.828 118.288H114.676V117.488C114.676 116.608 114.535 115.976 114.252 115.592C113.975 115.203 113.519 115.008 112.884 115.008C112.143 115.008 111.596 115.235 111.244 115.688C110.897 116.136 110.724 116.8 110.724 117.68C110.724 118.485 110.897 119.109 111.244 119.552C111.596 119.989 112.111 120.208 112.788 120.208C113.215 120.208 113.58 120.115 113.884 119.928C114.188 119.741 114.42 119.472 114.58 119.12L116.756 119.744C116.431 120.533 115.916 121.147 115.212 121.584C114.513 122.021 113.748 122.24 112.916 122.24ZM110.052 118.288V116.672H115.78V118.288H110.052ZM118.154 122V113.36H120.074V115.472L119.866 115.2C119.978 114.901 120.128 114.629 120.314 114.384C120.501 114.139 120.73 113.936 121.002 113.776C121.21 113.648 121.437 113.549 121.682 113.48C121.928 113.405 122.181 113.36 122.442 113.344C122.704 113.323 122.965 113.328 123.226 113.36V115.392C122.986 115.317 122.706 115.293 122.386 115.32C122.072 115.341 121.786 115.413 121.53 115.536C121.274 115.653 121.058 115.811 120.882 116.008C120.706 116.2 120.573 116.429 120.482 116.696C120.392 116.957 120.346 117.253 120.346 117.584V122H118.154ZM125.06 125.84L126.724 121.264L126.756 122.608L122.996 113.36H125.252L127.78 119.904H127.268L129.78 113.36H131.956L127.076 125.84H125.06ZM140.268 122.24C139.116 122.24 138.121 121.989 137.284 121.488C136.452 120.987 135.809 120.285 135.356 119.384C134.908 118.483 134.684 117.435 134.684 116.24C134.684 115.045 134.908 113.997 135.356 113.096C135.809 112.195 136.452 111.493 137.284 110.992C138.121 110.491 139.116 110.24 140.268 110.24C141.59 110.24 142.7 110.568 143.596 111.224C144.497 111.88 145.132 112.768 145.5 113.888L143.308 114.496C143.094 113.797 142.734 113.256 142.228 112.872C141.721 112.483 141.068 112.288 140.268 112.288C139.537 112.288 138.926 112.451 138.436 112.776C137.95 113.101 137.585 113.56 137.34 114.152C137.094 114.744 136.972 115.44 136.972 116.24C136.972 117.04 137.094 117.736 137.34 118.328C137.585 118.92 137.95 119.379 138.436 119.704C138.926 120.029 139.537 120.192 140.268 120.192C141.068 120.192 141.721 119.997 142.228 119.608C142.734 119.219 143.094 118.677 143.308 117.984L145.5 118.592C145.132 119.712 144.497 120.6 143.596 121.256C142.7 121.912 141.59 122.24 140.268 122.24ZM149.181 122.24C148.563 122.24 148.037 122.123 147.605 121.888C147.179 121.648 146.853 121.331 146.629 120.936C146.411 120.536 146.301 120.096 146.301 119.616C146.301 119.216 146.363 118.851 146.485 118.52C146.608 118.189 146.805 117.899 147.077 117.648C147.355 117.392 147.725 117.179 148.189 117.008C148.509 116.891 148.891 116.787 149.333 116.696C149.776 116.605 150.277 116.52 150.837 116.44C151.397 116.355 152.013 116.261 152.685 116.16L151.901 116.592C151.901 116.08 151.779 115.704 151.533 115.464C151.288 115.224 150.877 115.104 150.301 115.104C149.981 115.104 149.648 115.181 149.301 115.336C148.955 115.491 148.712 115.765 148.573 116.16L146.605 115.536C146.824 114.821 147.235 114.24 147.837 113.792C148.44 113.344 149.261 113.12 150.301 113.12C151.064 113.12 151.741 113.237 152.333 113.472C152.925 113.707 153.373 114.112 153.677 114.688C153.848 115.008 153.949 115.328 153.981 115.648C154.013 115.968 154.029 116.325 154.029 116.72V122H152.125V120.224L152.397 120.592C151.976 121.173 151.52 121.595 151.029 121.856C150.544 122.112 149.928 122.24 149.181 122.24ZM149.645 120.528C150.045 120.528 150.381 120.459 150.653 120.32C150.931 120.176 151.149 120.013 151.309 119.832C151.475 119.651 151.587 119.499 151.645 119.376C151.757 119.141 151.821 118.869 151.837 118.56C151.859 118.245 151.869 117.984 151.869 117.776L152.509 117.936C151.864 118.043 151.341 118.133 150.941 118.208C150.541 118.277 150.219 118.341 149.973 118.4C149.728 118.459 149.512 118.523 149.325 118.592C149.112 118.677 148.939 118.771 148.805 118.872C148.677 118.968 148.581 119.075 148.517 119.192C148.459 119.309 148.429 119.44 148.429 119.584C148.429 119.781 148.477 119.952 148.573 120.096C148.675 120.235 148.816 120.341 148.997 120.416C149.179 120.491 149.395 120.528 149.645 120.528ZM155.789 122V110.24H157.965V122H155.789ZM160.044 122V110.24H162.22V122H160.044Z" fill="black"/>
<path d="M2.12 153V141.48H6.672C6.784 141.48 6.91733 141.485 7.072 141.496C7.22667 141.501 7.376 141.517 7.52 141.544C8.144 141.64 8.66667 141.853 9.088 142.184C9.51467 142.515 9.83467 142.933 10.048 143.44C10.2613 143.941 10.368 144.499 10.368 145.112C10.368 145.72 10.2587 146.277 10.04 146.784C9.82667 147.285 9.50667 147.704 9.08 148.04C8.65867 148.371 8.13867 148.584 7.52 148.68C7.376 148.701 7.22667 148.717 7.072 148.728C6.91733 148.739 6.784 148.744 6.672 148.744H3.544V153H2.12ZM3.544 147.392H6.624C6.72533 147.392 6.84 147.387 6.968 147.376C7.10133 147.365 7.22667 147.347 7.344 147.32C7.712 147.235 8.01067 147.08 8.24 146.856C8.47467 146.627 8.64533 146.36 8.752 146.056C8.85867 145.747 8.912 145.432 8.912 145.112C8.912 144.792 8.85867 144.48 8.752 144.176C8.64533 143.867 8.47467 143.597 8.24 143.368C8.01067 143.139 7.712 142.984 7.344 142.904C7.22667 142.872 7.10133 142.853 6.968 142.848C6.84 142.837 6.72533 142.832 6.624 142.832H3.544V147.392ZM13.7873 153.24C13.1419 153.24 12.6006 153.123 12.1633 152.888C11.7313 152.648 11.4033 152.333 11.1793 151.944C10.9606 151.555 10.8513 151.128 10.8513 150.664C10.8513 150.211 10.9366 149.819 11.1073 149.488C11.2833 149.152 11.5286 148.875 11.8433 148.656C12.1579 148.432 12.5339 148.256 12.9713 148.128C13.3819 148.016 13.8406 147.92 14.3473 147.84C14.8593 147.755 15.3766 147.677 15.8993 147.608C16.4219 147.539 16.9099 147.472 17.3633 147.408L16.8513 147.704C16.8673 146.936 16.7126 146.368 16.3873 146C16.0673 145.632 15.5126 145.448 14.7233 145.448C14.2006 145.448 13.7419 145.568 13.3473 145.808C12.9579 146.043 12.6833 146.427 12.5233 146.96L11.1713 146.552C11.3793 145.795 11.7819 145.2 12.3793 144.768C12.9766 144.336 13.7633 144.12 14.7393 144.12C15.5233 144.12 16.1953 144.261 16.7553 144.544C17.3206 144.821 17.7259 145.243 17.9713 145.808C18.0939 146.075 18.1713 146.365 18.2033 146.68C18.2353 146.989 18.2513 147.315 18.2513 147.656V153H16.9873V150.928L17.2833 151.12C16.9579 151.819 16.5019 152.347 15.9153 152.704C15.3339 153.061 14.6246 153.24 13.7873 153.24ZM14.0033 152.048C14.5153 152.048 14.9579 151.957 15.3313 151.776C15.7099 151.589 16.0139 151.347 16.2433 151.048C16.4726 150.744 16.6219 150.413 16.6913 150.056C16.7713 149.789 16.8139 149.493 16.8193 149.168C16.8299 148.837 16.8353 148.584 16.8353 148.408L17.3313 148.624C16.8673 148.688 16.4113 148.749 15.9633 148.808C15.5153 148.867 15.0913 148.931 14.6913 149C14.2913 149.064 13.9313 149.141 13.6113 149.232C13.3766 149.307 13.1553 149.403 12.9473 149.52C12.7446 149.637 12.5793 149.789 12.4513 149.976C12.3286 150.157 12.2673 150.384 12.2673 150.656C12.2673 150.891 12.3259 151.115 12.4433 151.328C12.5659 151.541 12.7526 151.715 13.0033 151.848C13.2593 151.981 13.5926 152.048 14.0033 152.048ZM20.0113 153V144.36H21.2833V146.448L21.0753 146.176C21.1766 145.909 21.3073 145.664 21.4673 145.44C21.6326 145.216 21.8166 145.032 22.0193 144.888C22.2433 144.707 22.4966 144.568 22.7793 144.472C23.0619 144.376 23.3499 144.32 23.6433 144.304C23.9366 144.283 24.2113 144.301 24.4673 144.36V145.696C24.1686 145.616 23.8406 145.595 23.4833 145.632C23.1259 145.669 22.7953 145.8 22.4913 146.024C22.2139 146.221 21.9979 146.461 21.8433 146.744C21.6939 147.027 21.5899 147.333 21.5313 147.664C21.4726 147.989 21.4433 148.323 21.4433 148.664V153H20.0113ZM30.484 153C29.972 153.101 29.4653 153.141 28.964 153.12C28.468 153.104 28.0253 153.005 27.636 152.824C27.2467 152.637 26.9507 152.349 26.748 151.96C26.5773 151.619 26.484 151.275 26.468 150.928C26.4573 150.576 26.452 150.179 26.452 149.736V141.96H27.876V149.672C27.876 150.024 27.8787 150.325 27.884 150.576C27.8947 150.827 27.9507 151.043 28.052 151.224C28.244 151.565 28.548 151.765 28.964 151.824C29.3853 151.883 29.892 151.867 30.484 151.776V153ZM24.7 145.536V144.36H30.484V145.536H24.7ZM32.8837 156.84L34.5557 152.296L34.5797 153.64L30.8037 144.36H32.2997L35.2597 151.824H34.7477L37.5237 144.36H38.9717L34.2677 156.84H32.8837ZM44.6963 153L42.0563 144.352L43.4723 144.36L45.4003 150.68L47.3443 144.36H48.6003L50.5363 150.68L52.4723 144.36H53.8803L51.2403 153H50.0563L47.9683 146.432L45.8803 153H44.6963ZM58.4365 153.24C57.5885 153.24 56.8472 153.053 56.2125 152.68C55.5832 152.301 55.0925 151.776 54.7405 151.104C54.3885 150.427 54.2125 149.637 54.2125 148.736C54.2125 147.792 54.3858 146.976 54.7325 146.288C55.0792 145.595 55.5618 145.061 56.1805 144.688C56.8045 144.309 57.5352 144.12 58.3725 144.12C59.2418 144.12 59.9805 144.32 60.5885 144.72C61.2018 145.12 61.6605 145.691 61.9645 146.432C62.2738 147.173 62.4072 148.056 62.3645 149.08H60.9245V148.568C60.9085 147.507 60.6925 146.715 60.2765 146.192C59.8605 145.664 59.2418 145.4 58.4205 145.4C57.5405 145.4 56.8712 145.683 56.4125 146.248C55.9538 146.813 55.7245 147.624 55.7245 148.68C55.7245 149.699 55.9538 150.488 56.4125 151.048C56.8712 151.608 57.5245 151.888 58.3725 151.888C58.9432 151.888 59.4392 151.757 59.8605 151.496C60.2818 151.235 60.6125 150.859 60.8525 150.368L62.2205 150.84C61.8845 151.603 61.3778 152.195 60.7005 152.616C60.0285 153.032 59.2738 153.24 58.4365 153.24ZM55.2445 149.08V147.936H61.6285V149.08H55.2445ZM67.9088 156.84L69.5808 152.296L69.6048 153.64L65.8288 144.36H67.3248L70.2848 151.824H69.7728L72.5488 144.36H73.9968L69.2928 156.84H67.9088ZM78.4296 153.24C77.5816 153.24 76.8403 153.053 76.2056 152.68C75.5763 152.301 75.0856 151.776 74.7336 151.104C74.3816 150.427 74.2056 149.637 74.2056 148.736C74.2056 147.792 74.379 146.976 74.7256 146.288C75.0723 145.595 75.555 145.061 76.1736 144.688C76.7976 144.309 77.5283 144.12 78.3656 144.12C79.235 144.12 79.9736 144.32 80.5816 144.72C81.195 145.12 81.6536 145.691 81.9576 146.432C82.267 147.173 82.4003 148.056 82.3576 149.08H80.9176V148.568C80.9016 147.507 80.6856 146.715 80.2696 146.192C79.8536 145.664 79.235 145.4 78.4136 145.4C77.5336 145.4 76.8643 145.683 76.4056 146.248C75.947 146.813 75.7176 147.624 75.7176 148.68C75.7176 149.699 75.947 150.488 76.4056 151.048C76.8643 151.608 77.5176 151.888 78.3656 151.888C78.9363 151.888 79.4323 151.757 79.8536 151.496C80.275 151.235 80.6056 150.859 80.8456 150.368L82.2136 150.84C81.8776 151.603 81.371 152.195 80.6936 152.616C80.0216 153.032 79.267 153.24 78.4296 153.24ZM75.2376 149.08V147.936H81.6216V149.08H75.2376ZM86.1185 153.24C85.4732 153.24 84.9318 153.123 84.4945 152.888C84.0625 152.648 83.7345 152.333 83.5105 151.944C83.2918 151.555 83.1825 151.128 83.1825 150.664C83.1825 150.211 83.2678 149.819 83.4385 149.488C83.6145 149.152 83.8598 148.875 84.1745 148.656C84.4892 148.432 84.8652 148.256 85.3025 148.128C85.7132 148.016 86.1718 147.92 86.6785 147.84C87.1905 147.755 87.7078 147.677 88.2305 147.608C88.7532 147.539 89.2412 147.472 89.6945 147.408L89.1825 147.704C89.1985 146.936 89.0438 146.368 88.7185 146C88.3985 145.632 87.8438 145.448 87.0545 145.448C86.5318 145.448 86.0732 145.568 85.6785 145.808C85.2892 146.043 85.0145 146.427 84.8545 146.96L83.5025 146.552C83.7105 145.795 84.1132 145.2 84.7105 144.768C85.3078 144.336 86.0945 144.12 87.0705 144.12C87.8545 144.12 88.5265 144.261 89.0865 144.544C89.6518 144.821 90.0572 145.243 90.3025 145.808C90.4252 146.075 90.5025 146.365 90.5345 146.68C90.5665 146.989 90.5825 147.315 90.5825 147.656V153H89.3185V150.928L89.6145 151.12C89.2892 151.819 88.8332 152.347 88.2465 152.704C87.6652 153.061 86.9558 153.24 86.1185 153.24ZM86.3345 152.048C86.8465 152.048 87.2892 151.957 87.6625 151.776C88.0412 151.589 88.3452 151.347 88.5745 151.048C88.8038 150.744 88.9532 150.413 89.0225 150.056C89.1025 149.789 89.1452 149.493 89.1505 149.168C89.1612 148.837 89.1665 148.584 89.1665 148.408L89.6625 148.624C89.1985 148.688 88.7425 148.749 88.2945 148.808C87.8465 148.867 87.4225 148.931 87.0225 149C86.6225 149.064 86.2625 149.141 85.9425 149.232C85.7078 149.307 85.4865 149.403 85.2785 149.52C85.0758 149.637 84.9105 149.789 84.7825 149.976C84.6598 150.157 84.5985 150.384 84.5985 150.656C84.5985 150.891 84.6572 151.115 84.7745 151.328C84.8972 151.541 85.0838 151.715 85.3345 151.848C85.5905 151.981 85.9238 152.048 86.3345 152.048ZM92.3425 153V144.36H93.6145V146.448L93.4065 146.176C93.5078 145.909 93.6385 145.664 93.7985 145.44C93.9638 145.216 94.1478 145.032 94.3505 144.888C94.5745 144.707 94.8278 144.568 95.1105 144.472C95.3932 144.376 95.6812 144.32 95.9745 144.304C96.2678 144.283 96.5425 144.301 96.7985 144.36V145.696C96.4998 145.616 96.1718 145.595 95.8145 145.632C95.4572 145.669 95.1265 145.8 94.8225 146.024C94.5452 146.221 94.3292 146.461 94.1745 146.744C94.0252 147.027 93.9212 147.333 93.8625 147.664C93.8038 147.989 93.7745 148.323 93.7745 148.664V153H92.3425ZM100.943 153.232C99.9134 153.232 99.0681 153.008 98.4067 152.56C97.7507 152.107 97.3481 151.475 97.1987 150.664L98.6547 150.432C98.7721 150.901 99.0414 151.275 99.4627 151.552C99.8841 151.824 100.407 151.96 101.031 151.96C101.623 151.96 102.087 151.837 102.423 151.592C102.759 151.347 102.927 151.013 102.927 150.592C102.927 150.347 102.871 150.149 102.759 150C102.647 149.845 102.415 149.701 102.063 149.568C101.716 149.435 101.191 149.275 100.487 149.088C99.7241 148.885 99.1241 148.675 98.6867 148.456C98.2494 148.237 97.9374 147.984 97.7507 147.696C97.5641 147.408 97.4707 147.059 97.4707 146.648C97.4707 146.141 97.6094 145.699 97.8867 145.32C98.1641 144.936 98.5507 144.64 99.0467 144.432C99.5481 144.224 100.129 144.12 100.791 144.12C101.447 144.12 102.033 144.224 102.551 144.432C103.068 144.64 103.484 144.936 103.799 145.32C104.119 145.699 104.308 146.141 104.367 146.648L102.911 146.912C102.841 146.448 102.617 146.083 102.239 145.816C101.865 145.549 101.383 145.408 100.791 145.392C100.231 145.371 99.7747 145.469 99.4227 145.688C99.0761 145.907 98.9027 146.203 98.9027 146.576C98.9027 146.784 98.9667 146.963 99.0947 147.112C99.2281 147.261 99.4707 147.403 99.8227 147.536C100.18 147.669 100.697 147.821 101.375 147.992C102.137 148.184 102.737 148.395 103.175 148.624C103.617 148.848 103.932 149.115 104.119 149.424C104.305 149.728 104.399 150.104 104.399 150.552C104.399 151.384 104.092 152.04 103.479 152.52C102.865 152.995 102.02 153.232 100.943 153.232ZM113.55 153C113.038 153.101 112.532 153.141 112.03 153.12C111.534 153.104 111.092 153.005 110.702 152.824C110.313 152.637 110.017 152.349 109.814 151.96C109.644 151.619 109.55 151.275 109.534 150.928C109.524 150.576 109.518 150.179 109.518 149.736V141.96H110.942V149.672C110.942 150.024 110.945 150.325 110.95 150.576C110.961 150.827 111.017 151.043 111.118 151.224C111.31 151.565 111.614 151.765 112.03 151.824C112.452 151.883 112.958 151.867 113.55 151.776V153ZM107.766 145.536V144.36H113.55V145.536H107.766ZM118.305 153.24C117.446 153.24 116.705 153.045 116.081 152.656C115.462 152.267 114.985 151.728 114.649 151.04C114.313 150.352 114.145 149.563 114.145 148.672C114.145 147.765 114.316 146.971 114.657 146.288C114.998 145.605 115.481 145.075 116.105 144.696C116.729 144.312 117.462 144.12 118.305 144.12C119.169 144.12 119.913 144.315 120.537 144.704C121.161 145.088 121.638 145.624 121.969 146.312C122.305 146.995 122.473 147.781 122.473 148.672C122.473 149.573 122.305 150.368 121.969 151.056C121.633 151.739 121.153 152.275 120.529 152.664C119.905 153.048 119.164 153.24 118.305 153.24ZM118.305 151.888C119.201 151.888 119.868 151.589 120.305 150.992C120.742 150.395 120.961 149.621 120.961 148.672C120.961 147.696 120.74 146.92 120.297 146.344C119.854 145.763 119.19 145.472 118.305 145.472C117.702 145.472 117.206 145.608 116.817 145.88C116.428 146.152 116.137 146.528 115.945 147.008C115.753 147.488 115.657 148.043 115.657 148.672C115.657 149.643 115.881 150.421 116.329 151.008C116.777 151.595 117.436 151.888 118.305 151.888ZM130.477 153.24C129.619 153.24 128.877 153.045 128.253 152.656C127.635 152.267 127.157 151.728 126.821 151.04C126.485 150.352 126.317 149.563 126.317 148.672C126.317 147.765 126.488 146.971 126.829 146.288C127.171 145.605 127.653 145.075 128.277 144.696C128.901 144.312 129.635 144.12 130.477 144.12C131.341 144.12 132.085 144.315 132.709 144.704C133.333 145.088 133.811 145.624 134.141 146.312C134.477 146.995 134.645 147.781 134.645 148.672C134.645 149.573 134.477 150.368 134.141 151.056C133.805 151.739 133.325 152.275 132.701 152.664C132.077 153.048 131.336 153.24 130.477 153.24ZM130.477 151.888C131.373 151.888 132.04 151.589 132.477 150.992C132.915 150.395 133.133 149.621 133.133 148.672C133.133 147.696 132.912 146.92 132.469 146.344C132.027 145.763 131.363 145.472 130.477 145.472C129.875 145.472 129.379 145.608 128.989 145.88C128.6 146.152 128.309 146.528 128.117 147.008C127.925 147.488 127.829 148.043 127.829 148.672C127.829 149.643 128.053 150.421 128.501 151.008C128.949 151.595 129.608 151.888 130.477 151.888ZM136.087 153V144.36H137.359V146.448L137.151 146.176C137.252 145.909 137.383 145.664 137.543 145.44C137.708 145.216 137.892 145.032 138.095 144.888C138.319 144.707 138.572 144.568 138.855 144.472C139.138 144.376 139.426 144.32 139.719 144.304C140.012 144.283 140.287 144.301 140.543 144.36V145.696C140.244 145.616 139.916 145.595 139.559 145.632C139.202 145.669 138.871 145.8 138.567 146.024C138.29 146.221 138.074 146.461 137.919 146.744C137.77 147.027 137.666 147.333 137.607 147.664C137.548 147.989 137.519 148.323 137.519 148.664V153H136.087ZM144.971 153.24C144.166 153.24 143.475 153.04 142.899 152.64C142.323 152.235 141.878 151.688 141.563 151C141.254 150.312 141.099 149.536 141.099 148.672C141.099 147.808 141.254 147.032 141.563 146.344C141.878 145.656 142.323 145.115 142.899 144.72C143.475 144.32 144.163 144.12 144.963 144.12C145.779 144.12 146.465 144.317 147.019 144.712C147.574 145.107 147.993 145.648 148.275 146.336C148.563 147.024 148.707 147.803 148.707 148.672C148.707 149.531 148.563 150.307 148.275 151C147.993 151.688 147.574 152.235 147.019 152.64C146.465 153.04 145.782 153.24 144.971 153.24ZM145.147 151.936C145.729 151.936 146.206 151.797 146.579 151.52C146.953 151.237 147.227 150.851 147.403 150.36C147.585 149.864 147.675 149.301 147.675 148.672C147.675 148.032 147.585 147.469 147.403 146.984C147.227 146.493 146.955 146.112 146.587 145.84C146.219 145.563 145.753 145.424 145.187 145.424C144.601 145.424 144.115 145.568 143.731 145.856C143.353 146.144 143.07 146.533 142.883 147.024C142.702 147.515 142.611 148.064 142.611 148.672C142.611 149.285 142.705 149.84 142.891 150.336C143.078 150.827 143.358 151.216 143.731 151.504C144.11 151.792 144.582 151.936 145.147 151.936ZM147.675 153V146.64H147.515V141.48H148.947V153H147.675ZM154.613 153.24C153.765 153.24 153.023 153.053 152.389 152.68C151.759 152.301 151.269 151.776 150.917 151.104C150.565 150.427 150.389 149.637 150.389 148.736C150.389 147.792 150.562 146.976 150.909 146.288C151.255 145.595 151.738 145.061 152.357 144.688C152.981 144.309 153.711 144.12 154.549 144.12C155.418 144.12 156.157 144.32 156.765 144.72C157.378 145.12 157.837 145.691 158.141 146.432C158.45 147.173 158.583 148.056 158.541 149.08H157.101V148.568C157.085 147.507 156.869 146.715 156.453 146.192C156.037 145.664 155.418 145.4 154.597 145.4C153.717 145.4 153.047 145.683 152.589 146.248C152.13 146.813 151.901 147.624 151.901 148.68C151.901 149.699 152.13 150.488 152.589 151.048C153.047 151.608 153.701 151.888 154.549 151.888C155.119 151.888 155.615 151.757 156.037 151.496C156.458 151.235 156.789 150.859 157.029 150.368L158.397 150.84C158.061 151.603 157.554 152.195 156.877 152.616C156.205 153.032 155.45 153.24 154.613 153.24ZM151.421 149.08V147.936H157.805V149.08H151.421ZM160.002 153V144.36H161.274V146.448L161.066 146.176C161.167 145.909 161.298 145.664 161.458 145.44C161.623 145.216 161.807 145.032 162.01 144.888C162.234 144.707 162.487 144.568 162.77 144.472C163.053 144.376 163.341 144.32 163.634 144.304C163.927 144.283 164.202 144.301 164.458 144.36V145.696C164.159 145.616 163.831 145.595 163.474 145.632C163.117 145.669 162.786 145.8 162.482 146.024C162.205 146.221 161.989 146.461 161.834 146.744C161.685 147.027 161.581 147.333 161.522 147.664C161.463 147.989 161.434 148.323 161.434 148.664V153H160.002ZM170.99 153.24C170.344 153.24 169.803 153.123 169.366 152.888C168.934 152.648 168.606 152.333 168.382 151.944C168.163 151.555 168.054 151.128 168.054 150.664C168.054 150.211 168.139 149.819 168.31 149.488C168.486 149.152 168.731 148.875 169.046 148.656C169.36 148.432 169.736 148.256 170.174 148.128C170.584 148.016 171.043 147.92 171.55 147.84C172.062 147.755 172.579 147.677 173.102 147.608C173.624 147.539 174.112 147.472 174.566 147.408L174.054 147.704C174.07 146.936 173.915 146.368 173.59 146C173.27 145.632 172.715 145.448 171.926 145.448C171.403 145.448 170.944 145.568 170.55 145.808C170.16 146.043 169.886 146.427 169.726 146.96L168.374 146.552C168.582 145.795 168.984 145.2 169.582 144.768C170.179 144.336 170.966 144.12 171.942 144.12C172.726 144.12 173.398 144.261 173.958 144.544C174.523 144.821 174.928 145.243 175.174 145.808C175.296 146.075 175.374 146.365 175.406 146.68C175.438 146.989 175.454 147.315 175.454 147.656V153H174.19V150.928L174.486 151.12C174.16 151.819 173.704 152.347 173.118 152.704C172.536 153.061 171.827 153.24 170.99 153.24ZM171.206 152.048C171.718 152.048 172.16 151.957 172.534 151.776C172.912 151.589 173.216 151.347 173.446 151.048C173.675 150.744 173.824 150.413 173.894 150.056C173.974 149.789 174.016 149.493 174.022 149.168C174.032 148.837 174.038 148.584 174.038 148.408L174.534 148.624C174.07 148.688 173.614 148.749 173.166 148.808C172.718 148.867 172.294 148.931 171.894 149C171.494 149.064 171.134 149.141 170.814 149.232C170.579 149.307 170.358 149.403 170.15 149.52C169.947 149.637 169.782 149.789 169.654 149.976C169.531 150.157 169.47 150.384 169.47 150.656C169.47 150.891 169.528 151.115 169.646 151.328C169.768 151.541 169.955 151.715 170.206 151.848C170.462 151.981 170.795 152.048 171.206 152.048ZM177.374 153V141.24H178.798V153H177.374ZM181.038 153V141.24H182.462V153H181.038ZM188.223 153.24C187.364 153.24 186.623 153.045 185.999 152.656C185.38 152.267 184.903 151.728 184.567 151.04C184.231 150.352 184.063 149.563 184.063 148.672C184.063 147.765 184.233 146.971 184.575 146.288C184.916 145.605 185.399 145.075 186.023 144.696C186.647 144.312 187.38 144.12 188.223 144.12C189.087 144.12 189.831 144.315 190.455 144.704C191.079 145.088 191.556 145.624 191.887 146.312C192.223 146.995 192.391 147.781 192.391 148.672C192.391 149.573 192.223 150.368 191.887 151.056C191.551 151.739 191.071 152.275 190.447 152.664C189.823 153.048 189.081 153.24 188.223 153.24ZM188.223 151.888C189.119 151.888 189.785 151.589 190.223 150.992C190.66 150.395 190.879 149.621 190.879 148.672C190.879 147.696 190.657 146.92 190.215 146.344C189.772 145.763 189.108 145.472 188.223 145.472C187.62 145.472 187.124 145.608 186.735 145.88C186.345 146.152 186.055 146.528 185.863 147.008C185.671 147.488 185.575 148.043 185.575 148.672C185.575 149.643 185.799 150.421 186.247 151.008C186.695 151.595 187.353 151.888 188.223 151.888ZM195.359 153L192.719 144.352L194.135 144.36L196.063 150.68L198.007 144.36H199.263L201.199 150.68L203.135 144.36H204.543L201.903 153H200.719L198.631 146.432L196.543 153H195.359ZM211.007 153.24C210.362 153.24 209.821 153.123 209.383 152.888C208.951 152.648 208.623 152.333 208.399 151.944C208.181 151.555 208.071 151.128 208.071 150.664C208.071 150.211 208.157 149.819 208.327 149.488C208.503 149.152 208.749 148.875 209.063 148.656C209.378 148.432 209.754 148.256 210.191 148.128C210.602 148.016 211.061 147.92 211.567 147.84C212.079 147.755 212.597 147.677 213.119 147.608C213.642 147.539 214.13 147.472 214.583 147.408L214.071 147.704C214.087 146.936 213.933 146.368 213.607 146C213.287 145.632 212.733 145.448 211.943 145.448C211.421 145.448 210.962 145.568 210.567 145.808C210.178 146.043 209.903 146.427 209.743 146.96L208.391 146.552C208.599 145.795 209.002 145.2 209.599 144.768C210.197 144.336 210.983 144.12 211.959 144.12C212.743 144.12 213.415 144.261 213.975 144.544C214.541 144.821 214.946 145.243 215.191 145.808C215.314 146.075 215.391 146.365 215.423 146.68C215.455 146.989 215.471 147.315 215.471 147.656V153H214.207V150.928L214.503 151.12C214.178 151.819 213.722 152.347 213.135 152.704C212.554 153.061 211.845 153.24 211.007 153.24ZM211.223 152.048C211.735 152.048 212.178 151.957 212.551 151.776C212.93 151.589 213.234 151.347 213.463 151.048C213.693 150.744 213.842 150.413 213.911 150.056C213.991 149.789 214.034 149.493 214.039 149.168C214.05 148.837 214.055 148.584 214.055 148.408L214.551 148.624C214.087 148.688 213.631 148.749 213.183 148.808C212.735 148.867 212.311 148.931 211.911 149C211.511 149.064 211.151 149.141 210.831 149.232C210.597 149.307 210.375 149.403 210.167 149.52C209.965 149.637 209.799 149.789 209.671 149.976C209.549 150.157 209.487 150.384 209.487 150.656C209.487 150.891 209.546 151.115 209.663 151.328C209.786 151.541 209.973 151.715 210.223 151.848C210.479 151.981 210.813 152.048 211.223 152.048ZM220.495 153.232C219.466 153.232 218.621 153.008 217.959 152.56C217.303 152.107 216.901 151.475 216.751 150.664L218.207 150.432C218.325 150.901 218.594 151.275 219.015 151.552C219.437 151.824 219.959 151.96 220.583 151.96C221.175 151.96 221.639 151.837 221.975 151.592C222.311 151.347 222.479 151.013 222.479 150.592C222.479 150.347 222.423 150.149 222.311 150C222.199 149.845 221.967 149.701 221.615 149.568C221.269 149.435 220.743 149.275 220.039 149.088C219.277 148.885 218.677 148.675 218.239 148.456C217.802 148.237 217.49 147.984 217.303 147.696C217.117 147.408 217.023 147.059 217.023 146.648C217.023 146.141 217.162 145.699 217.439 145.32C217.717 144.936 218.103 144.64 218.599 144.432C219.101 144.224 219.682 144.12 220.343 144.12C220.999 144.12 221.586 144.224 222.103 144.432C222.621 144.64 223.037 144.936 223.351 145.32C223.671 145.699 223.861 146.141 223.919 146.648L222.463 146.912C222.394 146.448 222.17 146.083 221.791 145.816C221.418 145.549 220.935 145.408 220.343 145.392C219.783 145.371 219.327 145.469 218.975 145.688C218.629 145.907 218.455 146.203 218.455 146.576C218.455 146.784 218.519 146.963 218.647 147.112C218.781 147.261 219.023 147.403 219.375 147.536C219.733 147.669 220.25 147.821 220.927 147.992C221.69 148.184 222.29 148.395 222.727 148.624C223.17 148.848 223.485 149.115 223.671 149.424C223.858 149.728 223.951 150.104 223.951 150.552C223.951 151.384 223.645 152.04 223.031 152.52C222.418 152.995 221.573 153.232 220.495 153.232ZM225.388 153L225.396 141.48H226.836V148.52L230.46 144.36H232.308L228.492 148.68L232.756 153H230.764L226.836 148.84V153H225.388ZM236.82 153.24C235.972 153.24 235.23 153.053 234.596 152.68C233.966 152.301 233.476 151.776 233.124 151.104C232.772 150.427 232.596 149.637 232.596 148.736C232.596 147.792 232.769 146.976 233.116 146.288C233.462 145.595 233.945 145.061 234.564 144.688C235.188 144.309 235.918 144.12 236.756 144.12C237.625 144.12 238.364 144.32 238.972 144.72C239.585 145.12 240.044 145.691 240.348 146.432C240.657 147.173 240.79 148.056 240.748 149.08H239.308V148.568C239.292 147.507 239.076 146.715 238.66 146.192C238.244 145.664 237.625 145.4 236.804 145.4C235.924 145.4 235.254 145.683 234.796 146.248C234.337 146.813 234.108 147.624 234.108 148.68C234.108 149.699 234.337 150.488 234.796 151.048C235.254 151.608 235.908 151.888 236.756 151.888C237.326 151.888 237.822 151.757 238.244 151.496C238.665 151.235 238.996 150.859 239.236 150.368L240.604 150.84C240.268 151.603 239.761 152.195 239.084 152.616C238.412 153.032 237.657 153.24 236.82 153.24ZM233.628 149.08V147.936H240.012V149.08H233.628ZM245.601 153.24C244.795 153.24 244.105 153.04 243.529 152.64C242.953 152.235 242.507 151.688 242.193 151C241.883 150.312 241.729 149.536 241.729 148.672C241.729 147.808 241.883 147.032 242.193 146.344C242.507 145.656 242.953 145.115 243.529 144.72C244.105 144.32 244.793 144.12 245.593 144.12C246.409 144.12 247.094 144.317 247.649 144.712C248.203 145.107 248.622 145.648 248.905 146.336C249.193 147.024 249.337 147.803 249.337 148.672C249.337 149.531 249.193 150.307 248.905 151C248.622 151.688 248.203 152.235 247.649 152.64C247.094 153.04 246.411 153.24 245.601 153.24ZM245.777 151.936C246.358 151.936 246.835 151.797 247.209 151.52C247.582 151.237 247.857 150.851 248.033 150.36C248.214 149.864 248.305 149.301 248.305 148.672C248.305 148.032 248.214 147.469 248.033 146.984C247.857 146.493 247.585 146.112 247.217 145.84C246.849 145.563 246.382 145.424 245.817 145.424C245.23 145.424 244.745 145.568 244.361 145.856C243.982 146.144 243.699 146.533 243.513 147.024C243.331 147.515 243.241 148.064 243.241 148.672C243.241 149.285 243.334 149.84 243.521 150.336C243.707 150.827 243.987 151.216 244.361 151.504C244.739 151.792 245.211 151.936 245.777 151.936ZM248.305 153V146.64H248.145V141.48H249.577V153H248.305ZM258.061 153.24C257.203 153.24 256.461 153.045 255.837 152.656C255.219 152.267 254.741 151.728 254.405 151.04C254.069 150.352 253.901 149.563 253.901 148.672C253.901 147.765 254.072 146.971 254.413 146.288C254.755 145.605 255.237 145.075 255.861 144.696C256.485 144.312 257.219 144.12 258.061 144.12C258.925 144.12 259.669 144.315 260.293 144.704C260.917 145.088 261.395 145.624 261.725 146.312C262.061 146.995 262.229 147.781 262.229 148.672C262.229 149.573 262.061 150.368 261.725 151.056C261.389 151.739 260.909 152.275 260.285 152.664C259.661 153.048 258.92 153.24 258.061 153.24ZM258.061 151.888C258.957 151.888 259.624 151.589 260.061 150.992C260.499 150.395 260.717 149.621 260.717 148.672C260.717 147.696 260.496 146.92 260.053 146.344C259.611 145.763 258.947 145.472 258.061 145.472C257.459 145.472 256.963 145.608 256.573 145.88C256.184 146.152 255.893 146.528 255.701 147.008C255.509 147.488 255.413 148.043 255.413 148.672C255.413 149.643 255.637 150.421 256.085 151.008C256.533 151.595 257.192 151.888 258.061 151.888ZM264.495 153V143.888C264.495 143.664 264.505 143.437 264.527 143.208C264.548 142.973 264.596 142.747 264.671 142.528C264.745 142.304 264.868 142.099 265.039 141.912C265.236 141.693 265.452 141.539 265.687 141.448C265.921 141.352 266.159 141.293 266.399 141.272C266.644 141.251 266.876 141.24 267.095 141.24H268.191V142.424H267.175C266.753 142.424 266.439 142.528 266.231 142.736C266.023 142.939 265.919 143.248 265.919 143.664V153H264.495ZM263.031 145.536V144.36H268.191V145.536H263.031ZM268.607 153V151.432H270.175V153H268.607ZM4.576 183L1.24 171.48H2.728L5.288 180.592L7.84 171.488L9.336 171.48L11.896 180.592L14.448 171.48H15.944L12.608 183H11.184L8.592 173.968L6 183H4.576ZM19.7784 183.24C18.9304 183.24 18.189 183.053 17.5544 182.68C16.925 182.301 16.4344 181.776 16.0824 181.104C15.7304 180.427 15.5544 179.637 15.5544 178.736C15.5544 177.792 15.7277 176.976 16.0744 176.288C16.421 175.595 16.9037 175.061 17.5224 174.688C18.1464 174.309 18.877 174.12 19.7144 174.12C20.5837 174.12 21.3224 174.32 21.9304 174.72C22.5437 175.12 23.0024 175.691 23.3064 176.432C23.6157 177.173 23.749 178.056 23.7064 179.08H22.2664V178.568C22.2504 177.507 22.0344 176.715 21.6184 176.192C21.2024 175.664 20.5837 175.4 19.7624 175.4C18.8824 175.4 18.213 175.683 17.7544 176.248C17.2957 176.813 17.0664 177.624 17.0664 178.68C17.0664 179.699 17.2957 180.488 17.7544 181.048C18.213 181.608 18.8664 181.888 19.7144 181.888C20.285 181.888 20.781 181.757 21.2024 181.496C21.6237 181.235 21.9544 180.859 22.1944 180.368L23.5624 180.84C23.2264 181.603 22.7197 182.195 22.0424 182.616C21.3704 183.032 20.6157 183.24 19.7784 183.24ZM16.5864 179.08V177.936H22.9704V179.08H16.5864ZM31.3146 183.232C30.2853 183.232 29.44 183.008 28.7786 182.56C28.1226 182.107 27.72 181.475 27.5706 180.664L29.0266 180.432C29.144 180.901 29.4133 181.275 29.8346 181.552C30.256 181.824 30.7786 181.96 31.4026 181.96C31.9946 181.96 32.4586 181.837 32.7946 181.592C33.1306 181.347 33.2986 181.013 33.2986 180.592C33.2986 180.347 33.2426 180.149 33.1306 180C33.0186 179.845 32.7866 179.701 32.4346 179.568C32.088 179.435 31.5626 179.275 30.8586 179.088C30.096 178.885 29.496 178.675 29.0586 178.456C28.6213 178.237 28.3093 177.984 28.1226 177.696C27.936 177.408 27.8426 177.059 27.8426 176.648C27.8426 176.141 27.9813 175.699 28.2586 175.32C28.536 174.936 28.9226 174.64 29.4186 174.432C29.92 174.224 30.5013 174.12 31.1626 174.12C31.8186 174.12 32.4053 174.224 32.9226 174.432C33.44 174.64 33.856 174.936 34.1706 175.32C34.4906 175.699 34.68 176.141 34.7386 176.648L33.2826 176.912C33.2133 176.448 32.9893 176.083 32.6106 175.816C32.2373 175.549 31.7546 175.408 31.1626 175.392C30.6026 175.371 30.1466 175.469 29.7946 175.688C29.448 175.907 29.2746 176.203 29.2746 176.576C29.2746 176.784 29.3386 176.963 29.4666 177.112C29.6 177.261 29.8426 177.403 30.1946 177.536C30.552 177.669 31.0693 177.821 31.7466 177.992C32.5093 178.184 33.1093 178.395 33.5466 178.624C33.9893 178.848 34.304 179.115 34.4906 179.424C34.6773 179.728 34.7706 180.104 34.7706 180.552C34.7706 181.384 34.464 182.04 33.8506 182.52C33.2373 182.995 32.392 183.232 31.3146 183.232ZM39.895 183.24C39.0363 183.24 38.295 183.045 37.671 182.656C37.0523 182.267 36.575 181.728 36.239 181.04C35.903 180.352 35.735 179.563 35.735 178.672C35.735 177.765 35.9057 176.971 36.247 176.288C36.5883 175.605 37.071 175.075 37.695 174.696C38.319 174.312 39.0523 174.12 39.895 174.12C40.759 174.12 41.503 174.315 42.127 174.704C42.751 175.088 43.2283 175.624 43.559 176.312C43.895 176.995 44.063 177.781 44.063 178.672C44.063 179.573 43.895 180.368 43.559 181.056C43.223 181.739 42.743 182.275 42.119 182.664C41.495 183.048 40.7537 183.24 39.895 183.24ZM39.895 181.888C40.791 181.888 41.4577 181.589 41.895 180.992C42.3323 180.395 42.551 179.621 42.551 178.672C42.551 177.696 42.3297 176.92 41.887 176.344C41.4443 175.763 40.7803 175.472 39.895 175.472C39.2923 175.472 38.7963 175.608 38.407 175.88C38.0177 176.152 37.727 176.528 37.535 177.008C37.343 177.488 37.247 178.043 37.247 178.672C37.247 179.643 37.471 180.421 37.919 181.008C38.367 181.595 39.0257 181.888 39.895 181.888ZM52.0675 183.24C51.2088 183.24 50.4675 183.045 49.8435 182.656C49.2248 182.267 48.7475 181.728 48.4115 181.04C48.0755 180.352 47.9075 179.563 47.9075 178.672C47.9075 177.765 48.0782 176.971 48.4195 176.288C48.7608 175.605 49.2435 175.075 49.8675 174.696C50.4915 174.312 51.2248 174.12 52.0675 174.12C52.9315 174.12 53.6755 174.315 54.2995 174.704C54.9235 175.088 55.4008 175.624 55.7315 176.312C56.0675 176.995 56.2355 177.781 56.2355 178.672C56.2355 179.573 56.0675 180.368 55.7315 181.056C55.3955 181.739 54.9155 182.275 54.2915 182.664C53.6675 183.048 52.9262 183.24 52.0675 183.24ZM52.0675 181.888C52.9635 181.888 53.6302 181.589 54.0675 180.992C54.5048 180.395 54.7235 179.621 54.7235 178.672C54.7235 177.696 54.5022 176.92 54.0595 176.344C53.6168 175.763 52.9528 175.472 52.0675 175.472C51.4648 175.472 50.9688 175.608 50.5795 175.88C50.1902 176.152 49.8995 176.528 49.7075 177.008C49.5155 177.488 49.4195 178.043 49.4195 178.672C49.4195 179.643 49.6435 180.421 50.0915 181.008C50.5395 181.595 51.1982 181.888 52.0675 181.888ZM61.6449 183.24C60.8342 183.24 60.1515 183.04 59.5969 182.64C59.0422 182.235 58.6209 181.688 58.3329 181C58.0502 180.307 57.9089 179.531 57.9089 178.672C57.9089 177.803 58.0502 177.024 58.3329 176.336C58.6209 175.648 59.0422 175.107 59.5969 174.712C60.1569 174.317 60.8422 174.12 61.6529 174.12C62.4529 174.12 63.1409 174.32 63.7169 174.72C64.2982 175.115 64.7435 175.656 65.0529 176.344C65.3622 177.032 65.5169 177.808 65.5169 178.672C65.5169 179.536 65.3622 180.312 65.0529 181C64.7435 181.688 64.2982 182.235 63.7169 182.64C63.1409 183.04 62.4502 183.24 61.6449 183.24ZM57.6689 186.84V174.36H58.9409V180.72H59.1009V186.84H57.6689ZM61.4689 181.936C62.0395 181.936 62.5115 181.792 62.8849 181.504C63.2582 181.216 63.5382 180.827 63.7249 180.336C63.9115 179.84 64.0049 179.285 64.0049 178.672C64.0049 178.064 63.9115 177.515 63.7249 177.024C63.5435 176.533 63.2609 176.144 62.8769 175.856C62.4982 175.568 62.0155 175.424 61.4289 175.424C60.8689 175.424 60.4049 175.563 60.0369 175.84C59.6689 176.112 59.3942 176.493 59.2129 176.984C59.0315 177.469 58.9409 178.032 58.9409 178.672C58.9409 179.301 59.0289 179.864 59.2049 180.36C59.3862 180.851 59.6635 181.237 60.0369 181.52C60.4102 181.797 60.8875 181.936 61.4689 181.936ZM67.1106 172.832V171.36H68.5346V172.832H67.1106ZM67.1106 183V174.36H68.5346V183H67.1106ZM76.767 183V178.672C76.767 178.261 76.7297 177.867 76.655 177.488C76.5857 177.109 76.4603 176.771 76.279 176.472C76.103 176.168 75.863 175.928 75.559 175.752C75.2603 175.576 74.8817 175.488 74.423 175.488C74.0657 175.488 73.7403 175.549 73.447 175.672C73.159 175.789 72.911 175.971 72.703 176.216C72.495 176.461 72.3323 176.771 72.215 177.144C72.103 177.512 72.047 177.947 72.047 178.448L71.111 178.16C71.111 177.323 71.2603 176.605 71.559 176.008C71.863 175.405 72.287 174.944 72.831 174.624C73.3803 174.299 74.0257 174.136 74.767 174.136C75.327 174.136 75.8043 174.224 76.199 174.4C76.5937 174.576 76.9217 174.811 77.183 175.104C77.4443 175.392 77.6497 175.717 77.799 176.08C77.9483 176.437 78.0523 176.803 78.111 177.176C78.175 177.544 78.207 177.893 78.207 178.224V183H76.767ZM70.607 183V174.36H71.887V176.672H72.047V183H70.607ZM80.1269 172.832V171.36H81.5509V172.832H80.1269ZM80.1269 183V174.36H81.5509V183H80.1269ZM87.3113 183.24C86.4526 183.24 85.7113 183.045 85.0873 182.656C84.4686 182.267 83.9913 181.728 83.6553 181.04C83.3193 180.352 83.1513 179.563 83.1513 178.672C83.1513 177.765 83.3219 176.971 83.6633 176.288C84.0046 175.605 84.4873 175.075 85.1113 174.696C85.7353 174.312 86.4686 174.12 87.3113 174.12C88.1753 174.12 88.9193 174.315 89.5433 174.704C90.1673 175.088 90.6446 175.624 90.9753 176.312C91.3113 176.995 91.4793 177.781 91.4793 178.672C91.4793 179.573 91.3113 180.368 90.9753 181.056C90.6393 181.739 90.1593 182.275 89.5353 182.664C88.9113 183.048 88.1699 183.24 87.3113 183.24ZM87.3113 181.888C88.2073 181.888 88.8739 181.589 89.3113 180.992C89.7486 180.395 89.9673 179.621 89.9673 178.672C89.9673 177.696 89.7459 176.92 89.3033 176.344C88.8606 175.763 88.1966 175.472 87.3113 175.472C86.7086 175.472 86.2126 175.608 85.8233 175.88C85.4339 176.152 85.1433 176.528 84.9513 177.008C84.7593 177.488 84.6633 178.043 84.6633 178.672C84.6633 179.643 84.8873 180.421 85.3353 181.008C85.7833 181.595 86.4419 181.888 87.3113 181.888ZM99.0726 183V178.672C99.0726 178.261 99.0353 177.867 98.9606 177.488C98.8913 177.109 98.766 176.771 98.5846 176.472C98.4086 176.168 98.1686 175.928 97.8646 175.752C97.566 175.576 97.1873 175.488 96.7286 175.488C96.3713 175.488 96.046 175.549 95.7526 175.672C95.4646 175.789 95.2166 175.971 95.0086 176.216C94.8006 176.461 94.638 176.771 94.5206 177.144C94.4086 177.512 94.3526 177.947 94.3526 178.448L93.4166 178.16C93.4166 177.323 93.566 176.605 93.8646 176.008C94.1686 175.405 94.5926 174.944 95.1366 174.624C95.686 174.299 96.3313 174.136 97.0726 174.136C97.6326 174.136 98.11 174.224 98.5046 174.4C98.8993 174.576 99.2273 174.811 99.4886 175.104C99.75 175.392 99.9553 175.717 100.105 176.08C100.254 176.437 100.358 176.803 100.417 177.176C100.481 177.544 100.513 177.893 100.513 178.224V183H99.0726ZM92.9126 183V174.36H94.1926V176.672H94.3526V183H92.9126ZM105.98 183V173.888C105.98 173.664 105.99 173.437 106.012 173.208C106.033 172.973 106.081 172.747 106.156 172.528C106.23 172.304 106.353 172.099 106.524 171.912C106.721 171.693 106.937 171.539 107.172 171.448C107.406 171.352 107.644 171.293 107.884 171.272C108.129 171.251 108.361 171.24 108.58 171.24H109.676V172.424H108.66C108.238 172.424 107.924 172.528 107.716 172.736C107.508 172.939 107.404 173.248 107.404 173.664V183H105.98ZM104.516 175.536V174.36H109.676V175.536H104.516ZM110.632 183V174.36H111.904V176.448L111.696 176.176C111.798 175.909 111.928 175.664 112.088 175.44C112.254 175.216 112.438 175.032 112.64 174.888C112.864 174.707 113.118 174.568 113.4 174.472C113.683 174.376 113.971 174.32 114.264 174.304C114.558 174.283 114.832 174.301 115.088 174.36V175.696C114.79 175.616 114.462 175.595 114.104 175.632C113.747 175.669 113.416 175.8 113.112 176.024C112.835 176.221 112.619 176.461 112.464 176.744C112.315 177.027 112.211 177.333 112.152 177.664C112.094 177.989 112.064 178.323 112.064 178.664V183H110.632ZM116.441 172.832V171.36H117.865V172.832H116.441ZM116.441 183V174.36H117.865V183H116.441ZM123.69 183.24C122.842 183.24 122.1 183.053 121.466 182.68C120.836 182.301 120.346 181.776 119.994 181.104C119.642 180.427 119.466 179.637 119.466 178.736C119.466 177.792 119.639 176.976 119.986 176.288C120.332 175.595 120.815 175.061 121.434 174.688C122.058 174.309 122.788 174.12 123.626 174.12C124.495 174.12 125.234 174.32 125.842 174.72C126.455 175.12 126.914 175.691 127.218 176.432C127.527 177.173 127.66 178.056 127.618 179.08H126.178V178.568C126.162 177.507 125.946 176.715 125.53 176.192C125.114 175.664 124.495 175.4 123.674 175.4C122.794 175.4 122.124 175.683 121.666 176.248C121.207 176.813 120.978 177.624 120.978 178.68C120.978 179.699 121.207 180.488 121.666 181.048C122.124 181.608 122.778 181.888 123.626 181.888C124.196 181.888 124.692 181.757 125.114 181.496C125.535 181.235 125.866 180.859 126.106 180.368L127.474 180.84C127.138 181.603 126.631 182.195 125.954 182.616C125.282 183.032 124.527 183.24 123.69 183.24ZM120.498 179.08V177.936H126.882V179.08H120.498ZM134.996 183V178.672C134.996 178.261 134.959 177.867 134.884 177.488C134.815 177.109 134.69 176.771 134.508 176.472C134.332 176.168 134.092 175.928 133.788 175.752C133.49 175.576 133.111 175.488 132.652 175.488C132.295 175.488 131.97 175.549 131.676 175.672C131.388 175.789 131.14 175.971 130.932 176.216C130.724 176.461 130.562 176.771 130.444 177.144C130.332 177.512 130.276 177.947 130.276 178.448L129.34 178.16C129.34 177.323 129.49 176.605 129.788 176.008C130.092 175.405 130.516 174.944 131.06 174.624C131.61 174.299 132.255 174.136 132.996 174.136C133.556 174.136 134.034 174.224 134.428 174.4C134.823 174.576 135.151 174.811 135.412 175.104C135.674 175.392 135.879 175.717 136.028 176.08C136.178 176.437 136.282 176.803 136.34 177.176C136.404 177.544 136.436 177.893 136.436 178.224V183H134.996ZM128.836 183V174.36H130.116V176.672H130.276V183H128.836ZM141.51 183.24C140.705 183.24 140.014 183.04 139.438 182.64C138.862 182.235 138.417 181.688 138.102 181C137.793 180.312 137.638 179.536 137.638 178.672C137.638 177.808 137.793 177.032 138.102 176.344C138.417 175.656 138.862 175.115 139.438 174.72C140.014 174.32 140.702 174.12 141.502 174.12C142.318 174.12 143.003 174.317 143.558 174.712C144.113 175.107 144.531 175.648 144.814 176.336C145.102 177.024 145.246 177.803 145.246 178.672C145.246 179.531 145.102 180.307 144.814 181C144.531 181.688 144.113 182.235 143.558 182.64C143.003 183.04 142.321 183.24 141.51 183.24ZM141.686 181.936C142.267 181.936 142.745 181.797 143.118 181.52C143.491 181.237 143.766 180.851 143.942 180.36C144.123 179.864 144.214 179.301 144.214 178.672C144.214 178.032 144.123 177.469 143.942 176.984C143.766 176.493 143.494 176.112 143.126 175.84C142.758 175.563 142.291 175.424 141.726 175.424C141.139 175.424 140.654 175.568 140.27 175.856C139.891 176.144 139.609 176.533 139.422 177.024C139.241 177.515 139.15 178.064 139.15 178.672C139.15 179.285 139.243 179.84 139.43 180.336C139.617 180.827 139.897 181.216 140.27 181.504C140.649 181.792 141.121 181.936 141.686 181.936ZM144.214 183V176.64H144.054V171.48H145.486V183H144.214ZM150.672 183.232C149.642 183.232 148.797 183.008 148.136 182.56C147.48 182.107 147.077 181.475 146.928 180.664L148.384 180.432C148.501 180.901 148.77 181.275 149.192 181.552C149.613 181.824 150.136 181.96 150.76 181.96C151.352 181.96 151.816 181.837 152.152 181.592C152.488 181.347 152.656 181.013 152.656 180.592C152.656 180.347 152.6 180.149 152.488 180C152.376 179.845 152.144 179.701 151.792 179.568C151.445 179.435 150.92 179.275 150.216 179.088C149.453 178.885 148.853 178.675 148.416 178.456C147.978 178.237 147.666 177.984 147.48 177.696C147.293 177.408 147.2 177.059 147.2 176.648C147.2 176.141 147.338 175.699 147.616 175.32C147.893 174.936 148.28 174.64 148.776 174.432C149.277 174.224 149.858 174.12 150.52 174.12C151.176 174.12 151.762 174.224 152.28 174.432C152.797 174.64 153.213 174.936 153.528 175.32C153.848 175.699 154.037 176.141 154.096 176.648L152.64 176.912C152.57 176.448 152.346 176.083 151.968 175.816C151.594 175.549 151.112 175.408 150.52 175.392C149.96 175.371 149.504 175.469 149.152 175.688C148.805 175.907 148.632 176.203 148.632 176.576C148.632 176.784 148.696 176.963 148.824 177.112C148.957 177.261 149.2 177.403 149.552 177.536C149.909 177.669 150.426 177.821 151.104 177.992C151.866 178.184 152.466 178.395 152.904 178.624C153.346 178.848 153.661 179.115 153.848 179.424C154.034 179.728 154.128 180.104 154.128 180.552C154.128 181.384 153.821 182.04 153.208 182.52C152.594 182.995 151.749 183.232 150.672 183.232ZM168.783 183L168.791 177.472C168.791 176.827 168.618 176.323 168.271 175.96C167.93 175.592 167.484 175.408 166.935 175.408C166.615 175.408 166.311 175.483 166.023 175.632C165.735 175.776 165.5 176.005 165.319 176.32C165.138 176.629 165.047 177.027 165.047 177.512L164.295 177.208C164.284 176.595 164.41 176.059 164.671 175.6C164.938 175.136 165.3 174.776 165.759 174.52C166.218 174.264 166.735 174.136 167.311 174.136C168.212 174.136 168.922 174.411 169.439 174.96C169.956 175.504 170.215 176.237 170.215 177.16L170.207 183H168.783ZM158.447 183V174.36H159.719V176.672H159.879V183H158.447ZM163.623 183L163.631 177.528C163.631 176.867 163.46 176.349 163.119 175.976C162.778 175.597 162.324 175.408 161.759 175.408C161.199 175.408 160.746 175.6 160.399 175.984C160.052 176.368 159.879 176.877 159.879 177.512L159.127 177.064C159.127 176.504 159.26 176.003 159.527 175.56C159.794 175.117 160.156 174.771 160.615 174.52C161.074 174.264 161.594 174.136 162.175 174.136C162.756 174.136 163.263 174.259 163.695 174.504C164.127 174.749 164.46 175.101 164.695 175.56C164.93 176.013 165.047 176.555 165.047 177.184L165.039 183H163.623ZM175.645 183.24C174.797 183.24 174.055 183.053 173.421 182.68C172.791 182.301 172.301 181.776 171.949 181.104C171.597 180.427 171.421 179.637 171.421 178.736C171.421 177.792 171.594 176.976 171.941 176.288C172.287 175.595 172.77 175.061 173.389 174.688C174.013 174.309 174.743 174.12 175.581 174.12C176.45 174.12 177.189 174.32 177.797 174.72C178.41 175.12 178.869 175.691 179.173 176.432C179.482 177.173 179.615 178.056 179.573 179.08H178.133V178.568C178.117 177.507 177.901 176.715 177.485 176.192C177.069 175.664 176.45 175.4 175.629 175.4C174.749 175.4 174.079 175.683 173.621 176.248C173.162 176.813 172.933 177.624 172.933 178.68C172.933 179.699 173.162 180.488 173.621 181.048C174.079 181.608 174.733 181.888 175.581 181.888C176.151 181.888 176.647 181.757 177.069 181.496C177.49 181.235 177.821 180.859 178.061 180.368L179.429 180.84C179.093 181.603 178.586 182.195 177.909 182.616C177.237 183.032 176.482 183.24 175.645 183.24ZM172.453 179.08V177.936H178.837V179.08H172.453ZM194.245 183L194.253 177.472C194.253 176.827 194.08 176.323 193.733 175.96C193.392 175.592 192.946 175.408 192.397 175.408C192.077 175.408 191.773 175.483 191.485 175.632C191.197 175.776 190.962 176.005 190.781 176.32C190.6 176.629 190.509 177.027 190.509 177.512L189.757 177.208C189.746 176.595 189.872 176.059 190.133 175.6C190.4 175.136 190.762 174.776 191.221 174.52C191.68 174.264 192.197 174.136 192.773 174.136C193.674 174.136 194.384 174.411 194.901 174.96C195.418 175.504 195.677 176.237 195.677 177.16L195.669 183H194.245ZM183.909 183V174.36H185.181V176.672H185.341V183H183.909ZM189.085 183L189.093 177.528C189.093 176.867 188.922 176.349 188.581 175.976C188.24 175.597 187.786 175.408 187.221 175.408C186.661 175.408 186.208 175.6 185.861 175.984C185.514 176.368 185.341 176.877 185.341 177.512L184.589 177.064C184.589 176.504 184.722 176.003 184.989 175.56C185.256 175.117 185.618 174.771 186.077 174.52C186.536 174.264 187.056 174.136 187.637 174.136C188.218 174.136 188.725 174.259 189.157 174.504C189.589 174.749 189.922 175.101 190.157 175.56C190.392 176.013 190.509 176.555 190.509 177.184L190.501 183H189.085ZM201.106 183.24C200.258 183.24 199.517 183.053 198.882 182.68C198.253 182.301 197.762 181.776 197.41 181.104C197.058 180.427 196.882 179.637 196.882 178.736C196.882 177.792 197.056 176.976 197.402 176.288C197.749 175.595 198.232 175.061 198.85 174.688C199.474 174.309 200.205 174.12 201.042 174.12C201.912 174.12 202.65 174.32 203.258 174.72C203.872 175.12 204.33 175.691 204.634 176.432C204.944 177.173 205.077 178.056 205.034 179.08H203.594V178.568C203.578 177.507 203.362 176.715 202.946 176.192C202.53 175.664 201.912 175.4 201.09 175.4C200.21 175.4 199.541 175.683 199.082 176.248C198.624 176.813 198.394 177.624 198.394 178.68C198.394 179.699 198.624 180.488 199.082 181.048C199.541 181.608 200.194 181.888 201.042 181.888C201.613 181.888 202.109 181.757 202.53 181.496C202.952 181.235 203.282 180.859 203.522 180.368L204.89 180.84C204.554 181.603 204.048 182.195 203.37 182.616C202.698 183.032 201.944 183.24 201.106 183.24ZM197.914 179.08V177.936H204.298V179.08H197.914ZM209.76 183.232C208.73 183.232 207.885 183.008 207.224 182.56C206.568 182.107 206.165 181.475 206.016 180.664L207.472 180.432C207.589 180.901 207.858 181.275 208.28 181.552C208.701 181.824 209.224 181.96 209.848 181.96C210.44 181.96 210.904 181.837 211.24 181.592C211.576 181.347 211.744 181.013 211.744 180.592C211.744 180.347 211.688 180.149 211.576 180C211.464 179.845 211.232 179.701 210.88 179.568C210.533 179.435 210.008 179.275 209.304 179.088C208.541 178.885 207.941 178.675 207.504 178.456C207.066 178.237 206.754 177.984 206.568 177.696C206.381 177.408 206.288 177.059 206.288 176.648C206.288 176.141 206.426 175.699 206.704 175.32C206.981 174.936 207.368 174.64 207.864 174.432C208.365 174.224 208.946 174.12 209.608 174.12C210.264 174.12 210.85 174.224 211.368 174.432C211.885 174.64 212.301 174.936 212.616 175.32C212.936 175.699 213.125 176.141 213.184 176.648L211.728 176.912C211.658 176.448 211.434 176.083 211.056 175.816C210.682 175.549 210.2 175.408 209.608 175.392C209.048 175.371 208.592 175.469 208.24 175.688C207.893 175.907 207.72 176.203 207.72 176.576C207.72 176.784 207.784 176.963 207.912 177.112C208.045 177.261 208.288 177.403 208.64 177.536C208.997 177.669 209.514 177.821 210.192 177.992C210.954 178.184 211.554 178.395 211.992 178.624C212.434 178.848 212.749 179.115 212.936 179.424C213.122 179.728 213.216 180.104 213.216 180.552C213.216 181.384 212.909 182.04 212.296 182.52C211.682 182.995 210.837 183.232 209.76 183.232ZM217.924 183.232C216.895 183.232 216.049 183.008 215.388 182.56C214.732 182.107 214.329 181.475 214.18 180.664L215.636 180.432C215.753 180.901 216.023 181.275 216.444 181.552C216.865 181.824 217.388 181.96 218.012 181.96C218.604 181.96 219.068 181.837 219.404 181.592C219.74 181.347 219.908 181.013 219.908 180.592C219.908 180.347 219.852 180.149 219.74 180C219.628 179.845 219.396 179.701 219.044 179.568C218.697 179.435 218.172 179.275 217.468 179.088C216.705 178.885 216.105 178.675 215.668 178.456C215.231 178.237 214.919 177.984 214.732 177.696C214.545 177.408 214.452 177.059 214.452 176.648C214.452 176.141 214.591 175.699 214.868 175.32C215.145 174.936 215.532 174.64 216.028 174.432C216.529 174.224 217.111 174.12 217.772 174.12C218.428 174.12 219.015 174.224 219.532 174.432C220.049 174.64 220.465 174.936 220.78 175.32C221.1 175.699 221.289 176.141 221.348 176.648L219.892 176.912C219.823 176.448 219.599 176.083 219.22 175.816C218.847 175.549 218.364 175.408 217.772 175.392C217.212 175.371 216.756 175.469 216.404 175.688C216.057 175.907 215.884 176.203 215.884 176.576C215.884 176.784 215.948 176.963 216.076 177.112C216.209 177.261 216.452 177.403 216.804 177.536C217.161 177.669 217.679 177.821 218.356 177.992C219.119 178.184 219.719 178.395 220.156 178.624C220.599 178.848 220.913 179.115 221.1 179.424C221.287 179.728 221.38 180.104 221.38 180.552C221.38 181.384 221.073 182.04 220.46 182.52C219.847 182.995 219.001 183.232 217.924 183.232ZM225.28 183.24C224.635 183.24 224.094 183.123 223.656 182.888C223.224 182.648 222.896 182.333 222.672 181.944C222.454 181.555 222.344 181.128 222.344 180.664C222.344 180.211 222.43 179.819 222.6 179.488C222.776 179.152 223.022 178.875 223.336 178.656C223.651 178.432 224.027 178.256 224.464 178.128C224.875 178.016 225.334 177.92 225.84 177.84C226.352 177.755 226.87 177.677 227.392 177.608C227.915 177.539 228.403 177.472 228.856 177.408L228.344 177.704C228.36 176.936 228.206 176.368 227.88 176C227.56 175.632 227.006 175.448 226.216 175.448C225.694 175.448 225.235 175.568 224.84 175.808C224.451 176.043 224.176 176.427 224.016 176.96L222.664 176.552C222.872 175.795 223.275 175.2 223.872 174.768C224.47 174.336 225.256 174.12 226.232 174.12C227.016 174.12 227.688 174.261 228.248 174.544C228.814 174.821 229.219 175.243 229.464 175.808C229.587 176.075 229.664 176.365 229.696 176.68C229.728 176.989 229.744 177.315 229.744 177.656V183H228.48V180.928L228.776 181.12C228.451 181.819 227.995 182.347 227.408 182.704C226.827 183.061 226.118 183.24 225.28 183.24ZM225.496 182.048C226.008 182.048 226.451 181.957 226.824 181.776C227.203 181.589 227.507 181.347 227.736 181.048C227.966 180.744 228.115 180.413 228.184 180.056C228.264 179.789 228.307 179.493 228.312 179.168C228.323 178.837 228.328 178.584 228.328 178.408L228.824 178.624C228.36 178.688 227.904 178.749 227.456 178.808C227.008 178.867 226.584 178.931 226.184 179C225.784 179.064 225.424 179.141 225.104 179.232C224.87 179.307 224.648 179.403 224.44 179.52C224.238 179.637 224.072 179.789 223.944 179.976C223.822 180.157 223.76 180.384 223.76 180.656C223.76 180.891 223.819 181.115 223.936 181.328C224.059 181.541 224.246 181.715 224.496 181.848C224.752 181.981 225.086 182.048 225.496 182.048ZM235 187.08C234.547 187.08 234.104 187.011 233.672 186.872C233.24 186.733 232.843 186.523 232.48 186.24C232.123 185.963 231.824 185.611 231.584 185.184L232.888 184.496C233.102 184.917 233.403 185.224 233.792 185.416C234.187 185.608 234.592 185.704 235.008 185.704C235.558 185.704 236.014 185.603 236.376 185.4C236.739 185.203 237.006 184.907 237.176 184.512C237.352 184.117 237.438 183.627 237.432 183.04V180.68H237.6V174.36H238.864V183.056C238.864 183.291 238.856 183.517 238.84 183.736C238.83 183.955 238.803 184.171 238.76 184.384C238.648 184.997 238.427 185.501 238.096 185.896C237.766 186.296 237.339 186.592 236.816 186.784C236.294 186.981 235.688 187.08 235 187.08ZM234.896 183.24C234.091 183.24 233.4 183.04 232.824 182.64C232.248 182.235 231.803 181.688 231.488 181C231.179 180.312 231.024 179.536 231.024 178.672C231.024 177.808 231.179 177.032 231.488 176.344C231.803 175.656 232.248 175.115 232.824 174.72C233.4 174.32 234.088 174.12 234.888 174.12C235.704 174.12 236.39 174.317 236.944 174.712C237.499 175.107 237.918 175.648 238.2 176.336C238.488 177.024 238.632 177.803 238.632 178.672C238.632 179.531 238.488 180.307 238.2 181C237.918 181.688 237.499 182.235 236.944 182.64C236.39 183.04 235.707 183.24 234.896 183.24ZM235.072 181.936C235.654 181.936 236.131 181.797 236.504 181.52C236.878 181.237 237.152 180.851 237.328 180.36C237.51 179.864 237.6 179.301 237.6 178.672C237.6 178.032 237.51 177.469 237.328 176.984C237.152 176.493 236.88 176.112 236.512 175.84C236.144 175.563 235.678 175.424 235.112 175.424C234.526 175.424 234.04 175.568 233.656 175.856C233.278 176.144 232.995 176.533 232.808 177.024C232.627 177.515 232.536 178.064 232.536 178.672C232.536 179.285 232.63 179.84 232.816 180.336C233.003 180.827 233.283 181.216 233.656 181.504C234.035 181.792 234.507 181.936 235.072 181.936ZM244.522 183.24C243.674 183.24 242.933 183.053 242.298 182.68C241.669 182.301 241.178 181.776 240.826 181.104C240.474 180.427 240.298 179.637 240.298 178.736C240.298 177.792 240.471 176.976 240.818 176.288C241.165 175.595 241.647 175.061 242.266 174.688C242.89 174.309 243.621 174.12 244.458 174.12C245.327 174.12 246.066 174.32 246.674 174.72C247.287 175.12 247.746 175.691 248.05 176.432C248.359 177.173 248.493 178.056 248.45 179.08H247.01V178.568C246.994 177.507 246.778 176.715 246.362 176.192C245.946 175.664 245.327 175.4 244.506 175.4C243.626 175.4 242.957 175.683 242.498 176.248C242.039 176.813 241.81 177.624 241.81 178.68C241.81 179.699 242.039 180.488 242.498 181.048C242.957 181.608 243.61 181.888 244.458 181.888C245.029 181.888 245.525 181.757 245.946 181.496C246.367 181.235 246.698 180.859 246.938 180.368L248.306 180.84C247.97 181.603 247.463 182.195 246.786 182.616C246.114 183.032 245.359 183.24 244.522 183.24ZM241.33 179.08V177.936H247.714V179.08H241.33ZM255.25 183.24C254.605 183.24 254.064 183.123 253.626 182.888C253.194 182.648 252.866 182.333 252.642 181.944C252.424 181.555 252.314 181.128 252.314 180.664C252.314 180.211 252.4 179.819 252.57 179.488C252.746 179.152 252.992 178.875 253.306 178.656C253.621 178.432 253.997 178.256 254.434 178.128C254.845 178.016 255.304 177.92 255.81 177.84C256.322 177.755 256.84 177.677 257.362 177.608C257.885 177.539 258.373 177.472 258.826 177.408L258.314 177.704C258.33 176.936 258.176 176.368 257.85 176C257.53 175.632 256.976 175.448 256.186 175.448C255.664 175.448 255.205 175.568 254.81 175.808C254.421 176.043 254.146 176.427 253.986 176.96L252.634 176.552C252.842 175.795 253.245 175.2 253.842 174.768C254.44 174.336 255.226 174.12 256.202 174.12C256.986 174.12 257.658 174.261 258.218 174.544C258.784 174.821 259.189 175.243 259.434 175.808C259.557 176.075 259.634 176.365 259.666 176.68C259.698 176.989 259.714 177.315 259.714 177.656V183H258.45V180.928L258.746 181.12C258.421 181.819 257.965 182.347 257.378 182.704C256.797 183.061 256.088 183.24 255.25 183.24ZM255.466 182.048C255.978 182.048 256.421 181.957 256.794 181.776C257.173 181.589 257.477 181.347 257.706 181.048C257.936 180.744 258.085 180.413 258.154 180.056C258.234 179.789 258.277 179.493 258.282 179.168C258.293 178.837 258.298 178.584 258.298 178.408L258.794 178.624C258.33 178.688 257.874 178.749 257.426 178.808C256.978 178.867 256.554 178.931 256.154 179C255.754 179.064 255.394 179.141 255.074 179.232C254.84 179.307 254.618 179.403 254.41 179.52C254.208 179.637 254.042 179.789 253.914 179.976C253.792 180.157 253.73 180.384 253.73 180.656C253.73 180.891 253.789 181.115 253.906 181.328C254.029 181.541 254.216 181.715 254.466 181.848C254.722 181.981 255.056 182.048 255.466 182.048ZM264.738 183.232C263.709 183.232 262.864 183.008 262.202 182.56C261.546 182.107 261.144 181.475 260.994 180.664L262.45 180.432C262.568 180.901 262.837 181.275 263.258 181.552C263.68 181.824 264.202 181.96 264.826 181.96C265.418 181.96 265.882 181.837 266.218 181.592C266.554 181.347 266.722 181.013 266.722 180.592C266.722 180.347 266.666 180.149 266.554 180C266.442 179.845 266.21 179.701 265.858 179.568C265.512 179.435 264.986 179.275 264.282 179.088C263.52 178.885 262.92 178.675 262.482 178.456C262.045 178.237 261.733 177.984 261.546 177.696C261.36 177.408 261.266 177.059 261.266 176.648C261.266 176.141 261.405 175.699 261.682 175.32C261.96 174.936 262.346 174.64 262.842 174.432C263.344 174.224 263.925 174.12 264.586 174.12C265.242 174.12 265.829 174.224 266.346 174.432C266.864 174.64 267.28 174.936 267.594 175.32C267.914 175.699 268.104 176.141 268.162 176.648L266.706 176.912C266.637 176.448 266.413 176.083 266.034 175.816C265.661 175.549 265.178 175.408 264.586 175.392C264.026 175.371 263.57 175.469 263.218 175.688C262.872 175.907 262.698 176.203 262.698 176.576C262.698 176.784 262.762 176.963 262.89 177.112C263.024 177.261 263.266 177.403 263.618 177.536C263.976 177.669 264.493 177.821 265.17 177.992C265.933 178.184 266.533 178.395 266.97 178.624C267.413 178.848 267.728 179.115 267.914 179.424C268.101 179.728 268.194 180.104 268.194 180.552C268.194 181.384 267.888 182.04 267.274 182.52C266.661 182.995 265.816 183.232 264.738 183.232ZM5.512 213.24C4.70667 213.24 4.016 213.04 3.44 212.64C2.864 212.235 2.41867 211.688 2.104 211C1.79467 210.312 1.64 209.536 1.64 208.672C1.64 207.808 1.79467 207.032 2.104 206.344C2.41867 205.656 2.864 205.115 3.44 204.72C4.016 204.32 4.704 204.12 5.504 204.12C6.32 204.12 7.00533 204.317 7.56 204.712C8.11467 205.107 8.53333 205.648 8.816 206.336C9.104 207.024 9.248 207.803 9.248 208.672C9.248 209.531 9.104 210.307 8.816 211C8.53333 211.688 8.11467 212.235 7.56 212.64C7.00533 213.04 6.32267 213.24 5.512 213.24ZM5.688 211.936C6.26933 211.936 6.74667 211.797 7.12 211.52C7.49333 211.237 7.768 210.851 7.944 210.36C8.12533 209.864 8.216 209.301 8.216 208.672C8.216 208.032 8.12533 207.469 7.944 206.984C7.768 206.493 7.496 206.112 7.128 205.84C6.76 205.563 6.29333 205.424 5.728 205.424C5.14133 205.424 4.656 205.568 4.272 205.856C3.89333 206.144 3.61067 206.533 3.424 207.024C3.24267 207.515 3.152 208.064 3.152 208.672C3.152 209.285 3.24533 209.84 3.432 210.336C3.61867 210.827 3.89867 211.216 4.272 211.504C4.65067 211.792 5.12267 211.936 5.688 211.936ZM8.216 213V206.64H8.056V201.48H9.488V213H8.216ZM15.1534 213.24C14.3054 213.24 13.564 213.053 12.9294 212.68C12.3 212.301 11.8094 211.776 11.4574 211.104C11.1054 210.427 10.9294 209.637 10.9294 208.736C10.9294 207.792 11.1027 206.976 11.4494 206.288C11.796 205.595 12.2787 205.061 12.8974 204.688C13.5214 204.309 14.252 204.12 15.0894 204.12C15.9587 204.12 16.6974 204.32 17.3054 204.72C17.9187 205.12 18.3774 205.691 18.6814 206.432C18.9907 207.173 19.124 208.056 19.0814 209.08H17.6414V208.568C17.6254 207.507 17.4094 206.715 16.9934 206.192C16.5774 205.664 15.9587 205.4 15.1374 205.4C14.2574 205.4 13.588 205.683 13.1294 206.248C12.6707 206.813 12.4414 207.624 12.4414 208.68C12.4414 209.699 12.6707 210.488 13.1294 211.048C13.588 211.608 14.2414 211.888 15.0894 211.888C15.66 211.888 16.156 211.757 16.5774 211.496C16.9987 211.235 17.3294 210.859 17.5694 210.368L18.9374 210.84C18.6014 211.603 18.0947 212.195 17.4174 212.616C16.7454 213.032 15.9907 213.24 15.1534 213.24ZM11.9614 209.08V207.936H18.3454V209.08H11.9614ZM20.7025 213V201.24H22.1265V213H20.7025ZM24.3669 202.832V201.36H25.7909V202.832H24.3669ZM24.3669 213V204.36H25.7909V213H24.3669ZM31.3672 217.08C30.9139 217.08 30.4712 217.011 30.0392 216.872C29.6072 216.733 29.2099 216.523 28.8472 216.24C28.4899 215.963 28.1912 215.611 27.9512 215.184L29.2552 214.496C29.4686 214.917 29.7699 215.224 30.1592 215.416C30.5539 215.608 30.9592 215.704 31.3752 215.704C31.9246 215.704 32.3806 215.603 32.7432 215.4C33.1059 215.203 33.3726 214.907 33.5432 214.512C33.7192 214.117 33.8046 213.627 33.7992 213.04V210.68H33.9672V204.36H35.2312V213.056C35.2312 213.291 35.2232 213.517 35.2072 213.736C35.1966 213.955 35.1699 214.171 35.1272 214.384C35.0152 214.997 34.7939 215.501 34.4632 215.896C34.1326 216.296 33.7059 216.592 33.1832 216.784C32.6606 216.981 32.0552 217.08 31.3672 217.08ZM31.2632 213.24C30.4579 213.24 29.7672 213.04 29.1912 212.64C28.6152 212.235 28.1699 211.688 27.8552 211C27.5459 210.312 27.3912 209.536 27.3912 208.672C27.3912 207.808 27.5459 207.032 27.8552 206.344C28.1699 205.656 28.6152 205.115 29.1912 204.72C29.7672 204.32 30.4552 204.12 31.2552 204.12C32.0712 204.12 32.7566 204.317 33.3112 204.712C33.8659 205.107 34.2846 205.648 34.5672 206.336C34.8552 207.024 34.9992 207.803 34.9992 208.672C34.9992 209.531 34.8552 210.307 34.5672 211C34.2846 211.688 33.8659 212.235 33.3112 212.64C32.7566 213.04 32.0739 213.24 31.2632 213.24ZM31.4392 211.936C32.0206 211.936 32.4979 211.797 32.8712 211.52C33.2446 211.237 33.5192 210.851 33.6952 210.36C33.8766 209.864 33.9672 209.301 33.9672 208.672C33.9672 208.032 33.8766 207.469 33.6952 206.984C33.5192 206.493 33.2472 206.112 32.8792 205.84C32.5112 205.563 32.0446 205.424 31.4792 205.424C30.8926 205.424 30.4072 205.568 30.0232 205.856C29.6446 206.144 29.3619 206.533 29.1752 207.024C28.9939 207.515 28.9032 208.064 28.9032 208.672C28.9032 209.285 28.9966 209.84 29.1832 210.336C29.3699 210.827 29.6499 211.216 30.0232 211.504C30.4019 211.792 30.8739 211.936 31.4392 211.936ZM43.297 213V208.672C43.297 208.261 43.2597 207.867 43.185 207.488C43.1157 207.109 42.9903 206.771 42.809 206.472C42.633 206.168 42.393 205.928 42.089 205.752C41.7903 205.576 41.4117 205.488 40.953 205.488C40.5957 205.488 40.2703 205.549 39.977 205.672C39.689 205.789 39.441 205.971 39.233 206.216C39.025 206.461 38.8623 206.771 38.745 207.144C38.633 207.512 38.577 207.947 38.577 208.448L37.641 208.16C37.641 207.323 37.7903 206.605 38.089 206.008C38.393 205.405 38.817 204.944 39.361 204.624C39.9103 204.299 40.5557 204.136 41.297 204.136C41.857 204.136 42.3343 204.224 42.729 204.4C43.1237 204.576 43.4517 204.811 43.713 205.104C43.9743 205.392 44.1797 205.717 44.329 206.08C44.4783 206.437 44.5823 206.803 44.641 207.176C44.705 207.544 44.737 207.893 44.737 208.224V213H43.297ZM37.137 213V201.48H38.417V207.84H38.577V213H37.137ZM51.3209 213C50.8089 213.101 50.3022 213.141 49.8009 213.12C49.3049 213.104 48.8622 213.005 48.4729 212.824C48.0835 212.637 47.7875 212.349 47.5849 211.96C47.4142 211.619 47.3209 211.275 47.3049 210.928C47.2942 210.576 47.2889 210.179 47.2889 209.736V201.96H48.7129V209.672C48.7129 210.024 48.7155 210.325 48.7209 210.576C48.7315 210.827 48.7875 211.043 48.8889 211.224C49.0809 211.565 49.3849 211.765 49.8009 211.824C50.2222 211.883 50.7289 211.867 51.3209 211.776V213ZM45.5369 205.536V204.36H51.3209V205.536H45.5369ZM53.011 213V211.432H54.579V213H53.011Z" fill="#64607D"/>
<rect y="13" width="64" height="64" rx="20" fill="white"/>
<rect x="20" y="33" width="23" height="23" rx="10" fill="#C4C4C4"/>
</svg>
