<svg width="280" height="222" viewBox="0 0 280 222" fill="none" xmlns="http://www.w3.org/2000/svg">
<path opacity="0.05" d="M258.96 43.964L235.092 73.34C244.34 76.196 251.684 81.16 257.124 88.232C262.7 95.168 265.488 103.464 265.488 113.12C265.488 128.352 260.456 140.184 250.392 148.616C240.464 156.912 228.02 161.06 213.06 161.06C200.956 161.06 190.348 158.34 181.236 152.9C172.124 147.324 165.596 139.3 161.652 128.828L193.476 110.672C196.468 120.6 202.996 125.564 213.06 125.564C218.228 125.564 222.172 124.34 224.892 121.892C227.748 119.444 229.176 116.18 229.176 112.1C229.176 108.02 227.748 104.824 224.892 102.512C222.172 100.064 218.228 98.84 213.06 98.84H205.308L191.232 78.032L214.08 50.084H166.14V15.2H258.96V43.964Z" fill="black"/>
<path d="M2.12 122V110.48H6.984C7.096 110.48 7.24533 110.485 7.432 110.496C7.624 110.501 7.79467 110.517 7.944 110.544C8.632 110.651 9.19467 110.877 9.632 111.224C10.0747 111.571 10.4 112.008 10.608 112.536C10.816 113.059 10.92 113.643 10.92 114.288C10.92 114.933 10.8133 115.52 10.6 116.048C10.392 116.571 10.0667 117.005 9.624 117.352C9.18667 117.699 8.62667 117.925 7.944 118.032C7.79467 118.053 7.624 118.069 7.432 118.08C7.24 118.091 7.09067 118.096 6.984 118.096H4.296V122H2.12ZM4.296 116.064H6.888C7 116.064 7.12267 116.059 7.256 116.048C7.38933 116.037 7.512 116.016 7.624 115.984C7.91733 115.904 8.144 115.771 8.304 115.584C8.464 115.392 8.57333 115.181 8.632 114.952C8.696 114.717 8.728 114.496 8.728 114.288C8.728 114.08 8.696 113.861 8.632 113.632C8.57333 113.397 8.464 113.187 8.304 113C8.144 112.808 7.91733 112.672 7.624 112.592C7.512 112.56 7.38933 112.539 7.256 112.528C7.12267 112.517 7 112.512 6.888 112.512H4.296V116.064ZM12.0463 122V113.36H13.9663V115.472L13.7583 115.2C13.8703 114.901 14.0196 114.629 14.2063 114.384C14.3929 114.139 14.6223 113.936 14.8943 113.776C15.1023 113.648 15.3289 113.549 15.5743 113.48C15.8196 113.405 16.0729 113.36 16.3343 113.344C16.5956 113.323 16.8569 113.328 17.1183 113.36V115.392C16.8783 115.317 16.5983 115.293 16.2783 115.32C15.9636 115.341 15.6783 115.413 15.4223 115.536C15.1663 115.653 14.9503 115.811 14.7743 116.008C14.5983 116.2 14.4649 116.429 14.3743 116.696C14.2836 116.957 14.2383 117.253 14.2383 117.584V122H12.0463ZM21.8918 122.24C21.0224 122.24 20.2598 122.045 19.6037 121.656C18.9478 121.267 18.4358 120.731 18.0677 120.048C17.7051 119.36 17.5238 118.571 17.5238 117.68C17.5238 116.779 17.7104 115.987 18.0838 115.304C18.4571 114.616 18.9718 114.08 19.6278 113.696C20.2838 113.312 21.0384 113.12 21.8918 113.12C22.7611 113.12 23.5238 113.315 24.1798 113.704C24.8411 114.093 25.3558 114.632 25.7238 115.32C26.0918 116.003 26.2758 116.789 26.2758 117.68C26.2758 118.576 26.0891 119.368 25.7158 120.056C25.3478 120.739 24.8331 121.275 24.1718 121.664C23.5158 122.048 22.7558 122.24 21.8918 122.24ZM21.8918 120.208C22.5904 120.208 23.1104 119.973 23.4518 119.504C23.7984 119.029 23.9718 118.421 23.9718 117.68C23.9718 116.912 23.7958 116.299 23.4438 115.84C23.0971 115.381 22.5798 115.152 21.8918 115.152C21.4171 115.152 21.0278 115.259 20.7238 115.472C20.4198 115.685 20.1931 115.981 20.0438 116.36C19.8998 116.739 19.8278 117.179 19.8278 117.68C19.8278 118.453 20.0011 119.069 20.3478 119.528C20.6998 119.981 21.2144 120.208 21.8918 120.208ZM26.275 125.84V123.808H26.659C27.155 123.808 27.4937 123.696 27.675 123.472C27.8617 123.248 27.955 122.928 27.955 122.512V113.36H30.131V123.568C30.131 124.256 29.915 124.805 29.483 125.216C29.0563 125.632 28.4777 125.84 27.747 125.84H26.275ZM27.955 112.16V110.24H30.131V112.16H27.955ZM35.9035 122.24C35.0182 122.24 34.2368 122.051 33.5595 121.672C32.8875 121.288 32.3595 120.763 31.9755 120.096C31.5968 119.424 31.4075 118.656 31.4075 117.792C31.4075 116.848 31.5942 116.027 31.9675 115.328C32.3408 114.629 32.8555 114.088 33.5115 113.704C34.1675 113.315 34.9222 113.12 35.7755 113.12C36.6822 113.12 37.4528 113.333 38.0875 113.76C38.7222 114.187 39.1915 114.787 39.4955 115.56C39.7995 116.333 39.9062 117.243 39.8155 118.288H37.6635V117.488C37.6635 116.608 37.5222 115.976 37.2395 115.592C36.9622 115.203 36.5062 115.008 35.8715 115.008C35.1302 115.008 34.5835 115.235 34.2315 115.688C33.8848 116.136 33.7115 116.8 33.7115 117.68C33.7115 118.485 33.8848 119.109 34.2315 119.552C34.5835 119.989 35.0982 120.208 35.7755 120.208C36.2022 120.208 36.5675 120.115 36.8715 119.928C37.1755 119.741 37.4075 119.472 37.5675 119.12L39.7435 119.744C39.4182 120.533 38.9035 121.147 38.1995 121.584C37.5008 122.021 36.7355 122.24 35.9035 122.24ZM33.0395 118.288V116.672H38.7675V118.288H33.0395ZM44.9499 122.24C44.0539 122.24 43.2859 122.04 42.6459 121.64C42.0059 121.24 41.5152 120.696 41.1739 120.008C40.8325 119.32 40.6619 118.544 40.6619 117.68C40.6619 116.805 40.8379 116.024 41.1899 115.336C41.5472 114.648 42.0485 114.107 42.6939 113.712C43.3392 113.317 44.1019 113.12 44.9819 113.12C46.0005 113.12 46.8539 113.379 47.5419 113.896C48.2352 114.408 48.6779 115.109 48.8699 116L46.6939 116.576C46.5659 116.128 46.3419 115.779 46.0219 115.528C45.7072 115.277 45.3499 115.152 44.9499 115.152C44.4912 115.152 44.1152 115.264 43.8219 115.488C43.5285 115.707 43.3125 116.008 43.1739 116.392C43.0352 116.771 42.9659 117.2 42.9659 117.68C42.9659 118.432 43.1312 119.043 43.4619 119.512C43.7979 119.976 44.2939 120.208 44.9499 120.208C45.4405 120.208 45.8139 120.096 46.0699 119.872C46.3259 119.648 46.5179 119.328 46.6459 118.912L48.8699 119.376C48.6245 120.293 48.1605 121 47.4779 121.496C46.7952 121.992 45.9525 122.24 44.9499 122.24ZM55.174 122C54.5767 122.112 53.99 122.16 53.414 122.144C52.8433 122.133 52.3313 122.035 51.878 121.848C51.43 121.656 51.0887 121.349 50.854 120.928C50.6407 120.533 50.5287 120.133 50.518 119.728C50.5073 119.317 50.502 118.853 50.502 118.336V110.96H52.678V118.208C52.678 118.544 52.6807 118.848 52.686 119.12C52.6967 119.387 52.7527 119.6 52.854 119.76C53.046 120.064 53.3527 120.229 53.774 120.256C54.1953 120.283 54.662 120.261 55.174 120.192V122ZM49.03 115.04V113.36H55.174V115.04H49.03ZM59.3425 122V110.48H63.0705C63.1612 110.48 63.3478 110.483 63.6305 110.488C63.9132 110.493 64.1852 110.512 64.4465 110.544C65.3745 110.656 66.1612 110.979 66.8065 111.512C67.4518 112.045 67.9425 112.723 68.2785 113.544C68.6145 114.365 68.7825 115.264 68.7825 116.24C68.7825 117.216 68.6145 118.115 68.2785 118.936C67.9425 119.757 67.4518 120.435 66.8065 120.968C66.1612 121.501 65.3745 121.824 64.4465 121.936C64.1852 121.968 63.9132 121.987 63.6305 121.992C63.3478 121.997 63.1612 122 63.0705 122H59.3425ZM61.5505 119.952H63.0705C63.2145 119.952 63.4092 119.949 63.6545 119.944C63.8998 119.933 64.1212 119.909 64.3185 119.872C64.8198 119.771 65.2278 119.536 65.5425 119.168C65.8625 118.8 66.0972 118.357 66.2465 117.84C66.4012 117.323 66.4785 116.789 66.4785 116.24C66.4785 115.664 66.3985 115.117 66.2385 114.6C66.0838 114.083 65.8465 113.645 65.5265 113.288C65.2065 112.931 64.8038 112.704 64.3185 112.608C64.1212 112.565 63.8998 112.541 63.6545 112.536C63.4092 112.531 63.2145 112.528 63.0705 112.528H61.5505V119.952ZM70.3819 112.16V110.24H72.5579V112.16H70.3819ZM70.3819 122V113.36H72.5579V122H70.3819ZM77.8522 122.24C76.7642 122.24 75.8842 121.995 75.2122 121.504C74.5456 121.008 74.1402 120.309 73.9962 119.408L76.2202 119.072C76.3109 119.477 76.5109 119.795 76.8202 120.024C77.1349 120.253 77.5322 120.368 78.0122 120.368C78.4069 120.368 78.7109 120.293 78.9242 120.144C79.1376 119.989 79.2442 119.776 79.2442 119.504C79.2442 119.333 79.2016 119.197 79.1162 119.096C79.0309 118.989 78.8389 118.885 78.5402 118.784C78.2469 118.683 77.7882 118.549 77.1642 118.384C76.4602 118.203 75.8976 118 75.4762 117.776C75.0549 117.552 74.7509 117.285 74.5642 116.976C74.3776 116.661 74.2842 116.283 74.2842 115.84C74.2842 115.285 74.4256 114.805 74.7082 114.4C74.9909 113.989 75.3882 113.675 75.9002 113.456C76.4176 113.232 77.0256 113.12 77.7242 113.12C78.4016 113.12 79.0016 113.224 79.5242 113.432C80.0469 113.64 80.4682 113.936 80.7882 114.32C81.1136 114.704 81.3136 115.157 81.3882 115.68L79.1642 116.08C79.1269 115.76 78.9882 115.507 78.7482 115.32C78.5082 115.133 78.1829 115.024 77.7722 114.992C77.3722 114.965 77.0496 115.019 76.8042 115.152C76.5642 115.285 76.4442 115.477 76.4442 115.728C76.4442 115.877 76.4949 116.003 76.5962 116.104C76.7029 116.205 76.9189 116.309 77.2442 116.416C77.5749 116.523 78.0762 116.661 78.7482 116.832C79.4042 117.003 79.9296 117.203 80.3242 117.432C80.7242 117.656 81.0149 117.928 81.1962 118.248C81.3776 118.563 81.4682 118.944 81.4682 119.392C81.4682 120.277 81.1482 120.973 80.5082 121.48C79.8682 121.987 78.9829 122.24 77.8522 122.24ZM86.5543 122.24C85.6583 122.24 84.8903 122.04 84.2503 121.64C83.6103 121.24 83.1196 120.696 82.7783 120.008C82.4369 119.32 82.2663 118.544 82.2663 117.68C82.2663 116.805 82.4423 116.024 82.7943 115.336C83.1516 114.648 83.6529 114.107 84.2983 113.712C84.9436 113.317 85.7063 113.12 86.5863 113.12C87.6049 113.12 88.4583 113.379 89.1463 113.896C89.8396 114.408 90.2823 115.109 90.4743 116L88.2983 116.576C88.1703 116.128 87.9463 115.779 87.6263 115.528C87.3116 115.277 86.9543 115.152 86.5543 115.152C86.0956 115.152 85.7196 115.264 85.4263 115.488C85.1329 115.707 84.9169 116.008 84.7783 116.392C84.6396 116.771 84.5703 117.2 84.5703 117.68C84.5703 118.432 84.7356 119.043 85.0663 119.512C85.4023 119.976 85.8983 120.208 86.5543 120.208C87.0449 120.208 87.4183 120.096 87.6743 119.872C87.9303 119.648 88.1223 119.328 88.2503 118.912L90.4743 119.376C90.2289 120.293 89.7649 121 89.0823 121.496C88.3996 121.992 87.5569 122.24 86.5543 122.24ZM95.248 122.24C94.3787 122.24 93.616 122.045 92.96 121.656C92.304 121.267 91.792 120.731 91.424 120.048C91.0613 119.36 90.88 118.571 90.88 117.68C90.88 116.779 91.0667 115.987 91.44 115.304C91.8133 114.616 92.328 114.08 92.984 113.696C93.64 113.312 94.3947 113.12 95.248 113.12C96.1173 113.12 96.88 113.315 97.536 113.704C98.1973 114.093 98.712 114.632 99.08 115.32C99.448 116.003 99.632 116.789 99.632 117.68C99.632 118.576 99.4453 119.368 99.072 120.056C98.704 120.739 98.1893 121.275 97.528 121.664C96.872 122.048 96.112 122.24 95.248 122.24ZM95.248 120.208C95.9467 120.208 96.4667 119.973 96.808 119.504C97.1547 119.029 97.328 118.421 97.328 117.68C97.328 116.912 97.152 116.299 96.8 115.84C96.4533 115.381 95.936 115.152 95.248 115.152C94.7733 115.152 94.384 115.259 94.08 115.472C93.776 115.685 93.5493 115.981 93.4 116.36C93.256 116.739 93.184 117.179 93.184 117.68C93.184 118.453 93.3573 119.069 93.704 119.528C94.056 119.981 94.5707 120.208 95.248 120.208ZM102.935 122L99.7988 113.36H101.975L104.023 119.344L106.071 113.36H108.247L105.111 122H102.935ZM112.916 122.24C112.031 122.24 111.249 122.051 110.572 121.672C109.9 121.288 109.372 120.763 108.988 120.096C108.609 119.424 108.42 118.656 108.42 117.792C108.42 116.848 108.607 116.027 108.98 115.328C109.353 114.629 109.868 114.088 110.524 113.704C111.18 113.315 111.935 113.12 112.788 113.12C113.695 113.12 114.465 113.333 115.1 113.76C115.735 114.187 116.204 114.787 116.508 115.56C116.812 116.333 116.919 117.243 116.828 118.288H114.676V117.488C114.676 116.608 114.535 115.976 114.252 115.592C113.975 115.203 113.519 115.008 112.884 115.008C112.143 115.008 111.596 115.235 111.244 115.688C110.897 116.136 110.724 116.8 110.724 117.68C110.724 118.485 110.897 119.109 111.244 119.552C111.596 119.989 112.111 120.208 112.788 120.208C113.215 120.208 113.58 120.115 113.884 119.928C114.188 119.741 114.42 119.472 114.58 119.12L116.756 119.744C116.431 120.533 115.916 121.147 115.212 121.584C114.513 122.021 113.748 122.24 112.916 122.24ZM110.052 118.288V116.672H115.78V118.288H110.052ZM118.154 122V113.36H120.074V115.472L119.866 115.2C119.978 114.901 120.128 114.629 120.314 114.384C120.501 114.139 120.73 113.936 121.002 113.776C121.21 113.648 121.437 113.549 121.682 113.48C121.928 113.405 122.181 113.36 122.442 113.344C122.704 113.323 122.965 113.328 123.226 113.36V115.392C122.986 115.317 122.706 115.293 122.386 115.32C122.072 115.341 121.786 115.413 121.53 115.536C121.274 115.653 121.058 115.811 120.882 116.008C120.706 116.2 120.573 116.429 120.482 116.696C120.392 116.957 120.346 117.253 120.346 117.584V122H118.154ZM125.06 125.84L126.724 121.264L126.756 122.608L122.996 113.36H125.252L127.78 119.904H127.268L129.78 113.36H131.956L127.076 125.84H125.06ZM140.268 122.24C139.116 122.24 138.121 121.989 137.284 121.488C136.452 120.987 135.809 120.285 135.356 119.384C134.908 118.483 134.684 117.435 134.684 116.24C134.684 115.045 134.908 113.997 135.356 113.096C135.809 112.195 136.452 111.493 137.284 110.992C138.121 110.491 139.116 110.24 140.268 110.24C141.59 110.24 142.7 110.568 143.596 111.224C144.497 111.88 145.132 112.768 145.5 113.888L143.308 114.496C143.094 113.797 142.734 113.256 142.228 112.872C141.721 112.483 141.068 112.288 140.268 112.288C139.537 112.288 138.926 112.451 138.436 112.776C137.95 113.101 137.585 113.56 137.34 114.152C137.094 114.744 136.972 115.44 136.972 116.24C136.972 117.04 137.094 117.736 137.34 118.328C137.585 118.92 137.95 119.379 138.436 119.704C138.926 120.029 139.537 120.192 140.268 120.192C141.068 120.192 141.721 119.997 142.228 119.608C142.734 119.219 143.094 118.677 143.308 117.984L145.5 118.592C145.132 119.712 144.497 120.6 143.596 121.256C142.7 121.912 141.59 122.24 140.268 122.24ZM149.181 122.24C148.563 122.24 148.037 122.123 147.605 121.888C147.179 121.648 146.853 121.331 146.629 120.936C146.411 120.536 146.301 120.096 146.301 119.616C146.301 119.216 146.363 118.851 146.485 118.52C146.608 118.189 146.805 117.899 147.077 117.648C147.355 117.392 147.725 117.179 148.189 117.008C148.509 116.891 148.891 116.787 149.333 116.696C149.776 116.605 150.277 116.52 150.837 116.44C151.397 116.355 152.013 116.261 152.685 116.16L151.901 116.592C151.901 116.08 151.779 115.704 151.533 115.464C151.288 115.224 150.877 115.104 150.301 115.104C149.981 115.104 149.648 115.181 149.301 115.336C148.955 115.491 148.712 115.765 148.573 116.16L146.605 115.536C146.824 114.821 147.235 114.24 147.837 113.792C148.44 113.344 149.261 113.12 150.301 113.12C151.064 113.12 151.741 113.237 152.333 113.472C152.925 113.707 153.373 114.112 153.677 114.688C153.848 115.008 153.949 115.328 153.981 115.648C154.013 115.968 154.029 116.325 154.029 116.72V122H152.125V120.224L152.397 120.592C151.976 121.173 151.52 121.595 151.029 121.856C150.544 122.112 149.928 122.24 149.181 122.24ZM149.645 120.528C150.045 120.528 150.381 120.459 150.653 120.32C150.931 120.176 151.149 120.013 151.309 119.832C151.475 119.651 151.587 119.499 151.645 119.376C151.757 119.141 151.821 118.869 151.837 118.56C151.859 118.245 151.869 117.984 151.869 117.776L152.509 117.936C151.864 118.043 151.341 118.133 150.941 118.208C150.541 118.277 150.219 118.341 149.973 118.4C149.728 118.459 149.512 118.523 149.325 118.592C149.112 118.677 148.939 118.771 148.805 118.872C148.677 118.968 148.581 119.075 148.517 119.192C148.459 119.309 148.429 119.44 148.429 119.584C148.429 119.781 148.477 119.952 148.573 120.096C148.675 120.235 148.816 120.341 148.997 120.416C149.179 120.491 149.395 120.528 149.645 120.528ZM155.789 122V110.24H157.965V122H155.789ZM160.044 122V110.24H162.22V122H160.044Z" fill="black"/>
<path d="M2.12 153V141.48H8.84V142.904H3.544V146.528H7.88V147.952H3.544V153H2.12ZM9.95625 153V144.36H11.2283V146.448L11.0202 146.176C11.1216 145.909 11.2523 145.664 11.4123 145.44C11.5776 145.216 11.7616 145.032 11.9643 144.888C12.1883 144.707 12.4416 144.568 12.7243 144.472C13.0069 144.376 13.2949 144.32 13.5883 144.304C13.8816 144.283 14.1563 144.301 14.4123 144.36V145.696C14.1136 145.616 13.7856 145.595 13.4282 145.632C13.0709 145.669 12.7403 145.8 12.4362 146.024C12.1589 146.221 11.9429 146.461 11.7882 146.744C11.6389 147.027 11.5349 147.333 11.4762 147.664C11.4176 147.989 11.3882 148.323 11.3882 148.664V153H9.95625ZM19.1287 153.24C18.2701 153.24 17.5287 153.045 16.9047 152.656C16.2861 152.267 15.8087 151.728 15.4727 151.04C15.1367 150.352 14.9687 149.563 14.9687 148.672C14.9687 147.765 15.1394 146.971 15.4807 146.288C15.8221 145.605 16.3047 145.075 16.9287 144.696C17.5527 144.312 18.2861 144.12 19.1287 144.12C19.9927 144.12 20.7367 144.315 21.3608 144.704C21.9848 145.088 22.4621 145.624 22.7928 146.312C23.1288 146.995 23.2968 147.781 23.2968 148.672C23.2968 149.573 23.1288 150.368 22.7928 151.056C22.4568 151.739 21.9768 152.275 21.3527 152.664C20.7287 153.048 19.9874 153.24 19.1287 153.24ZM19.1287 151.888C20.0247 151.888 20.6914 151.589 21.1287 150.992C21.5661 150.395 21.7847 149.621 21.7847 148.672C21.7847 147.696 21.5634 146.92 21.1207 146.344C20.6781 145.763 20.0141 145.472 19.1287 145.472C18.5261 145.472 18.0301 145.608 17.6407 145.88C17.2514 146.152 16.9607 146.528 16.7687 147.008C16.5767 147.488 16.4807 148.043 16.4807 148.672C16.4807 149.643 16.7047 150.421 17.1527 151.008C17.6007 151.595 18.2594 151.888 19.1287 151.888ZM35.0661 153L35.0741 147.472C35.0741 146.827 34.9008 146.323 34.5541 145.96C34.2128 145.592 33.7675 145.408 33.2181 145.408C32.8981 145.408 32.5941 145.483 32.3061 145.632C32.0181 145.776 31.7835 146.005 31.6021 146.32C31.4208 146.629 31.3301 147.027 31.3301 147.512L30.5781 147.208C30.5675 146.595 30.6928 146.059 30.9541 145.6C31.2208 145.136 31.5835 144.776 32.0421 144.52C32.5008 144.264 33.0181 144.136 33.5941 144.136C34.4955 144.136 35.2048 144.411 35.7221 144.96C36.2395 145.504 36.4981 146.237 36.4981 147.16L36.4901 153H35.0661ZM24.7301 153V144.36H26.0021V146.672H26.1621V153H24.7301ZM29.9061 153L29.9141 147.528C29.9141 146.867 29.7435 146.349 29.4021 145.976C29.0608 145.597 28.6075 145.408 28.0421 145.408C27.4821 145.408 27.0288 145.6 26.6821 145.984C26.3355 146.368 26.1621 146.877 26.1621 147.512L25.4101 147.064C25.4101 146.504 25.5435 146.003 25.8101 145.56C26.0768 145.117 26.4395 144.771 26.8981 144.52C27.3568 144.264 27.8768 144.136 28.4581 144.136C29.0395 144.136 29.5461 144.259 29.9781 144.504C30.4101 144.749 30.7435 145.101 30.9781 145.56C31.2128 146.013 31.3301 146.555 31.3301 147.184L31.3221 153H29.9061ZM45.969 153C45.457 153.101 44.9503 153.141 44.449 153.12C43.953 153.104 43.5103 153.005 43.121 152.824C42.7317 152.637 42.4357 152.349 42.233 151.96C42.0623 151.619 41.969 151.275 41.953 150.928C41.9423 150.576 41.937 150.179 41.937 149.736V141.96H43.361V149.672C43.361 150.024 43.3637 150.325 43.369 150.576C43.3797 150.827 43.4357 151.043 43.537 151.224C43.729 151.565 44.033 151.765 44.449 151.824C44.8703 151.883 45.377 151.867 45.969 151.776V153ZM40.185 145.536V144.36H45.969V145.536H40.185ZM53.5551 153V148.672C53.5551 148.261 53.5178 147.867 53.4431 147.488C53.3738 147.109 53.2485 146.771 53.0671 146.472C52.8911 146.168 52.6511 145.928 52.3471 145.752C52.0485 145.576 51.6698 145.488 51.2111 145.488C50.8538 145.488 50.5285 145.549 50.2351 145.672C49.9471 145.789 49.6991 145.971 49.4911 146.216C49.2831 146.461 49.1205 146.771 49.0031 147.144C48.8911 147.512 48.8351 147.947 48.8351 148.448L47.8991 148.16C47.8991 147.323 48.0485 146.605 48.3471 146.008C48.6511 145.405 49.0751 144.944 49.6191 144.624C50.1685 144.299 50.8138 144.136 51.5551 144.136C52.1151 144.136 52.5925 144.224 52.9871 144.4C53.3818 144.576 53.7098 144.811 53.9711 145.104C54.2325 145.392 54.4378 145.717 54.5871 146.08C54.7365 146.437 54.8405 146.803 54.8991 147.176C54.9631 147.544 54.9951 147.893 54.9951 148.224V153H53.5551ZM47.3951 153V141.48H48.6751V147.84H48.8351V153H47.3951ZM60.499 153.24C59.651 153.24 58.9097 153.053 58.275 152.68C57.6457 152.301 57.155 151.776 56.803 151.104C56.451 150.427 56.275 149.637 56.275 148.736C56.275 147.792 56.4483 146.976 56.795 146.288C57.1417 145.595 57.6243 145.061 58.243 144.688C58.867 144.309 59.5977 144.12 60.435 144.12C61.3043 144.12 62.043 144.32 62.651 144.72C63.2643 145.12 63.723 145.691 64.027 146.432C64.3363 147.173 64.4697 148.056 64.427 149.08H62.987V148.568C62.971 147.507 62.755 146.715 62.339 146.192C61.923 145.664 61.3043 145.4 60.483 145.4C59.603 145.4 58.9337 145.683 58.475 146.248C58.0163 146.813 57.787 147.624 57.787 148.68C57.787 149.699 58.0163 150.488 58.475 151.048C58.9337 151.608 59.587 151.888 60.435 151.888C61.0057 151.888 61.5017 151.757 61.923 151.496C62.3443 151.235 62.675 150.859 62.915 150.368L64.283 150.84C63.947 151.603 63.4403 152.195 62.763 152.616C62.091 153.032 61.3363 153.24 60.499 153.24ZM57.307 149.08V147.936H63.691V149.08H57.307ZM66.9319 156.84L68.6039 152.296L68.6279 153.64L64.8519 144.36H66.3479L69.3079 151.824H68.7959L71.5719 144.36H73.0199L68.3159 156.84H66.9319ZM77.7284 153V143.888C77.7284 143.664 77.739 143.437 77.7604 143.208C77.7817 142.973 77.8297 142.747 77.9044 142.528C77.979 142.304 78.1017 142.099 78.2724 141.912C78.4697 141.693 78.6857 141.539 78.9204 141.448C79.155 141.352 79.3924 141.293 79.6324 141.272C79.8777 141.251 80.1097 141.24 80.3284 141.24H81.4244V142.424H80.4084C79.987 142.424 79.6724 142.528 79.4644 142.736C79.2564 142.939 79.1524 143.248 79.1524 143.664V153H77.7284ZM76.2644 145.536V144.36H81.4244V145.536H76.2644ZM83.1044 142.832V141.36H84.5284V142.832H83.1044ZM83.1044 153V144.36H84.5284V153H83.1044ZM92.7676 153V148.672C92.7676 148.261 92.7303 147.867 92.6556 147.488C92.5863 147.109 92.461 146.771 92.2796 146.472C92.1036 146.168 91.8636 145.928 91.5596 145.752C91.261 145.576 90.8823 145.488 90.4236 145.488C90.0663 145.488 89.741 145.549 89.4476 145.672C89.1596 145.789 88.9116 145.971 88.7036 146.216C88.4956 146.461 88.333 146.771 88.2156 147.144C88.1036 147.512 88.0476 147.947 88.0476 148.448L87.1116 148.16C87.1116 147.323 87.261 146.605 87.5596 146.008C87.8636 145.405 88.2876 144.944 88.8316 144.624C89.381 144.299 90.0263 144.136 90.7676 144.136C91.3276 144.136 91.805 144.224 92.1996 144.4C92.5943 144.576 92.9223 144.811 93.1836 145.104C93.445 145.392 93.6503 145.717 93.7996 146.08C93.949 146.437 94.053 146.803 94.1116 147.176C94.1756 147.544 94.2076 147.893 94.2076 148.224V153H92.7676ZM86.6076 153V144.36H87.8876V146.672H88.0476V153H86.6076ZM99.6334 153.24C98.7854 153.24 98.044 153.053 97.4094 152.68C96.78 152.301 96.2894 151.776 95.9374 151.104C95.5854 150.427 95.4094 149.637 95.4094 148.736C95.4094 147.792 95.5827 146.976 95.9294 146.288C96.276 145.595 96.7587 145.061 97.3774 144.688C98.0014 144.309 98.732 144.12 99.5694 144.12C100.439 144.12 101.177 144.32 101.785 144.72C102.399 145.12 102.857 145.691 103.161 146.432C103.471 147.173 103.604 148.056 103.561 149.08H102.121V148.568C102.105 147.507 101.889 146.715 101.473 146.192C101.057 145.664 100.439 145.4 99.6174 145.4C98.7374 145.4 98.068 145.683 97.6094 146.248C97.1507 146.813 96.9214 147.624 96.9214 148.68C96.9214 149.699 97.1507 150.488 97.6094 151.048C98.068 151.608 98.7214 151.888 99.5694 151.888C100.14 151.888 100.636 151.757 101.057 151.496C101.479 151.235 101.809 150.859 102.049 150.368L103.417 150.84C103.081 151.603 102.575 152.195 101.897 152.616C101.225 153.032 100.471 153.24 99.6334 153.24ZM96.4414 149.08V147.936H102.825V149.08H96.4414ZM106.626 156.84V155.48H107.09C107.506 155.48 107.823 155.376 108.042 155.168C108.26 154.96 108.37 154.629 108.37 154.176V144.36H109.794V154.664C109.794 155.373 109.61 155.912 109.242 156.28C108.879 156.653 108.34 156.84 107.626 156.84H106.626ZM108.37 142.832V141.36H109.794V142.832H108.37ZM115.469 153.24C114.61 153.24 113.869 153.045 113.245 152.656C112.626 152.267 112.149 151.728 111.813 151.04C111.477 150.352 111.309 149.563 111.309 148.672C111.309 147.765 111.479 146.971 111.821 146.288C112.162 145.605 112.645 145.075 113.269 144.696C113.893 144.312 114.626 144.12 115.469 144.12C116.333 144.12 117.077 144.315 117.701 144.704C118.325 145.088 118.802 145.624 119.133 146.312C119.469 146.995 119.637 147.781 119.637 148.672C119.637 149.573 119.469 150.368 119.133 151.056C118.797 151.739 118.317 152.275 117.693 152.664C117.069 153.048 116.327 153.24 115.469 153.24ZM115.469 151.888C116.365 151.888 117.031 151.589 117.469 150.992C117.906 150.395 118.125 149.621 118.125 148.672C118.125 147.696 117.903 146.92 117.461 146.344C117.018 145.763 116.354 145.472 115.469 145.472C114.866 145.472 114.37 145.608 113.981 145.88C113.591 146.152 113.301 146.528 113.109 147.008C112.917 147.488 112.821 148.043 112.821 148.672C112.821 149.643 113.045 150.421 113.493 151.008C113.941 151.595 114.599 151.888 115.469 151.888ZM127.23 153V148.672C127.23 148.261 127.193 147.867 127.118 147.488C127.049 147.109 126.923 146.771 126.742 146.472C126.566 146.168 126.326 145.928 126.022 145.752C125.723 145.576 125.345 145.488 124.886 145.488C124.529 145.488 124.203 145.549 123.91 145.672C123.622 145.789 123.374 145.971 123.166 146.216C122.958 146.461 122.795 146.771 122.678 147.144C122.566 147.512 122.51 147.947 122.51 148.448L121.574 148.16C121.574 147.323 121.723 146.605 122.022 146.008C122.326 145.405 122.75 144.944 123.294 144.624C123.843 144.299 124.489 144.136 125.23 144.136C125.79 144.136 126.267 144.224 126.662 144.4C127.057 144.576 127.385 144.811 127.646 145.104C127.907 145.392 128.113 145.717 128.262 146.08C128.411 146.437 128.515 146.803 128.574 147.176C128.638 147.544 128.67 147.893 128.67 148.224V153H127.23ZM121.07 153V141.48H122.35V147.84H122.51V153H121.07ZM136.582 153V148.672C136.582 148.261 136.545 147.867 136.47 147.488C136.401 147.109 136.275 146.771 136.094 146.472C135.918 146.168 135.678 145.928 135.374 145.752C135.075 145.576 134.697 145.488 134.238 145.488C133.881 145.488 133.555 145.549 133.262 145.672C132.974 145.789 132.726 145.971 132.518 146.216C132.31 146.461 132.147 146.771 132.03 147.144C131.918 147.512 131.862 147.947 131.862 148.448L130.926 148.16C130.926 147.323 131.075 146.605 131.374 146.008C131.678 145.405 132.102 144.944 132.646 144.624C133.195 144.299 133.841 144.136 134.582 144.136C135.142 144.136 135.619 144.224 136.014 144.4C136.409 144.576 136.737 144.811 136.998 145.104C137.259 145.392 137.465 145.717 137.614 146.08C137.763 146.437 137.867 146.803 137.926 147.176C137.99 147.544 138.022 147.893 138.022 148.224V153H136.582ZM130.422 153V144.36H131.702V146.672H131.862V153H130.422ZM148.817 153V148.672C148.817 148.261 148.78 147.867 148.705 147.488C148.636 147.109 148.51 146.771 148.329 146.472C148.153 146.168 147.913 145.928 147.609 145.752C147.31 145.576 146.932 145.488 146.473 145.488C146.116 145.488 145.79 145.549 145.497 145.672C145.209 145.789 144.961 145.971 144.753 146.216C144.545 146.461 144.382 146.771 144.265 147.144C144.153 147.512 144.097 147.947 144.097 148.448L143.161 148.16C143.161 147.323 143.31 146.605 143.609 146.008C143.913 145.405 144.337 144.944 144.881 144.624C145.43 144.299 146.076 144.136 146.817 144.136C147.377 144.136 147.854 144.224 148.249 144.4C148.644 144.576 148.972 144.811 149.233 145.104C149.494 145.392 149.7 145.717 149.849 146.08C149.998 146.437 150.102 146.803 150.161 147.176C150.225 147.544 150.257 147.893 150.257 148.224V153H148.817ZM142.657 153V141.48H143.937V147.84H144.097V153H142.657ZM155.761 153.24C154.913 153.24 154.172 153.053 153.537 152.68C152.908 152.301 152.417 151.776 152.065 151.104C151.713 150.427 151.537 149.637 151.537 148.736C151.537 147.792 151.71 146.976 152.057 146.288C152.404 145.595 152.886 145.061 153.505 144.688C154.129 144.309 154.86 144.12 155.697 144.12C156.566 144.12 157.305 144.32 157.913 144.72C158.526 145.12 158.985 145.691 159.289 146.432C159.598 147.173 159.732 148.056 159.689 149.08H158.249V148.568C158.233 147.507 158.017 146.715 157.601 146.192C157.185 145.664 156.566 145.4 155.745 145.4C154.865 145.4 154.196 145.683 153.737 146.248C153.278 146.813 153.049 147.624 153.049 148.68C153.049 149.699 153.278 150.488 153.737 151.048C154.196 151.608 154.849 151.888 155.697 151.888C156.268 151.888 156.764 151.757 157.185 151.496C157.606 151.235 157.937 150.859 158.177 150.368L159.545 150.84C159.209 151.603 158.702 152.195 158.025 152.616C157.353 153.032 156.598 153.24 155.761 153.24ZM152.569 149.08V147.936H158.953V149.08H152.569ZM167.529 157.08C167.076 157.08 166.633 157.011 166.201 156.872C165.769 156.733 165.372 156.523 165.009 156.24C164.652 155.963 164.353 155.611 164.113 155.184L165.417 154.496C165.63 154.917 165.932 155.224 166.321 155.416C166.716 155.608 167.121 155.704 167.537 155.704C168.086 155.704 168.542 155.603 168.905 155.4C169.268 155.203 169.534 154.907 169.705 154.512C169.881 154.117 169.966 153.627 169.961 153.04V150.68H170.129V144.36H171.393V153.056C171.393 153.291 171.385 153.517 171.369 153.736C171.358 153.955 171.332 154.171 171.289 154.384C171.177 154.997 170.956 155.501 170.625 155.896C170.294 156.296 169.868 156.592 169.345 156.784C168.822 156.981 168.217 157.08 167.529 157.08ZM167.425 153.24C166.62 153.24 165.929 153.04 165.353 152.64C164.777 152.235 164.332 151.688 164.017 151C163.708 150.312 163.553 149.536 163.553 148.672C163.553 147.808 163.708 147.032 164.017 146.344C164.332 145.656 164.777 145.115 165.353 144.72C165.929 144.32 166.617 144.12 167.417 144.12C168.233 144.12 168.918 144.317 169.473 144.712C170.028 145.107 170.446 145.648 170.729 146.336C171.017 147.024 171.161 147.803 171.161 148.672C171.161 149.531 171.017 150.307 170.729 151C170.446 151.688 170.028 152.235 169.473 152.64C168.918 153.04 168.236 153.24 167.425 153.24ZM167.601 151.936C168.182 151.936 168.66 151.797 169.033 151.52C169.406 151.237 169.681 150.851 169.857 150.36C170.038 149.864 170.129 149.301 170.129 148.672C170.129 148.032 170.038 147.469 169.857 146.984C169.681 146.493 169.409 146.112 169.041 145.84C168.673 145.563 168.206 145.424 167.641 145.424C167.054 145.424 166.569 145.568 166.185 145.856C165.806 146.144 165.524 146.533 165.337 147.024C165.156 147.515 165.065 148.064 165.065 148.672C165.065 149.285 165.158 149.84 165.345 150.336C165.532 150.827 165.812 151.216 166.185 151.504C166.564 151.792 167.036 151.936 167.601 151.936ZM173.467 142.832V141.36H174.891V142.832H173.467ZM173.467 153V144.36H174.891V153H173.467ZM179.307 153L176.171 144.36H177.611L180.035 151.184L182.451 144.36H183.899L180.763 153H179.307ZM188.458 153.24C187.61 153.24 186.868 153.053 186.234 152.68C185.604 152.301 185.114 151.776 184.762 151.104C184.41 150.427 184.234 149.637 184.234 148.736C184.234 147.792 184.407 146.976 184.754 146.288C185.1 145.595 185.583 145.061 186.202 144.688C186.826 144.309 187.556 144.12 188.394 144.12C189.263 144.12 190.002 144.32 190.61 144.72C191.223 145.12 191.682 145.691 191.986 146.432C192.295 147.173 192.428 148.056 192.386 149.08H190.946V148.568C190.93 147.507 190.714 146.715 190.298 146.192C189.882 145.664 189.263 145.4 188.442 145.4C187.562 145.4 186.892 145.683 186.434 146.248C185.975 146.813 185.746 147.624 185.746 148.68C185.746 149.699 185.975 150.488 186.434 151.048C186.892 151.608 187.546 151.888 188.394 151.888C188.964 151.888 189.46 151.757 189.882 151.496C190.303 151.235 190.634 150.859 190.874 150.368L192.242 150.84C191.906 151.603 191.399 152.195 190.722 152.616C190.05 153.032 189.295 153.24 188.458 153.24ZM185.266 149.08V147.936H191.65V149.08H185.266ZM200.41 153.24C199.551 153.24 198.81 153.045 198.186 152.656C197.567 152.267 197.09 151.728 196.754 151.04C196.418 150.352 196.25 149.563 196.25 148.672C196.25 147.765 196.421 146.971 196.762 146.288C197.103 145.605 197.586 145.075 198.21 144.696C198.834 144.312 199.567 144.12 200.41 144.12C201.274 144.12 202.018 144.315 202.642 144.704C203.266 145.088 203.743 145.624 204.074 146.312C204.41 146.995 204.578 147.781 204.578 148.672C204.578 149.573 204.41 150.368 204.074 151.056C203.738 151.739 203.258 152.275 202.634 152.664C202.01 153.048 201.269 153.24 200.41 153.24ZM200.41 151.888C201.306 151.888 201.973 151.589 202.41 150.992C202.847 150.395 203.066 149.621 203.066 148.672C203.066 147.696 202.845 146.92 202.402 146.344C201.959 145.763 201.295 145.472 200.41 145.472C199.807 145.472 199.311 145.608 198.922 145.88C198.533 146.152 198.242 146.528 198.05 147.008C197.858 147.488 197.762 148.043 197.762 148.672C197.762 149.643 197.986 150.421 198.434 151.008C198.882 151.595 199.541 151.888 200.41 151.888ZM206.843 153V143.888C206.843 143.664 206.854 143.437 206.875 143.208C206.897 142.973 206.945 142.747 207.019 142.528C207.094 142.304 207.217 142.099 207.387 141.912C207.585 141.693 207.801 141.539 208.035 141.448C208.27 141.352 208.507 141.293 208.747 141.272C208.993 141.251 209.225 141.24 209.443 141.24H210.539V142.424H209.523C209.102 142.424 208.787 142.528 208.579 142.736C208.371 142.939 208.267 143.248 208.267 143.664V153H206.843ZM205.379 145.536V144.36H210.539V145.536H205.379ZM214.379 153V144.36H215.651V146.448L215.443 146.176C215.545 145.909 215.675 145.664 215.835 145.44C216.001 145.216 216.185 145.032 216.387 144.888C216.611 144.707 216.865 144.568 217.147 144.472C217.43 144.376 217.718 144.32 218.011 144.304C218.305 144.283 218.579 144.301 218.835 144.36V145.696C218.537 145.616 218.209 145.595 217.851 145.632C217.494 145.669 217.163 145.8 216.859 146.024C216.582 146.221 216.366 146.461 216.211 146.744C216.062 147.027 215.958 147.333 215.899 147.664C215.841 147.989 215.811 148.323 215.811 148.664V153H214.379ZM220.188 142.832V141.36H221.612V142.832H220.188ZM220.188 153V144.36H221.612V153H220.188ZM227.332 153.24C226.458 153.24 225.714 153.045 225.1 152.656C224.492 152.261 224.028 151.72 223.708 151.032C223.388 150.344 223.223 149.56 223.212 148.68C223.223 147.779 223.391 146.987 223.716 146.304C224.047 145.616 224.519 145.08 225.132 144.696C225.746 144.312 226.484 144.12 227.348 144.12C228.26 144.12 229.044 144.344 229.7 144.792C230.362 145.24 230.804 145.853 231.028 146.632L229.62 147.056C229.439 146.555 229.143 146.165 228.732 145.888C228.327 145.611 227.86 145.472 227.332 145.472C226.74 145.472 226.252 145.611 225.868 145.888C225.484 146.16 225.199 146.539 225.012 147.024C224.826 147.504 224.73 148.056 224.724 148.68C224.735 149.64 224.956 150.416 225.388 151.008C225.826 151.595 226.474 151.888 227.332 151.888C227.898 151.888 228.367 151.76 228.74 151.504C229.114 151.243 229.396 150.867 229.588 150.376L231.028 150.752C230.73 151.557 230.263 152.173 229.628 152.6C228.994 153.027 228.228 153.24 227.332 153.24ZM238.493 153V148.672C238.493 148.261 238.456 147.867 238.381 147.488C238.312 147.109 238.187 146.771 238.005 146.472C237.829 146.168 237.589 145.928 237.285 145.752C236.987 145.576 236.608 145.488 236.149 145.488C235.792 145.488 235.467 145.549 235.173 145.672C234.885 145.789 234.637 145.971 234.429 146.216C234.221 146.461 234.059 146.771 233.941 147.144C233.829 147.512 233.773 147.947 233.773 148.448L232.837 148.16C232.837 147.323 232.987 146.605 233.285 146.008C233.589 145.405 234.013 144.944 234.557 144.624C235.107 144.299 235.752 144.136 236.493 144.136C237.053 144.136 237.531 144.224 237.925 144.4C238.32 144.576 238.648 144.811 238.909 145.104C239.171 145.392 239.376 145.717 239.525 146.08C239.675 146.437 239.779 146.803 239.837 147.176C239.901 147.544 239.933 147.893 239.933 148.224V153H238.493ZM232.333 153V141.48H233.613V147.84H233.773V153H232.333ZM250.728 153V148.672C250.728 148.261 250.691 147.867 250.616 147.488C250.547 147.109 250.422 146.771 250.24 146.472C250.064 146.168 249.824 145.928 249.52 145.752C249.222 145.576 248.843 145.488 248.384 145.488C248.027 145.488 247.702 145.549 247.408 145.672C247.12 145.789 246.872 145.971 246.664 146.216C246.456 146.461 246.294 146.771 246.176 147.144C246.064 147.512 246.008 147.947 246.008 148.448L245.072 148.16C245.072 147.323 245.222 146.605 245.52 146.008C245.824 145.405 246.248 144.944 246.792 144.624C247.342 144.299 247.987 144.136 248.728 144.136C249.288 144.136 249.766 144.224 250.16 144.4C250.555 144.576 250.883 144.811 251.144 145.104C251.406 145.392 251.611 145.717 251.76 146.08C251.91 146.437 252.014 146.803 252.072 147.176C252.136 147.544 252.168 147.893 252.168 148.224V153H250.728ZM244.568 153V141.48H245.848V147.84H246.008V153H244.568ZM257.672 153.24C256.824 153.24 256.083 153.053 255.448 152.68C254.819 152.301 254.328 151.776 253.976 151.104C253.624 150.427 253.448 149.637 253.448 148.736C253.448 147.792 253.621 146.976 253.968 146.288C254.315 145.595 254.797 145.061 255.416 144.688C256.04 144.309 256.771 144.12 257.608 144.12C258.477 144.12 259.216 144.32 259.824 144.72C260.437 145.12 260.896 145.691 261.2 146.432C261.509 147.173 261.643 148.056 261.6 149.08H260.16V148.568C260.144 147.507 259.928 146.715 259.512 146.192C259.096 145.664 258.477 145.4 257.656 145.4C256.776 145.4 256.107 145.683 255.648 146.248C255.189 146.813 254.96 147.624 254.96 148.68C254.96 149.699 255.189 150.488 255.648 151.048C256.107 151.608 256.76 151.888 257.608 151.888C258.179 151.888 258.675 151.757 259.096 151.496C259.517 151.235 259.848 150.859 260.088 150.368L261.456 150.84C261.12 151.603 260.613 152.195 259.936 152.616C259.264 153.032 258.509 153.24 257.672 153.24ZM254.48 149.08V147.936H260.864V149.08H254.48ZM263.005 153V151.432H264.573V153H263.005ZM5.088 183V172.832H1.16V171.48H10.44V172.832H6.512V183H5.088ZM17.5458 183V178.672C17.5458 178.261 17.5084 177.867 17.4338 177.488C17.3644 177.109 17.2391 176.771 17.0578 176.472C16.8818 176.168 16.6418 175.928 16.3378 175.752C16.0391 175.576 15.6604 175.488 15.2018 175.488C14.8444 175.488 14.5191 175.549 14.2258 175.672C13.9378 175.789 13.6898 175.971 13.4818 176.216C13.2738 176.461 13.1111 176.771 12.9938 177.144C12.8818 177.512 12.8258 177.947 12.8258 178.448L11.8898 178.16C11.8898 177.323 12.0391 176.605 12.3378 176.008C12.6418 175.405 13.0658 174.944 13.6098 174.624C14.1591 174.299 14.8044 174.136 15.5458 174.136C16.1058 174.136 16.5831 174.224 16.9778 174.4C17.3724 174.576 17.7004 174.811 17.9618 175.104C18.2231 175.392 18.4284 175.717 18.5778 176.08C18.7271 176.437 18.8311 176.803 18.8898 177.176C18.9538 177.544 18.9858 177.893 18.9858 178.224V183H17.5458ZM11.3858 183V171.48H12.6658V177.84H12.8258V183H11.3858ZM24.4896 183.24C23.6416 183.24 22.9003 183.053 22.2656 182.68C21.6363 182.301 21.1456 181.776 20.7936 181.104C20.4416 180.427 20.2656 179.637 20.2656 178.736C20.2656 177.792 20.439 176.976 20.7856 176.288C21.1323 175.595 21.615 175.061 22.2336 174.688C22.8576 174.309 23.5883 174.12 24.4256 174.12C25.295 174.12 26.0336 174.32 26.6416 174.72C27.255 175.12 27.7136 175.691 28.0176 176.432C28.327 177.173 28.4603 178.056 28.4176 179.08H26.9776V178.568C26.9616 177.507 26.7456 176.715 26.3296 176.192C25.9136 175.664 25.295 175.4 24.4736 175.4C23.5936 175.4 22.9243 175.683 22.4656 176.248C22.007 176.813 21.7776 177.624 21.7776 178.68C21.7776 179.699 22.007 180.488 22.4656 181.048C22.9243 181.608 23.5776 181.888 24.4256 181.888C24.9963 181.888 25.4923 181.757 25.9136 181.496C26.335 181.235 26.6656 180.859 26.9056 180.368L28.2736 180.84C27.9376 181.603 27.431 182.195 26.7536 182.616C26.0816 183.032 25.327 183.24 24.4896 183.24ZM21.2976 179.08V177.936H27.6816V179.08H21.2976ZM30.9225 186.84L32.5945 182.296L32.6185 183.64L28.8425 174.36H30.3385L33.2985 181.824H32.7865L35.5625 174.36H37.0105L32.3065 186.84H30.9225ZM43.351 183.24C42.7057 183.24 42.1643 183.123 41.727 182.888C41.295 182.648 40.967 182.333 40.743 181.944C40.5243 181.555 40.415 181.128 40.415 180.664C40.415 180.211 40.5003 179.819 40.671 179.488C40.847 179.152 41.0923 178.875 41.407 178.656C41.7217 178.432 42.0977 178.256 42.535 178.128C42.9457 178.016 43.4043 177.92 43.911 177.84C44.423 177.755 44.9403 177.677 45.463 177.608C45.9857 177.539 46.4737 177.472 46.927 177.408L46.415 177.704C46.431 176.936 46.2763 176.368 45.951 176C45.631 175.632 45.0763 175.448 44.287 175.448C43.7643 175.448 43.3057 175.568 42.911 175.808C42.5217 176.043 42.247 176.427 42.087 176.96L40.735 176.552C40.943 175.795 41.3457 175.2 41.943 174.768C42.5403 174.336 43.327 174.12 44.303 174.12C45.087 174.12 45.759 174.261 46.319 174.544C46.8843 174.821 47.2897 175.243 47.535 175.808C47.6577 176.075 47.735 176.365 47.767 176.68C47.799 176.989 47.815 177.315 47.815 177.656V183H46.551V180.928L46.847 181.12C46.5217 181.819 46.0657 182.347 45.479 182.704C44.8977 183.061 44.1883 183.24 43.351 183.24ZM43.567 182.048C44.079 182.048 44.5217 181.957 44.895 181.776C45.2737 181.589 45.5777 181.347 45.807 181.048C46.0363 180.744 46.1857 180.413 46.255 180.056C46.335 179.789 46.3777 179.493 46.383 179.168C46.3937 178.837 46.399 178.584 46.399 178.408L46.895 178.624C46.431 178.688 45.975 178.749 45.527 178.808C45.079 178.867 44.655 178.931 44.255 179C43.855 179.064 43.495 179.141 43.175 179.232C42.9403 179.307 42.719 179.403 42.511 179.52C42.3083 179.637 42.143 179.789 42.015 179.976C41.8923 180.157 41.831 180.384 41.831 180.656C41.831 180.891 41.8897 181.115 42.007 181.328C42.1297 181.541 42.3163 181.715 42.567 181.848C42.823 181.981 43.1563 182.048 43.567 182.048ZM53.071 187.08C52.6177 187.08 52.175 187.011 51.743 186.872C51.311 186.733 50.9137 186.523 50.551 186.24C50.1937 185.963 49.895 185.611 49.655 185.184L50.959 184.496C51.1723 184.917 51.4737 185.224 51.863 185.416C52.2577 185.608 52.663 185.704 53.079 185.704C53.6283 185.704 54.0843 185.603 54.447 185.4C54.8097 185.203 55.0763 184.907 55.247 184.512C55.423 184.117 55.5083 183.627 55.503 183.04V180.68H55.671V174.36H56.935V183.056C56.935 183.291 56.927 183.517 56.911 183.736C56.9003 183.955 56.8737 184.171 56.831 184.384C56.719 184.997 56.4977 185.501 56.167 185.896C55.8363 186.296 55.4097 186.592 54.887 186.784C54.3643 186.981 53.759 187.08 53.071 187.08ZM52.967 183.24C52.1617 183.24 51.471 183.04 50.895 182.64C50.319 182.235 49.8737 181.688 49.559 181C49.2497 180.312 49.095 179.536 49.095 178.672C49.095 177.808 49.2497 177.032 49.559 176.344C49.8737 175.656 50.319 175.115 50.895 174.72C51.471 174.32 52.159 174.12 52.959 174.12C53.775 174.12 54.4603 174.317 55.015 174.712C55.5697 175.107 55.9883 175.648 56.271 176.336C56.559 177.024 56.703 177.803 56.703 178.672C56.703 179.531 56.559 180.307 56.271 181C55.9883 181.688 55.5697 182.235 55.015 182.64C54.4603 183.04 53.7777 183.24 52.967 183.24ZM53.143 181.936C53.7243 181.936 54.2017 181.797 54.575 181.52C54.9483 181.237 55.223 180.851 55.399 180.36C55.5803 179.864 55.671 179.301 55.671 178.672C55.671 178.032 55.5803 177.469 55.399 176.984C55.223 176.493 54.951 176.112 54.583 175.84C54.215 175.563 53.7483 175.424 53.183 175.424C52.5963 175.424 52.111 175.568 51.727 175.856C51.3483 176.144 51.0657 176.533 50.879 177.024C50.6977 177.515 50.607 178.064 50.607 178.672C50.607 179.285 50.7003 179.84 50.887 180.336C51.0737 180.827 51.3537 181.216 51.727 181.504C52.1057 181.792 52.5777 181.936 53.143 181.936ZM62.5927 183.24C61.7447 183.24 61.0034 183.053 60.3687 182.68C59.7394 182.301 59.2487 181.776 58.8967 181.104C58.5447 180.427 58.3687 179.637 58.3687 178.736C58.3687 177.792 58.5421 176.976 58.8887 176.288C59.2354 175.595 59.7181 175.061 60.3367 174.688C60.9607 174.309 61.6914 174.12 62.5287 174.12C63.3981 174.12 64.1367 174.32 64.7447 174.72C65.3581 175.12 65.8167 175.691 66.1207 176.432C66.4301 177.173 66.5634 178.056 66.5207 179.08H65.0807V178.568C65.0647 177.507 64.8487 176.715 64.4327 176.192C64.0167 175.664 63.3981 175.4 62.5767 175.4C61.6967 175.4 61.0274 175.683 60.5687 176.248C60.1101 176.813 59.8807 177.624 59.8807 178.68C59.8807 179.699 60.1101 180.488 60.5687 181.048C61.0274 181.608 61.6807 181.888 62.5287 181.888C63.0994 181.888 63.5954 181.757 64.0167 181.496C64.4381 181.235 64.7687 180.859 65.0087 180.368L66.3767 180.84C66.0407 181.603 65.5341 182.195 64.8567 182.616C64.1847 183.032 63.4301 183.24 62.5927 183.24ZM59.4007 179.08V177.936H65.7847V179.08H59.4007ZM73.321 183.24C72.6757 183.24 72.1343 183.123 71.697 182.888C71.265 182.648 70.937 182.333 70.713 181.944C70.4943 181.555 70.385 181.128 70.385 180.664C70.385 180.211 70.4703 179.819 70.641 179.488C70.817 179.152 71.0623 178.875 71.377 178.656C71.6917 178.432 72.0677 178.256 72.505 178.128C72.9157 178.016 73.3743 177.92 73.881 177.84C74.393 177.755 74.9103 177.677 75.433 177.608C75.9557 177.539 76.4437 177.472 76.897 177.408L76.385 177.704C76.401 176.936 76.2463 176.368 75.921 176C75.601 175.632 75.0463 175.448 74.257 175.448C73.7343 175.448 73.2757 175.568 72.881 175.808C72.4917 176.043 72.217 176.427 72.057 176.96L70.705 176.552C70.913 175.795 71.3157 175.2 71.913 174.768C72.5103 174.336 73.297 174.12 74.273 174.12C75.057 174.12 75.729 174.261 76.289 174.544C76.8543 174.821 77.2597 175.243 77.505 175.808C77.6277 176.075 77.705 176.365 77.737 176.68C77.769 176.989 77.785 177.315 77.785 177.656V183H76.521V180.928L76.817 181.12C76.4917 181.819 76.0357 182.347 75.449 182.704C74.8677 183.061 74.1583 183.24 73.321 183.24ZM73.537 182.048C74.049 182.048 74.4917 181.957 74.865 181.776C75.2437 181.589 75.5477 181.347 75.777 181.048C76.0063 180.744 76.1557 180.413 76.225 180.056C76.305 179.789 76.3477 179.493 76.353 179.168C76.3637 178.837 76.369 178.584 76.369 178.408L76.865 178.624C76.401 178.688 75.945 178.749 75.497 178.808C75.049 178.867 74.625 178.931 74.225 179C73.825 179.064 73.465 179.141 73.145 179.232C72.9103 179.307 72.689 179.403 72.481 179.52C72.2783 179.637 72.113 179.789 71.985 179.976C71.8623 180.157 71.801 180.384 71.801 180.656C71.801 180.891 71.8597 181.115 71.977 181.328C72.0997 181.541 72.2863 181.715 72.537 181.848C72.793 181.981 73.1263 182.048 73.537 182.048ZM85.697 183V178.672C85.697 178.261 85.6597 177.867 85.585 177.488C85.5157 177.109 85.3903 176.771 85.209 176.472C85.033 176.168 84.793 175.928 84.489 175.752C84.1903 175.576 83.8117 175.488 83.353 175.488C82.9957 175.488 82.6703 175.549 82.377 175.672C82.089 175.789 81.841 175.971 81.633 176.216C81.425 176.461 81.2623 176.771 81.145 177.144C81.033 177.512 80.977 177.947 80.977 178.448L80.041 178.16C80.041 177.323 80.1903 176.605 80.489 176.008C80.793 175.405 81.217 174.944 81.761 174.624C82.3103 174.299 82.9557 174.136 83.697 174.136C84.257 174.136 84.7343 174.224 85.129 174.4C85.5237 174.576 85.8517 174.811 86.113 175.104C86.3743 175.392 86.5797 175.717 86.729 176.08C86.8783 176.437 86.9823 176.803 87.041 177.176C87.105 177.544 87.137 177.893 87.137 178.224V183H85.697ZM79.537 183V174.36H80.817V176.672H80.977V183H79.537ZM92.2108 183.24C91.4054 183.24 90.7148 183.04 90.1388 182.64C89.5628 182.235 89.1174 181.688 88.8028 181C88.4934 180.312 88.3388 179.536 88.3388 178.672C88.3388 177.808 88.4934 177.032 88.8028 176.344C89.1174 175.656 89.5628 175.115 90.1388 174.72C90.7148 174.32 91.4028 174.12 92.2028 174.12C93.0188 174.12 93.7041 174.317 94.2588 174.712C94.8134 175.107 95.2321 175.648 95.5148 176.336C95.8028 177.024 95.9468 177.803 95.9468 178.672C95.9468 179.531 95.8028 180.307 95.5148 181C95.2321 181.688 94.8134 182.235 94.2588 182.64C93.7041 183.04 93.0214 183.24 92.2108 183.24ZM92.3868 181.936C92.9681 181.936 93.4454 181.797 93.8188 181.52C94.1921 181.237 94.4668 180.851 94.6428 180.36C94.8241 179.864 94.9148 179.301 94.9148 178.672C94.9148 178.032 94.8241 177.469 94.6428 176.984C94.4668 176.493 94.1948 176.112 93.8268 175.84C93.4588 175.563 92.9921 175.424 92.4268 175.424C91.8401 175.424 91.3548 175.568 90.9708 175.856C90.5921 176.144 90.3094 176.533 90.1228 177.024C89.9414 177.515 89.8508 178.064 89.8508 178.672C89.8508 179.285 89.9441 179.84 90.1308 180.336C90.3174 180.827 90.5974 181.216 90.9708 181.504C91.3494 181.792 91.8214 181.936 92.3868 181.936ZM94.9148 183V176.64H94.7548V171.48H96.1868V183H94.9148ZM104.383 183.24C103.578 183.24 102.887 183.04 102.311 182.64C101.735 182.235 101.29 181.688 100.975 181C100.666 180.312 100.511 179.536 100.511 178.672C100.511 177.808 100.666 177.032 100.975 176.344C101.29 175.656 101.735 175.115 102.311 174.72C102.887 174.32 103.575 174.12 104.375 174.12C105.191 174.12 105.877 174.317 106.431 174.712C106.986 175.107 107.405 175.648 107.687 176.336C107.975 177.024 108.119 177.803 108.119 178.672C108.119 179.531 107.975 180.307 107.687 181C107.405 181.688 106.986 182.235 106.431 182.64C105.877 183.04 105.194 183.24 104.383 183.24ZM104.559 181.936C105.141 181.936 105.618 181.797 105.991 181.52C106.365 181.237 106.639 180.851 106.815 180.36C106.997 179.864 107.087 179.301 107.087 178.672C107.087 178.032 106.997 177.469 106.815 176.984C106.639 176.493 106.367 176.112 105.999 175.84C105.631 175.563 105.165 175.424 104.599 175.424C104.013 175.424 103.527 175.568 103.143 175.856C102.765 176.144 102.482 176.533 102.295 177.024C102.114 177.515 102.023 178.064 102.023 178.672C102.023 179.285 102.117 179.84 102.303 180.336C102.49 180.827 102.77 181.216 103.143 181.504C103.522 181.792 103.994 181.936 104.559 181.936ZM107.087 183V176.64H106.927V171.48H108.359V183H107.087ZM110.281 183V174.36H111.553V176.448L111.345 176.176C111.446 175.909 111.577 175.664 111.737 175.44C111.902 175.216 112.086 175.032 112.289 174.888C112.513 174.707 112.766 174.568 113.049 174.472C113.331 174.376 113.619 174.32 113.913 174.304C114.206 174.283 114.481 174.301 114.737 174.36V175.696C114.438 175.616 114.11 175.595 113.753 175.632C113.395 175.669 113.065 175.8 112.761 176.024C112.483 176.221 112.267 176.461 112.113 176.744C111.963 177.027 111.859 177.333 111.801 177.664C111.742 177.989 111.713 178.323 111.713 178.664V183H110.281ZM118.104 183.24C117.459 183.24 116.917 183.123 116.48 182.888C116.048 182.648 115.72 182.333 115.496 181.944C115.277 181.555 115.168 181.128 115.168 180.664C115.168 180.211 115.253 179.819 115.424 179.488C115.6 179.152 115.845 178.875 116.16 178.656C116.475 178.432 116.851 178.256 117.288 178.128C117.699 178.016 118.157 177.92 118.664 177.84C119.176 177.755 119.693 177.677 120.216 177.608C120.739 177.539 121.227 177.472 121.68 177.408L121.168 177.704C121.184 176.936 121.029 176.368 120.704 176C120.384 175.632 119.829 175.448 119.04 175.448C118.517 175.448 118.059 175.568 117.664 175.808C117.275 176.043 117 176.427 116.84 176.96L115.488 176.552C115.696 175.795 116.099 175.2 116.696 174.768C117.293 174.336 118.08 174.12 119.056 174.12C119.84 174.12 120.512 174.261 121.072 174.544C121.637 174.821 122.043 175.243 122.288 175.808C122.411 176.075 122.488 176.365 122.52 176.68C122.552 176.989 122.568 177.315 122.568 177.656V183H121.304V180.928L121.6 181.12C121.275 181.819 120.819 182.347 120.232 182.704C119.651 183.061 118.941 183.24 118.104 183.24ZM118.32 182.048C118.832 182.048 119.275 181.957 119.648 181.776C120.027 181.589 120.331 181.347 120.56 181.048C120.789 180.744 120.939 180.413 121.008 180.056C121.088 179.789 121.131 179.493 121.136 179.168C121.147 178.837 121.152 178.584 121.152 178.408L121.648 178.624C121.184 178.688 120.728 178.749 120.28 178.808C119.832 178.867 119.408 178.931 119.008 179C118.608 179.064 118.248 179.141 117.928 179.232C117.693 179.307 117.472 179.403 117.264 179.52C117.061 179.637 116.896 179.789 116.768 179.976C116.645 180.157 116.584 180.384 116.584 180.656C116.584 180.891 116.643 181.115 116.76 181.328C116.883 181.541 117.069 181.715 117.32 181.848C117.576 181.981 117.909 182.048 118.32 182.048ZM125.856 183L123.216 174.352L124.632 174.36L126.56 180.68L128.504 174.36H129.76L131.696 180.68L133.632 174.36H135.04L132.4 183H131.216L129.128 176.432L127.04 183H125.856ZM149.376 183L149.384 177.472C149.384 176.827 149.21 176.323 148.864 175.96C148.522 175.592 148.077 175.408 147.528 175.408C147.208 175.408 146.904 175.483 146.616 175.632C146.328 175.776 146.093 176.005 145.912 176.32C145.73 176.629 145.64 177.027 145.64 177.512L144.888 177.208C144.877 176.595 145.002 176.059 145.264 175.6C145.53 175.136 145.893 174.776 146.352 174.52C146.81 174.264 147.328 174.136 147.904 174.136C148.805 174.136 149.514 174.411 150.032 174.96C150.549 175.504 150.808 176.237 150.808 177.16L150.8 183H149.376ZM139.04 183V174.36H140.312V176.672H140.472V183H139.04ZM144.216 183L144.224 177.528C144.224 176.867 144.053 176.349 143.712 175.976C143.37 175.597 142.917 175.408 142.352 175.408C141.792 175.408 141.338 175.6 140.992 175.984C140.645 176.368 140.472 176.877 140.472 177.512L139.72 177.064C139.72 176.504 139.853 176.003 140.12 175.56C140.386 175.117 140.749 174.771 141.208 174.52C141.666 174.264 142.186 174.136 142.768 174.136C143.349 174.136 143.856 174.259 144.288 174.504C144.72 174.749 145.053 175.101 145.288 175.56C145.522 176.013 145.64 176.555 145.64 177.184L145.632 183H144.216ZM152.571 183V174.36H153.843V176.448L153.635 176.176C153.737 175.909 153.867 175.664 154.027 175.44C154.193 175.216 154.377 175.032 154.579 174.888C154.803 174.707 155.057 174.568 155.339 174.472C155.622 174.376 155.91 174.32 156.203 174.304C156.497 174.283 156.771 174.301 157.027 174.36V175.696C156.729 175.616 156.401 175.595 156.043 175.632C155.686 175.669 155.355 175.8 155.051 176.024C154.774 176.221 154.558 176.461 154.403 176.744C154.254 177.027 154.15 177.333 154.091 177.664C154.033 177.989 154.003 178.323 154.003 178.664V183H152.571ZM161.172 183.232C160.142 183.232 159.297 183.008 158.636 182.56C157.98 182.107 157.577 181.475 157.428 180.664L158.884 180.432C159.001 180.901 159.27 181.275 159.692 181.552C160.113 181.824 160.636 181.96 161.26 181.96C161.852 181.96 162.316 181.837 162.652 181.592C162.988 181.347 163.156 181.013 163.156 180.592C163.156 180.347 163.1 180.149 162.988 180C162.876 179.845 162.644 179.701 162.292 179.568C161.945 179.435 161.42 179.275 160.716 179.088C159.953 178.885 159.353 178.675 158.916 178.456C158.478 178.237 158.166 177.984 157.98 177.696C157.793 177.408 157.7 177.059 157.7 176.648C157.7 176.141 157.838 175.699 158.116 175.32C158.393 174.936 158.78 174.64 159.276 174.432C159.777 174.224 160.358 174.12 161.02 174.12C161.676 174.12 162.262 174.224 162.78 174.432C163.297 174.64 163.713 174.936 164.028 175.32C164.348 175.699 164.537 176.141 164.596 176.648L163.14 176.912C163.07 176.448 162.846 176.083 162.468 175.816C162.094 175.549 161.612 175.408 161.02 175.392C160.46 175.371 160.004 175.469 159.652 175.688C159.305 175.907 159.132 176.203 159.132 176.576C159.132 176.784 159.196 176.963 159.324 177.112C159.457 177.261 159.7 177.403 160.052 177.536C160.409 177.669 160.926 177.821 161.604 177.992C162.366 178.184 162.966 178.395 163.404 178.624C163.846 178.848 164.161 179.115 164.348 179.424C164.534 179.728 164.628 180.104 164.628 180.552C164.628 181.384 164.321 182.04 163.708 182.52C163.094 182.995 162.249 183.232 161.172 183.232ZM169.115 183V171.24H170.539V183H169.115ZM172.779 172.832V171.36H174.203V172.832H172.779ZM172.779 183V174.36H174.203V183H172.779ZM176.276 183L176.284 171.48H177.724V178.52L181.348 174.36H183.196L179.38 178.68L183.644 183H181.652L177.724 178.84V183H176.276ZM187.708 183.24C186.86 183.24 186.118 183.053 185.484 182.68C184.854 182.301 184.364 181.776 184.012 181.104C183.66 180.427 183.484 179.637 183.484 178.736C183.484 177.792 183.657 176.976 184.004 176.288C184.35 175.595 184.833 175.061 185.452 174.688C186.076 174.309 186.806 174.12 187.644 174.12C188.513 174.12 189.252 174.32 189.86 174.72C190.473 175.12 190.932 175.691 191.236 176.432C191.545 177.173 191.678 178.056 191.636 179.08H190.196V178.568C190.18 177.507 189.964 176.715 189.548 176.192C189.132 175.664 188.513 175.4 187.692 175.4C186.812 175.4 186.142 175.683 185.684 176.248C185.225 176.813 184.996 177.624 184.996 178.68C184.996 179.699 185.225 180.488 185.684 181.048C186.142 181.608 186.796 181.888 187.644 181.888C188.214 181.888 188.71 181.757 189.132 181.496C189.553 181.235 189.884 180.859 190.124 180.368L191.492 180.84C191.156 181.603 190.649 182.195 189.972 182.616C189.3 183.032 188.545 183.24 187.708 183.24ZM184.516 179.08V177.936H190.9V179.08H184.516ZM193.04 183V181.432H194.608V183H193.04ZM199.82 183V171.48H201.244V183H199.82ZM213.652 183L213.66 177.472C213.66 176.827 213.487 176.323 213.14 175.96C212.799 175.592 212.354 175.408 211.804 175.408C211.484 175.408 211.18 175.483 210.892 175.632C210.604 175.776 210.37 176.005 210.188 176.32C210.007 176.629 209.916 177.027 209.916 177.512L209.164 177.208C209.154 176.595 209.279 176.059 209.54 175.6C209.807 175.136 210.17 174.776 210.628 174.52C211.087 174.264 211.604 174.136 212.18 174.136C213.082 174.136 213.791 174.411 214.308 174.96C214.826 175.504 215.084 176.237 215.084 177.16L215.076 183H213.652ZM203.316 183V174.36H204.588V176.672H204.748V183H203.316ZM208.492 183L208.5 177.528C208.5 176.867 208.33 176.349 207.988 175.976C207.647 175.597 207.194 175.408 206.628 175.408C206.068 175.408 205.615 175.6 205.268 175.984C204.922 176.368 204.748 176.877 204.748 177.512L203.996 177.064C203.996 176.504 204.13 176.003 204.396 175.56C204.663 175.117 205.026 174.771 205.484 174.52C205.943 174.264 206.463 174.136 207.044 174.136C207.626 174.136 208.132 174.259 208.564 174.504C208.996 174.749 209.33 175.101 209.564 175.56C209.799 176.013 209.916 176.555 209.916 177.184L209.908 183H208.492ZM220.816 183.24C220.005 183.24 219.323 183.04 218.768 182.64C218.213 182.235 217.792 181.688 217.504 181C217.221 180.307 217.08 179.531 217.08 178.672C217.08 177.803 217.221 177.024 217.504 176.336C217.792 175.648 218.213 175.107 218.768 174.712C219.328 174.317 220.013 174.12 220.824 174.12C221.624 174.12 222.312 174.32 222.888 174.72C223.469 175.115 223.915 175.656 224.224 176.344C224.533 177.032 224.688 177.808 224.688 178.672C224.688 179.536 224.533 180.312 224.224 181C223.915 181.688 223.469 182.235 222.888 182.64C222.312 183.04 221.621 183.24 220.816 183.24ZM216.84 186.84V174.36H218.112V180.72H218.272V186.84H216.84ZM220.64 181.936C221.211 181.936 221.683 181.792 222.056 181.504C222.429 181.216 222.709 180.827 222.896 180.336C223.083 179.84 223.176 179.285 223.176 178.672C223.176 178.064 223.083 177.515 222.896 177.024C222.715 176.533 222.432 176.144 222.048 175.856C221.669 175.568 221.187 175.424 220.6 175.424C220.04 175.424 219.576 175.563 219.208 175.84C218.84 176.112 218.565 176.493 218.384 176.984C218.203 177.469 218.112 178.032 218.112 178.672C218.112 179.301 218.2 179.864 218.376 180.36C218.557 180.851 218.835 181.237 219.208 181.52C219.581 181.797 220.059 181.936 220.64 181.936ZM226.122 183V174.36H227.394V176.448L227.186 176.176C227.287 175.909 227.418 175.664 227.578 175.44C227.743 175.216 227.927 175.032 228.13 174.888C228.354 174.707 228.607 174.568 228.89 174.472C229.173 174.376 229.461 174.32 229.754 174.304C230.047 174.283 230.322 174.301 230.578 174.36V175.696C230.279 175.616 229.951 175.595 229.594 175.632C229.237 175.669 228.906 175.8 228.602 176.024C228.325 176.221 228.109 176.461 227.954 176.744C227.805 177.027 227.701 177.333 227.642 177.664C227.583 177.989 227.554 178.323 227.554 178.664V183H226.122ZM235.294 183.24C234.436 183.24 233.694 183.045 233.07 182.656C232.452 182.267 231.974 181.728 231.638 181.04C231.302 180.352 231.134 179.563 231.134 178.672C231.134 177.765 231.305 176.971 231.646 176.288C231.988 175.605 232.47 175.075 233.094 174.696C233.718 174.312 234.452 174.12 235.294 174.12C236.158 174.12 236.902 174.315 237.526 174.704C238.15 175.088 238.628 175.624 238.958 176.312C239.294 176.995 239.462 177.781 239.462 178.672C239.462 179.573 239.294 180.368 238.958 181.056C238.622 181.739 238.142 182.275 237.518 182.664C236.894 183.048 236.153 183.24 235.294 183.24ZM235.294 181.888C236.19 181.888 236.857 181.589 237.294 180.992C237.732 180.395 237.95 179.621 237.95 178.672C237.95 177.696 237.729 176.92 237.286 176.344C236.844 175.763 236.18 175.472 235.294 175.472C234.692 175.472 234.196 175.608 233.806 175.88C233.417 176.152 233.126 176.528 232.934 177.008C232.742 177.488 232.646 178.043 232.646 178.672C232.646 179.643 232.87 180.421 233.318 181.008C233.766 181.595 234.425 181.888 235.294 181.888ZM242.927 183L239.791 174.36H241.231L243.655 181.184L246.071 174.36H247.519L244.383 183H242.927ZM248.806 172.832V171.36H250.23V172.832H248.806ZM248.806 183V174.36H250.23V183H248.806ZM258.463 183V178.672C258.463 178.261 258.425 177.867 258.351 177.488C258.281 177.109 258.156 176.771 257.975 176.472C257.799 176.168 257.559 175.928 257.255 175.752C256.956 175.576 256.577 175.488 256.119 175.488C255.761 175.488 255.436 175.549 255.143 175.672C254.855 175.789 254.607 175.971 254.399 176.216C254.191 176.461 254.028 176.771 253.911 177.144C253.799 177.512 253.743 177.947 253.743 178.448L252.807 178.16C252.807 177.323 252.956 176.605 253.255 176.008C253.559 175.405 253.983 174.944 254.527 174.624C255.076 174.299 255.721 174.136 256.463 174.136C257.023 174.136 257.5 174.224 257.895 174.4C258.289 174.576 258.617 174.811 258.879 175.104C259.14 175.392 259.345 175.717 259.495 176.08C259.644 176.437 259.748 176.803 259.807 177.176C259.871 177.544 259.903 177.893 259.903 178.224V183H258.463ZM252.303 183V174.36H253.583V176.672H253.743V183H252.303ZM265.159 187.08C264.705 187.08 264.263 187.011 263.831 186.872C263.399 186.733 263.001 186.523 262.639 186.24C262.281 185.963 261.983 185.611 261.743 185.184L263.047 184.496C263.26 184.917 263.561 185.224 263.951 185.416C264.345 185.608 264.751 185.704 265.167 185.704C265.716 185.704 266.172 185.603 266.535 185.4C266.897 185.203 267.164 184.907 267.335 184.512C267.511 184.117 267.596 183.627 267.591 183.04V180.68H267.759V174.36H269.023V183.056C269.023 183.291 269.015 183.517 268.999 183.736C268.988 183.955 268.961 184.171 268.919 184.384C268.807 184.997 268.585 185.501 268.255 185.896C267.924 186.296 267.497 186.592 266.975 186.784C266.452 186.981 265.847 187.08 265.159 187.08ZM265.055 183.24C264.249 183.24 263.559 183.04 262.983 182.64C262.407 182.235 261.961 181.688 261.647 181C261.337 180.312 261.183 179.536 261.183 178.672C261.183 177.808 261.337 177.032 261.647 176.344C261.961 175.656 262.407 175.115 262.983 174.72C263.559 174.32 264.247 174.12 265.047 174.12C265.863 174.12 266.548 174.317 267.103 174.712C267.657 175.107 268.076 175.648 268.359 176.336C268.647 177.024 268.791 177.803 268.791 178.672C268.791 179.531 268.647 180.307 268.359 181C268.076 181.688 267.657 182.235 267.103 182.64C266.548 183.04 265.865 183.24 265.055 183.24ZM265.231 181.936C265.812 181.936 266.289 181.797 266.663 181.52C267.036 181.237 267.311 180.851 267.487 180.36C267.668 179.864 267.759 179.301 267.759 178.672C267.759 178.032 267.668 177.469 267.487 176.984C267.311 176.493 267.039 176.112 266.671 175.84C266.303 175.563 265.836 175.424 265.271 175.424C264.684 175.424 264.199 175.568 263.815 175.856C263.436 176.144 263.153 176.533 262.967 177.024C262.785 177.515 262.695 178.064 262.695 178.672C262.695 179.285 262.788 179.84 262.975 180.336C263.161 180.827 263.441 181.216 263.815 181.504C264.193 181.792 264.665 181.936 265.231 181.936ZM5.864 213.24C5.016 213.24 4.27467 213.053 3.64 212.68C3.01067 212.301 2.52 211.776 2.168 211.104C1.816 210.427 1.64 209.637 1.64 208.736C1.64 207.792 1.81333 206.976 2.16 206.288C2.50667 205.595 2.98933 205.061 3.608 204.688C4.232 204.309 4.96267 204.12 5.8 204.12C6.66933 204.12 7.408 204.32 8.016 204.72C8.62933 205.12 9.088 205.691 9.392 206.432C9.70133 207.173 9.83467 208.056 9.792 209.08H8.352V208.568C8.336 207.507 8.12 206.715 7.704 206.192C7.288 205.664 6.66933 205.4 5.848 205.4C4.968 205.4 4.29867 205.683 3.84 206.248C3.38133 206.813 3.152 207.624 3.152 208.68C3.152 209.699 3.38133 210.488 3.84 211.048C4.29867 211.608 4.952 211.888 5.8 211.888C6.37067 211.888 6.86667 211.757 7.288 211.496C7.70933 211.235 8.04 210.859 8.28 210.368L9.648 210.84C9.312 211.603 8.80533 212.195 8.128 212.616C7.456 213.032 6.70133 213.24 5.864 213.24ZM2.672 209.08V207.936H9.056V209.08H2.672ZM17.1708 213V208.672C17.1708 208.261 17.1334 207.867 17.0588 207.488C16.9894 207.109 16.8641 206.771 16.6828 206.472C16.5068 206.168 16.2668 205.928 15.9628 205.752C15.6641 205.576 15.2854 205.488 14.8268 205.488C14.4694 205.488 14.1441 205.549 13.8508 205.672C13.5628 205.789 13.3148 205.971 13.1068 206.216C12.8988 206.461 12.7361 206.771 12.6188 207.144C12.5068 207.512 12.4508 207.947 12.4508 208.448L11.5148 208.16C11.5148 207.323 11.6641 206.605 11.9628 206.008C12.2668 205.405 12.6908 204.944 13.2348 204.624C13.7841 204.299 14.4294 204.136 15.1708 204.136C15.7308 204.136 16.2081 204.224 16.6028 204.4C16.9974 204.576 17.3254 204.811 17.5868 205.104C17.8481 205.392 18.0534 205.717 18.2028 206.08C18.3521 206.437 18.4561 206.803 18.5148 207.176C18.5788 207.544 18.6108 207.893 18.6108 208.224V213H17.1708ZM11.0108 213V204.36H12.2908V206.672H12.4508V213H11.0108ZM23.6845 213.24C22.8792 213.24 22.1885 213.04 21.6125 212.64C21.0365 212.235 20.5912 211.688 20.2765 211C19.9672 210.312 19.8125 209.536 19.8125 208.672C19.8125 207.808 19.9672 207.032 20.2765 206.344C20.5912 205.656 21.0365 205.115 21.6125 204.72C22.1885 204.32 22.8765 204.12 23.6765 204.12C24.4925 204.12 25.1778 204.317 25.7325 204.712C26.2872 205.107 26.7058 205.648 26.9885 206.336C27.2765 207.024 27.4205 207.803 27.4205 208.672C27.4205 209.531 27.2765 210.307 26.9885 211C26.7058 211.688 26.2872 212.235 25.7325 212.64C25.1778 213.04 24.4952 213.24 23.6845 213.24ZM23.8605 211.936C24.4418 211.936 24.9192 211.797 25.2925 211.52C25.6658 211.237 25.9405 210.851 26.1165 210.36C26.2978 209.864 26.3885 209.301 26.3885 208.672C26.3885 208.032 26.2978 207.469 26.1165 206.984C25.9405 206.493 25.6685 206.112 25.3005 205.84C24.9325 205.563 24.4658 205.424 23.9005 205.424C23.3138 205.424 22.8285 205.568 22.4445 205.856C22.0658 206.144 21.7832 206.533 21.5965 207.024C21.4152 207.515 21.3245 208.064 21.3245 208.672C21.3245 209.285 21.4178 209.84 21.6045 210.336C21.7912 210.827 22.0712 211.216 22.4445 211.504C22.8232 211.792 23.2952 211.936 23.8605 211.936ZM26.3885 213V206.64H26.2285V201.48H27.6605V213H26.3885ZM35.857 213.24C35.0517 213.24 34.361 213.04 33.785 212.64C33.209 212.235 32.7637 211.688 32.449 211C32.1397 210.312 31.985 209.536 31.985 208.672C31.985 207.808 32.1397 207.032 32.449 206.344C32.7637 205.656 33.209 205.115 33.785 204.72C34.361 204.32 35.049 204.12 35.849 204.12C36.665 204.12 37.3503 204.317 37.905 204.712C38.4597 205.107 38.8783 205.648 39.161 206.336C39.449 207.024 39.593 207.803 39.593 208.672C39.593 209.531 39.449 210.307 39.161 211C38.8783 211.688 38.4597 212.235 37.905 212.64C37.3503 213.04 36.6677 213.24 35.857 213.24ZM36.033 211.936C36.6143 211.936 37.0917 211.797 37.465 211.52C37.8383 211.237 38.113 210.851 38.289 210.36C38.4703 209.864 38.561 209.301 38.561 208.672C38.561 208.032 38.4703 207.469 38.289 206.984C38.113 206.493 37.841 206.112 37.473 205.84C37.105 205.563 36.6383 205.424 36.073 205.424C35.4863 205.424 35.001 205.568 34.617 205.856C34.2383 206.144 33.9557 206.533 33.769 207.024C33.5877 207.515 33.497 208.064 33.497 208.672C33.497 209.285 33.5903 209.84 33.777 210.336C33.9637 210.827 34.2437 211.216 34.617 211.504C34.9957 211.792 35.4677 211.936 36.033 211.936ZM38.561 213V206.64H38.401V201.48H39.833V213H38.561ZM41.9144 202.832V201.36H43.3384V202.832H41.9144ZM41.9144 213V204.36H43.3384V213H41.9144ZM48.6828 213.232C47.6534 213.232 46.8081 213.008 46.1468 212.56C45.4908 212.107 45.0881 211.475 44.9388 210.664L46.3948 210.432C46.5121 210.901 46.7814 211.275 47.2028 211.552C47.6241 211.824 48.1468 211.96 48.7708 211.96C49.3628 211.96 49.8268 211.837 50.1628 211.592C50.4988 211.347 50.6668 211.013 50.6668 210.592C50.6668 210.347 50.6108 210.149 50.4988 210C50.3868 209.845 50.1548 209.701 49.8028 209.568C49.4561 209.435 48.9308 209.275 48.2268 209.088C47.4641 208.885 46.8641 208.675 46.4268 208.456C45.9894 208.237 45.6774 207.984 45.4908 207.696C45.3041 207.408 45.2108 207.059 45.2108 206.648C45.2108 206.141 45.3494 205.699 45.6268 205.32C45.9041 204.936 46.2908 204.64 46.7868 204.432C47.2881 204.224 47.8694 204.12 48.5308 204.12C49.1868 204.12 49.7734 204.224 50.2908 204.432C50.8081 204.64 51.2241 204.936 51.5388 205.32C51.8588 205.699 52.0481 206.141 52.1068 206.648L50.6508 206.912C50.5814 206.448 50.3574 206.083 49.9788 205.816C49.6054 205.549 49.1228 205.408 48.5308 205.392C47.9708 205.371 47.5148 205.469 47.1628 205.688C46.8161 205.907 46.6428 206.203 46.6428 206.576C46.6428 206.784 46.7068 206.963 46.8348 207.112C46.9681 207.261 47.2108 207.403 47.5628 207.536C47.9201 207.669 48.4374 207.821 49.1148 207.992C49.8774 208.184 50.4774 208.395 50.9148 208.624C51.3574 208.848 51.6721 209.115 51.8588 209.424C52.0454 209.728 52.1388 210.104 52.1388 210.552C52.1388 211.384 51.8321 212.04 51.2188 212.52C50.6054 212.995 49.7601 213.232 48.6828 213.232ZM58.4071 213C57.8951 213.101 57.3885 213.141 56.8871 213.12C56.3911 213.104 55.9485 213.005 55.5591 212.824C55.1698 212.637 54.8738 212.349 54.6711 211.96C54.5005 211.619 54.4071 211.275 54.3911 210.928C54.3805 210.576 54.3751 210.179 54.3751 209.736V201.96H55.7991V209.672C55.7991 210.024 55.8018 210.325 55.8071 210.576C55.8178 210.827 55.8738 211.043 55.9751 211.224C56.1671 211.565 56.4711 211.765 56.8871 211.824C57.3085 211.883 57.8151 211.867 58.4071 211.776V213ZM52.6231 205.536V204.36H58.4071V205.536H52.6231ZM59.8412 213V204.36H61.1132V206.448L60.9052 206.176C61.0066 205.909 61.1372 205.664 61.2972 205.44C61.4626 205.216 61.6466 205.032 61.8492 204.888C62.0732 204.707 62.3266 204.568 62.6092 204.472C62.8919 204.376 63.1799 204.32 63.4732 204.304C63.7666 204.283 64.0412 204.301 64.2972 204.36V205.696C63.9986 205.616 63.6706 205.595 63.3132 205.632C62.9559 205.669 62.6252 205.8 62.3212 206.024C62.0439 206.221 61.8279 206.461 61.6732 206.744C61.5239 207.027 61.4199 207.333 61.3612 207.664C61.3026 207.989 61.2732 208.323 61.2732 208.664V213H59.8412ZM68.77 213.224C68.2153 213.224 67.738 213.136 67.338 212.96C66.9433 212.784 66.6153 212.549 66.354 212.256C66.0927 211.963 65.8873 211.637 65.738 211.28C65.5887 210.923 65.482 210.557 65.418 210.184C65.3593 209.811 65.33 209.461 65.33 209.136V204.36H66.77V208.688C66.77 209.093 66.8073 209.485 66.882 209.864C66.9567 210.243 67.082 210.584 67.258 210.888C67.4393 211.192 67.6793 211.432 67.978 211.608C68.282 211.784 68.6607 211.872 69.114 211.872C69.4713 211.872 69.7967 211.811 70.09 211.688C70.3833 211.565 70.634 211.384 70.842 211.144C71.05 210.899 71.21 210.589 71.322 210.216C71.434 209.843 71.49 209.408 71.49 208.912L72.426 209.2C72.426 210.032 72.274 210.749 71.97 211.352C71.6713 211.955 71.2473 212.419 70.698 212.744C70.154 213.064 69.5113 213.224 68.77 213.224ZM71.65 213V210.688H71.49V204.36H72.922V213H71.65ZM78.1059 213.232C77.0765 213.232 76.2312 213.008 75.5699 212.56C74.9139 212.107 74.5112 211.475 74.3619 210.664L75.8179 210.432C75.9352 210.901 76.2045 211.275 76.6259 211.552C77.0472 211.824 77.5699 211.96 78.1939 211.96C78.7859 211.96 79.2499 211.837 79.5859 211.592C79.9219 211.347 80.0899 211.013 80.0899 210.592C80.0899 210.347 80.0339 210.149 79.9219 210C79.8099 209.845 79.5779 209.701 79.2259 209.568C78.8792 209.435 78.3539 209.275 77.6499 209.088C76.8872 208.885 76.2872 208.675 75.8499 208.456C75.4125 208.237 75.1005 207.984 74.9139 207.696C74.7272 207.408 74.6339 207.059 74.6339 206.648C74.6339 206.141 74.7725 205.699 75.0499 205.32C75.3272 204.936 75.7139 204.64 76.2099 204.432C76.7112 204.224 77.2925 204.12 77.9539 204.12C78.6099 204.12 79.1965 204.224 79.7139 204.432C80.2312 204.64 80.6472 204.936 80.9619 205.32C81.2819 205.699 81.4712 206.141 81.5299 206.648L80.0739 206.912C80.0045 206.448 79.7805 206.083 79.4019 205.816C79.0285 205.549 78.5459 205.408 77.9539 205.392C77.3939 205.371 76.9379 205.469 76.5859 205.688C76.2392 205.907 76.0659 206.203 76.0659 206.576C76.0659 206.784 76.1299 206.963 76.2579 207.112C76.3912 207.261 76.6339 207.403 76.9859 207.536C77.3432 207.669 77.8605 207.821 78.5379 207.992C79.3005 208.184 79.9005 208.395 80.3379 208.624C80.7805 208.848 81.0952 209.115 81.2819 209.424C81.4685 209.728 81.5619 210.104 81.5619 210.552C81.5619 211.384 81.2552 212.04 80.6419 212.52C80.0285 212.995 79.1832 213.232 78.1059 213.232ZM87.8303 213C87.3183 213.101 86.8116 213.141 86.3103 213.12C85.8143 213.104 85.3716 213.005 84.9823 212.824C84.5929 212.637 84.2969 212.349 84.0943 211.96C83.9236 211.619 83.8303 211.275 83.8143 210.928C83.8036 210.576 83.7983 210.179 83.7983 209.736V201.96H85.2223V209.672C85.2223 210.024 85.2249 210.325 85.2303 210.576C85.2409 210.827 85.2969 211.043 85.3983 211.224C85.5903 211.565 85.8943 211.765 86.3103 211.824C86.7316 211.883 87.2383 211.867 87.8303 211.776V213ZM82.0463 205.536V204.36H87.8303V205.536H82.0463ZM92.5284 213.232C91.499 213.232 90.6537 213.008 89.9924 212.56C89.3364 212.107 88.9337 211.475 88.7844 210.664L90.2404 210.432C90.3577 210.901 90.627 211.275 91.0484 211.552C91.4697 211.824 91.9924 211.96 92.6164 211.96C93.2084 211.96 93.6724 211.837 94.0084 211.592C94.3444 211.347 94.5124 211.013 94.5124 210.592C94.5124 210.347 94.4564 210.149 94.3444 210C94.2324 209.845 94.0004 209.701 93.6484 209.568C93.3017 209.435 92.7764 209.275 92.0724 209.088C91.3097 208.885 90.7097 208.675 90.2724 208.456C89.835 208.237 89.523 207.984 89.3364 207.696C89.1497 207.408 89.0564 207.059 89.0564 206.648C89.0564 206.141 89.195 205.699 89.4724 205.32C89.7497 204.936 90.1364 204.64 90.6324 204.432C91.1337 204.224 91.715 204.12 92.3764 204.12C93.0324 204.12 93.619 204.224 94.1364 204.432C94.6537 204.64 95.0697 204.936 95.3844 205.32C95.7044 205.699 95.8937 206.141 95.9524 206.648L94.4964 206.912C94.427 206.448 94.203 206.083 93.8244 205.816C93.451 205.549 92.9684 205.408 92.3764 205.392C91.8164 205.371 91.3604 205.469 91.0084 205.688C90.6617 205.907 90.4884 206.203 90.4884 206.576C90.4884 206.784 90.5524 206.963 90.6804 207.112C90.8137 207.261 91.0564 207.403 91.4084 207.536C91.7657 207.669 92.283 207.821 92.9604 207.992C93.723 208.184 94.323 208.395 94.7604 208.624C95.203 208.848 95.5177 209.115 95.7044 209.424C95.891 209.728 95.9844 210.104 95.9844 210.552C95.9844 211.384 95.6777 212.04 95.0644 212.52C94.451 212.995 93.6057 213.232 92.5284 213.232ZM110.64 213L110.648 207.472C110.648 206.827 110.475 206.323 110.128 205.96C109.787 205.592 109.341 205.408 108.792 205.408C108.472 205.408 108.168 205.483 107.88 205.632C107.592 205.776 107.357 206.005 107.176 206.32C106.995 206.629 106.904 207.027 106.904 207.512L106.152 207.208C106.141 206.595 106.267 206.059 106.528 205.6C106.795 205.136 107.157 204.776 107.616 204.52C108.075 204.264 108.592 204.136 109.168 204.136C110.069 204.136 110.779 204.411 111.296 204.96C111.813 205.504 112.072 206.237 112.072 207.16L112.064 213H110.64ZM100.304 213V204.36H101.576V206.672H101.736V213H100.304ZM105.48 213L105.488 207.528C105.488 206.867 105.317 206.349 104.976 205.976C104.635 205.597 104.181 205.408 103.616 205.408C103.056 205.408 102.603 205.6 102.256 205.984C101.909 206.368 101.736 206.877 101.736 207.512L100.984 207.064C100.984 206.504 101.117 206.003 101.384 205.56C101.651 205.117 102.013 204.771 102.472 204.52C102.931 204.264 103.451 204.136 104.032 204.136C104.613 204.136 105.12 204.259 105.552 204.504C105.984 204.749 106.317 205.101 106.552 205.56C106.787 206.013 106.904 206.555 106.904 207.184L106.896 213H105.48ZM116.292 213.24C115.646 213.24 115.105 213.123 114.668 212.888C114.236 212.648 113.908 212.333 113.684 211.944C113.465 211.555 113.356 211.128 113.356 210.664C113.356 210.211 113.441 209.819 113.612 209.488C113.788 209.152 114.033 208.875 114.348 208.656C114.662 208.432 115.038 208.256 115.476 208.128C115.886 208.016 116.345 207.92 116.852 207.84C117.364 207.755 117.881 207.677 118.404 207.608C118.926 207.539 119.414 207.472 119.868 207.408L119.356 207.704C119.372 206.936 119.217 206.368 118.892 206C118.572 205.632 118.017 205.448 117.228 205.448C116.705 205.448 116.246 205.568 115.852 205.808C115.462 206.043 115.188 206.427 115.028 206.96L113.676 206.552C113.884 205.795 114.286 205.2 114.884 204.768C115.481 204.336 116.268 204.12 117.244 204.12C118.028 204.12 118.7 204.261 119.26 204.544C119.825 204.821 120.23 205.243 120.476 205.808C120.598 206.075 120.676 206.365 120.708 206.68C120.74 206.989 120.756 207.315 120.756 207.656V213H119.492V210.928L119.788 211.12C119.462 211.819 119.006 212.347 118.42 212.704C117.838 213.061 117.129 213.24 116.292 213.24ZM116.508 212.048C117.02 212.048 117.462 211.957 117.836 211.776C118.214 211.589 118.518 211.347 118.748 211.048C118.977 210.744 119.126 210.413 119.196 210.056C119.276 209.789 119.318 209.493 119.324 209.168C119.334 208.837 119.34 208.584 119.34 208.408L119.836 208.624C119.372 208.688 118.916 208.749 118.468 208.808C118.02 208.867 117.596 208.931 117.196 209C116.796 209.064 116.436 209.141 116.116 209.232C115.881 209.307 115.66 209.403 115.452 209.52C115.249 209.637 115.084 209.789 114.956 209.976C114.833 210.157 114.772 210.384 114.772 210.656C114.772 210.891 114.83 211.115 114.948 211.328C115.07 211.541 115.257 211.715 115.508 211.848C115.764 211.981 116.097 212.048 116.508 212.048ZM123.231 216.84L124.903 212.296L124.927 213.64L121.151 204.36H122.647L125.607 211.824H125.095L127.871 204.36H129.319L124.615 216.84H123.231ZM133.364 202.832V201.36H134.788V202.832H133.364ZM133.364 213V204.36H134.788V213H133.364ZM143.02 213V208.672C143.02 208.261 142.983 207.867 142.908 207.488C142.839 207.109 142.713 206.771 142.532 206.472C142.356 206.168 142.116 205.928 141.812 205.752C141.513 205.576 141.135 205.488 140.676 205.488C140.319 205.488 139.993 205.549 139.7 205.672C139.412 205.789 139.164 205.971 138.956 206.216C138.748 206.461 138.585 206.771 138.468 207.144C138.356 207.512 138.3 207.947 138.3 208.448L137.364 208.16C137.364 207.323 137.513 206.605 137.812 206.008C138.116 205.405 138.54 204.944 139.084 204.624C139.633 204.299 140.279 204.136 141.02 204.136C141.58 204.136 142.057 204.224 142.452 204.4C142.847 204.576 143.175 204.811 143.436 205.104C143.697 205.392 143.903 205.717 144.052 206.08C144.201 206.437 144.305 206.803 144.364 207.176C144.428 207.544 144.46 207.893 144.46 208.224V213H143.02ZM136.86 213V204.36H138.14V206.672H138.3V213H136.86ZM149.484 213.232C148.455 213.232 147.609 213.008 146.948 212.56C146.292 212.107 145.889 211.475 145.74 210.664L147.196 210.432C147.313 210.901 147.583 211.275 148.004 211.552C148.425 211.824 148.948 211.96 149.572 211.96C150.164 211.96 150.628 211.837 150.964 211.592C151.3 211.347 151.468 211.013 151.468 210.592C151.468 210.347 151.412 210.149 151.3 210C151.188 209.845 150.956 209.701 150.604 209.568C150.257 209.435 149.732 209.275 149.028 209.088C148.265 208.885 147.665 208.675 147.228 208.456C146.791 208.237 146.479 207.984 146.292 207.696C146.105 207.408 146.012 207.059 146.012 206.648C146.012 206.141 146.151 205.699 146.428 205.32C146.705 204.936 147.092 204.64 147.588 204.432C148.089 204.224 148.671 204.12 149.332 204.12C149.988 204.12 150.575 204.224 151.092 204.432C151.609 204.64 152.025 204.936 152.34 205.32C152.66 205.699 152.849 206.141 152.908 206.648L151.452 206.912C151.383 206.448 151.159 206.083 150.78 205.816C150.407 205.549 149.924 205.408 149.332 205.392C148.772 205.371 148.316 205.469 147.964 205.688C147.617 205.907 147.444 206.203 147.444 206.576C147.444 206.784 147.508 206.963 147.636 207.112C147.769 207.261 148.012 207.403 148.364 207.536C148.721 207.669 149.239 207.821 149.916 207.992C150.679 208.184 151.279 208.395 151.716 208.624C152.159 208.848 152.473 209.115 152.66 209.424C152.847 209.728 152.94 210.104 152.94 210.552C152.94 211.384 152.633 212.04 152.02 212.52C151.407 212.995 150.561 213.232 149.484 213.232ZM159.208 213C158.696 213.101 158.19 213.141 157.688 213.12C157.192 213.104 156.75 213.005 156.36 212.824C155.971 212.637 155.675 212.349 155.472 211.96C155.302 211.619 155.208 211.275 155.192 210.928C155.182 210.576 155.176 210.179 155.176 209.736V201.96H156.6V209.672C156.6 210.024 156.603 210.325 156.608 210.576C156.619 210.827 156.675 211.043 156.776 211.224C156.968 211.565 157.272 211.765 157.688 211.824C158.11 211.883 158.616 211.867 159.208 211.776V213ZM153.424 205.536V204.36H159.208V205.536H153.424ZM163.099 213.24C162.453 213.24 161.912 213.123 161.475 212.888C161.043 212.648 160.715 212.333 160.491 211.944C160.272 211.555 160.163 211.128 160.163 210.664C160.163 210.211 160.248 209.819 160.419 209.488C160.595 209.152 160.84 208.875 161.155 208.656C161.469 208.432 161.845 208.256 162.283 208.128C162.693 208.016 163.152 207.92 163.659 207.84C164.171 207.755 164.688 207.677 165.211 207.608C165.733 207.539 166.221 207.472 166.675 207.408L166.163 207.704C166.179 206.936 166.024 206.368 165.699 206C165.379 205.632 164.824 205.448 164.035 205.448C163.512 205.448 163.053 205.568 162.659 205.808C162.269 206.043 161.995 206.427 161.835 206.96L160.483 206.552C160.691 205.795 161.093 205.2 161.691 204.768C162.288 204.336 163.075 204.12 164.051 204.12C164.835 204.12 165.507 204.261 166.067 204.544C166.632 204.821 167.037 205.243 167.283 205.808C167.405 206.075 167.483 206.365 167.515 206.68C167.547 206.989 167.563 207.315 167.563 207.656V213H166.299V210.928L166.595 211.12C166.269 211.819 165.813 212.347 165.227 212.704C164.645 213.061 163.936 213.24 163.099 213.24ZM163.315 212.048C163.827 212.048 164.269 211.957 164.643 211.776C165.021 211.589 165.325 211.347 165.555 211.048C165.784 210.744 165.933 210.413 166.003 210.056C166.083 209.789 166.125 209.493 166.131 209.168C166.141 208.837 166.147 208.584 166.147 208.408L166.643 208.624C166.179 208.688 165.723 208.749 165.275 208.808C164.827 208.867 164.403 208.931 164.003 209C163.603 209.064 163.243 209.141 162.923 209.232C162.688 209.307 162.467 209.403 162.259 209.52C162.056 209.637 161.891 209.789 161.763 209.976C161.64 210.157 161.579 210.384 161.579 210.656C161.579 210.891 161.637 211.115 161.755 211.328C161.877 211.541 162.064 211.715 162.315 211.848C162.571 211.981 162.904 212.048 163.315 212.048ZM175.474 213V208.672C175.474 208.261 175.437 207.867 175.362 207.488C175.293 207.109 175.168 206.771 174.986 206.472C174.81 206.168 174.57 205.928 174.266 205.752C173.968 205.576 173.589 205.488 173.13 205.488C172.773 205.488 172.448 205.549 172.154 205.672C171.866 205.789 171.618 205.971 171.41 206.216C171.202 206.461 171.04 206.771 170.922 207.144C170.81 207.512 170.754 207.947 170.754 208.448L169.818 208.16C169.818 207.323 169.968 206.605 170.266 206.008C170.57 205.405 170.994 204.944 171.538 204.624C172.088 204.299 172.733 204.136 173.474 204.136C174.034 204.136 174.512 204.224 174.906 204.4C175.301 204.576 175.629 204.811 175.89 205.104C176.152 205.392 176.357 205.717 176.507 206.08C176.656 206.437 176.76 206.803 176.818 207.176C176.883 207.544 176.915 207.893 176.915 208.224V213H175.474ZM169.314 213V204.36H170.594V206.672H170.754V213H169.314ZM183.498 213C182.986 213.101 182.48 213.141 181.978 213.12C181.482 213.104 181.04 213.005 180.65 212.824C180.261 212.637 179.965 212.349 179.762 211.96C179.592 211.619 179.498 211.275 179.482 210.928C179.472 210.576 179.466 210.179 179.466 209.736V201.96H180.89V209.672C180.89 210.024 180.893 210.325 180.898 210.576C180.909 210.827 180.965 211.043 181.066 211.224C181.258 211.565 181.562 211.765 181.978 211.824C182.4 211.883 182.906 211.867 183.498 211.776V213ZM177.714 205.536V204.36H183.498V205.536H177.714ZM185.093 213V201.24H186.517V213H185.093ZM189.797 216.84L191.469 212.296L191.493 213.64L187.717 204.36H189.213L192.173 211.824H191.661L194.437 204.36H195.885L191.181 216.84H189.797ZM195.861 213V211.432H197.429V213H195.861Z" fill="#64607D"/>
<rect y="13" width="64" height="64" rx="20" fill="white"/>
<rect x="20" y="33" width="23" height="23" rx="10" fill="#C4C4C4"/>
</svg>
